<?xml version="1.0" encoding="UTF-8" standalone="no"?>
<svg
   xmlns:dc="http://purl.org/dc/elements/1.1/"
   xmlns:cc="http://creativecommons.org/ns#"
   xmlns:rdf="http://www.w3.org/1999/02/22-rdf-syntax-ns#"
   xmlns:svg="http://www.w3.org/2000/svg"
   xmlns="http://www.w3.org/2000/svg"
   xmlns:sodipodi="http://sodipodi.sourceforge.net/DTD/sodipodi-0.dtd"
   xmlns:inkscape="http://www.inkscape.org/namespaces/inkscape"
   height="100"
   width="100"
   version="1.1"
   id="svg2"
   enable-background="new 0 0 64 64"
   viewBox="0 0 100 100"
   inkscape:version="0.91 r13725"
   sodipodi:docname="01d.svg">
  <sodipodi:namedview
     pagecolor="#ffffff"
     bordercolor="#666666"
     borderopacity="1"
     objecttolerance="10"
     gridtolerance="10"
     guidetolerance="10"
     inkscape:pageopacity="0"
     inkscape:pageshadow="2"
     inkscape:window-width="1680"
     inkscape:window-height="1013"
     id="namedview22"
     showgrid="false"
     inkscape:zoom="9.44"
     inkscape:cx="23.432648"
     inkscape:cy="26.750773"
     inkscape:window-x="1920"
     inkscape:window-y="425"
     inkscape:window-maximized="1"
     inkscape:current-layer="svg2" />
  <metadata
     id="metadata42">
    <rdf:RDF>
      <cc:Work
         rdf:about="">
        <dc:format>image/svg+xml</dc:format>
        <dc:type
           rdf:resource="http://purl.org/dc/dcmitype/StillImage" />
        <dc:title />
      </cc:Work>
    </rdf:RDF>
  </metadata>
  <defs
     id="defs40" />
  <path
     id="path4"
     d="m 30.866667,96.195 11.711666,-12 c -4.163333,-0.9 -8.04,-2.548333 -11.506666,-4.783333 l -0.205,16.783333"
     style="stroke:none;stroke-opacity:1;fill:#000000;fill-opacity:1" />
  <path
     id="path6"
     d="M 69.133333,3.806667 57.425,15.805 c 4.163333,0.901667 8.04,2.548333 11.506667,4.785 L 69.133333,3.806667"
     style="stroke:none;stroke-opacity:1;fill:#000000;fill-opacity:1" />
  <path
     id="path8"
     d="M 15.806667,57.423333 3.805,69.131667 20.588333,68.928333 C 18.353333,65.461667 16.705,61.585 15.806667,57.423333"
     style="stroke:none;stroke-opacity:1;fill:#000000;fill-opacity:1" />
  <path
     id="path10"
     d="M 84.193333,42.578333 96.195,30.866667 l -16.783333,0.205 c 2.235,3.466666 3.883333,7.345 4.781666,11.506666"
     style="stroke:none;stroke-opacity:1;fill:#000000;fill-opacity:1" />
  <path
     id="path12"
     d="M 20.59,31.07 3.806667,30.865 15.808333,42.576667 C 16.705,38.413333 18.353333,34.536667 20.59,31.07"
     style="stroke:none;stroke-opacity:1;fill:#000000;fill-opacity:1" />
  <path
     id="path14"
     d="m 79.41,68.93 16.783333,0.203333 -12.001666,-11.71 C 83.295,61.585 81.646667,65.463333 79.41,68.93"
     style="stroke:none;stroke-opacity:1;fill:#000000;fill-opacity:1" />
  <path
     id="path16"
     d="m 42.578333,15.805 -11.711666,-12 0.205,16.783333 C 34.538333,18.353333 38.415,16.705 42.578333,15.805"
     style="stroke:none;stroke-opacity:1;fill:#000000;fill-opacity:1" />
  <path
     id="path18"
     d="m 57.421667,84.195 11.711666,11.998333 -0.205,-16.781666 C 65.461667,81.645 61.585,83.295 57.421667,84.195"
     style="stroke:none;stroke-opacity:1;fill:#000000;fill-opacity:1" />
  <path
     id="path20"
     d="M 21.253333,69.936667 14.641667,85.355 l 15.42,-6.608333 c -3.436667,-2.388334 -6.421667,-5.375 -8.808334,-8.81"
     style="stroke:none;stroke-opacity:1;fill:#000000;fill-opacity:1" />
  <path
     id="path22"
     d="M 78.746667,30.065 85.355,14.645 69.938333,21.253333 c 3.436667,2.39 6.421667,5.375 8.808334,8.811667"
     style="stroke:none;stroke-opacity:1;fill:#000000;fill-opacity:1" />
  <path
     id="path24"
     d="m 15,50 c 0,-2.13 0.221667,-4.206667 0.586667,-6.235 L 0,49.998333 15.586667,56.231667 C 15.221667,54.206667 15,52.13 15,50 Z"
     style="stroke:none;stroke-opacity:1;fill:#000000;fill-opacity:1" />
  <path
     id="path26"
     d="M 100,50 84.413333,43.765 C 84.778333,45.793333 85,47.87 85,50 c 0,2.131667 -0.221667,4.208333 -0.586667,6.235 L 100,50 Z"
     style="stroke:none;stroke-opacity:1;fill:#000000;fill-opacity:1" />
  <path
     id="path28"
     d="m 30.065,21.251667 -15.42,-6.608334 6.608333,15.42 c 2.39,-3.436666 5.375,-6.421666 8.811667,-8.811666"
     style="stroke:none;stroke-opacity:1;fill:#000000;fill-opacity:1" />
  <path
     id="path30"
     d="M 69.935,78.746667 85.355,85.355 78.746667,69.936667 c -2.39,3.436666 -5.375,6.421666 -8.811667,8.81"
     style="stroke:none;stroke-opacity:1;fill:#000000;fill-opacity:1" />
  <path
     id="path32"
     d="M 56.233333,15.586667 50,0 43.766667,15.586667 C 45.791667,15.221667 47.868333,15 50,15 c 2.131667,0 4.208333,0.221667 6.233333,0.586667"
     style="fill:#000000;fill-opacity:1;stroke:none;stroke-opacity:1" />
  <path
     id="path34"
     d="M 43.766667,85.398855 50,100.23646 56.233333,85.398855 c -2.025,0.34746 -4.28893,0.3089 -6.420597,0.3089 -2.131667,0 -4.021069,0.0386 -6.046069,-0.3089"
     style="fill:#000000;fill-opacity:1;stroke:none;stroke-opacity:1"
     inkscape:connector-curvature="0"
     sodipodi:nodetypes="cccsc" />
  <circle
     id="circle36"
     r="31.666666"
     cy="50"
     cx="50"
     style="stroke:none;stroke-opacity:1;fill:#000000;fill-opacity:1" />
</svg>
