<?xml version="1.0" encoding="UTF-8" standalone="no"?>
<svg
   xmlns:dc="http://purl.org/dc/elements/1.1/"
   xmlns:cc="http://creativecommons.org/ns#"
   xmlns:rdf="http://www.w3.org/1999/02/22-rdf-syntax-ns#"
   xmlns:svg="http://www.w3.org/2000/svg"
   xmlns="http://www.w3.org/2000/svg"
   version="1.1"
   id="svg2"
   enable-background="new 0 0 64 64"
   viewBox="0 0 64 64">
  <metadata
     id="metadata42">
    <rdf:RDF>
      <cc:Work
         rdf:about="">
        <dc:format>image/svg+xml</dc:format>
        <dc:type
           rdf:resource="http://purl.org/dc/dcmitype/StillImage" />
        <dc:title></dc:title>
      </cc:Work>
    </rdf:RDF>
  </metadata>
  <defs
     id="defs40" />
  <path
     id="path4"
     d="m 21.55774,57.211508 6.391791,-6.549152 c -2.272192,-0.491187 -4.387932,-1.390785 -6.27991,-2.610565 l -0.111881,9.159717" />
  <path
     id="path6"
     d="m 42.44226,6.7894011 -6.389972,6.5482429 c 2.272192,0.492096 4.387932,1.390785 6.27991,2.611475 L 42.44226,6.7894011" />
  <path
     id="path8"
     d="M 13.338554,36.051379 6.7884915,42.44135 15.948209,42.330379 c -1.21978,-1.891978 -2.119378,-4.007718 -2.609655,-6.279" />
  <path
     id="path10"
     d="m 50.661446,27.949531 6.550062,-6.391791 -9.159717,0.111881 c 1.21978,1.891978 2.119378,4.008628 2.609655,6.27991" />
  <path
     id="path12"
     d="m 15.949119,21.668712 -9.1597179,-0.111881 6.5500619,6.39179 c 0.489368,-2.272192 1.388966,-4.387932 2.609656,-6.279909" />
  <path
     id="path14"
     d="m 48.050881,42.331288 9.159718,0.110972 -6.550062,-6.390881 c -0.489368,2.271282 -1.388966,4.387932 -2.609656,6.279909" />
  <path
     id="path16"
     d="M 27.949531,13.337644 21.55774,6.7884915 21.669621,15.948209 c 1.891978,-1.21978 4.007718,-2.119378 6.27991,-2.610565" />
  <path
     id="path18"
     d="m 36.050469,50.662356 6.391791,6.548243 -0.111881,-9.158808 c -1.891978,1.21887 -4.007718,2.119378 -6.27991,2.610565" />
  <path
     id="path20"
     d="m 16.311141,42.880689 -3.608401,8.414752 8.415661,-3.606582 c -1.875604,-1.303464 -3.504706,-2.933475 -4.80726,-4.80817" />
  <path
     id="path22"
     d="m 47.688859,21.12022 3.606582,-8.415661 -8.413842,3.606582 c 1.875604,1.304373 3.504706,2.933475 4.80726,4.809079" />
  <path
     id="path24"
     d="m 12.898305,32 c 0,-1.162475 0.120977,-2.295842 0.320181,-3.402831 L 4.7118644,31.99909 13.218486,35.401011 C 13.019282,34.295842 12.898305,33.162475 12.898305,32 Z" />
  <path
     id="path26"
     d="m 59.288136,32 -8.506622,-3.402831 c 0.199204,1.106989 0.320181,2.240356 0.320181,3.402831 0,1.163384 -0.120977,2.296751 -0.320181,3.402831 L 59.288136,32 Z" />
  <path
     id="path28"
     d="m 21.12022,16.310232 -8.415661,-3.606582 3.606582,8.415661 c 1.304373,-1.875605 2.933475,-3.504706 4.809079,-4.809079" />
  <path
     id="path30"
     d="m 42.87978,47.688859 8.415661,3.606582 -3.606582,-8.414752 c -1.304373,1.875605 -2.933475,3.504706 -4.809079,4.80817" />
  <path
     id="path32"
     d="M 35.401921,13.218486 32,4.7118644 28.598079,13.218486 C 29.703249,13.019282 30.836616,12.898305 32,12.898305 c 1.163384,0 2.296751,0.120977 3.401921,0.320181" />
  <path
     id="path34"
     d="M 28.598079,50.781514 32,59.288136 35.401921,50.781514 C 34.296751,50.980718 33.163384,51.101695 32,51.101695 c -1.163384,0 -2.296751,-0.120977 -3.401921,-0.320181" />
  <circle
     id="circle36"
     r="17.282486"
     cy="32"
     cx="32" />
</svg>
