<?xml version="1.0" encoding="UTF-8" standalone="no"?>
<svg
   xmlns:dc="http://purl.org/dc/elements/1.1/"
   xmlns:cc="http://creativecommons.org/ns#"
   xmlns:rdf="http://www.w3.org/1999/02/22-rdf-syntax-ns#"
   xmlns:svg="http://www.w3.org/2000/svg"
   xmlns="http://www.w3.org/2000/svg"
   viewBox="0 0 100 100"
   enable-background="new 0 0 64 64"
   id="svg2"
   version="1.1"
   width="100"
   height="100">
  <metadata
     id="metadata10">
    <rdf:RDF>
      <cc:Work
         rdf:about="">
        <dc:format>image/svg+xml</dc:format>
        <dc:type
           rdf:resource="http://purl.org/dc/dcmitype/StillImage" />
        <dc:title></dc:title>
      </cc:Work>
    </rdf:RDF>
  </metadata>
  <defs
     id="defs8" />
  <path
     d="m 68.564476,0 c 0.08417,0.12492187 0.16779,0.25023641 0.250861,0.37594023 0.08307,0.12570383 0.165594,0.25179694 0.247562,0.37827598 0.08197,0.12647903 0.163383,0.25334399 0.244241,0.38059149 0.08086,0.1272475 0.161159,0.2548776 0.2409,0.3828868 0.07974,0.1280092 0.158921,0.2563976 0.237537,0.3851619 0.07862,0.1287642 0.156669,0.2579042 0.234155,0.3874167 0.07748,0.1295125 0.154403,0.2593974 0.23075,0.3896514 0.07635,0.130254 0.152124,0.2608771 0.227327,0.3918659 0.0752,0.1309887 0.14983,0.2623432 0.22388,0.39406 0.07405,0.1317168 0.147523,0.2637959 0.220414,0.396234 0.07289,0.1324381 0.145202,0.2652352 0.216927,0.3983878 0.07173,0.1331527 0.142867,0.266661 0.21342,0.4005214 0.07055,0.1338605 0.140517,0.2680732 0.20989,0.4026347 0.06937,0.1345616 0.138154,0.269472 0.206341,0.4047279 0.06819,0.1352559 0.135777,0.2708572 0.20277,0.4068007 0.06699,0.1359435 0.133387,0.2722291 0.199179,0.4088535 0.06579,0.1366243 0.130982,0.2735874 0.195566,0.4108859 0.06458,0.1372985 0.128564,0.2749323 0.191934,0.4128981 0.06337,0.1379659 0.126132,0.2762638 0.18828,0.4148902 0.06215,0.1386265 0.123685,0.2775817 0.184606,0.4168621 0.06092,0.1392803 0.121225,0.278886 0.18091,0.4188136 0.05969,0.1399275 0.118751,0.280177 0.177194,0.420745 0.05844,0.1405679 0.116263,0.2814545 0.173456,0.4226561 0.05719,0.1412017 0.113761,0.2827185 0.169699,0.4245471 0.05594,0.1418286 0.111245,0.283969 0.16592,0.4264175 0.05467,0.142449 0.108716,0.285206 0.16212,0.428269 0.05341,0.143062 0.106173,0.286429 0.1583,0.430098 0.05213,0.143669 0.103616,0.28764 0.154459,0.431909 0.05084,0.144269 0.101044,0.288836 0.150597,0.433699 0.04955,0.144862 0.09846,0.290019 0.146714,0.435468 0.04825,0.145449 0.09586,0.291189 0.14281,0.437217 0.04695,0.146029 0.09325,0.292346 0.138885,0.438947 0.04564,0.146602 0.09062,0.293488 0.134941,0.440656 0.04432,0.147168 0.08798,0.294617 0.130974,0.442345 0.04299,0.147727 0.08532,0.295733 0.126987,0.444013 0.04166,0.14828 0.08266,0.296835 0.122979,0.445661 0.04032,0.148827 0.07997,0.297924 0.11895,0.44729 0.03898,0.149365 0.07728,0.298999 0.114901,0.448897 0.03762,0.149898 0.07457,0.300061 0.11083,0.450485 0.03626,0.150424 0.07184,0.30111 0.10674,0.452053 0.03489,0.150943 0.06911,0.302144 0.102627,0.4536 0.03352,0.151455 0.06635,0.303166 0.09849,0.455127 0.03214,0.151961 0.06359,0.304173 0.09434,0.456633 0.03075,0.152461 0.06081,0.305168 0.09017,0.458121 0.02936,0.152952 0.05801,0.306149 0.08597,0.459586 0.02796,0.153438 0.05521,0.307117 0.08176,0.461033 0.02655,0.153916 0.05239,0.30807 0.07752,0.462459 0.02513,0.154388 0.04955,0.309011 0.07326,0.463864 0.02371,0.154854 0.0467,0.309938 0.06898,0.46525 0.02228,0.155312 0.04384,0.310852 0.06468,0.466615 0.02084,0.155764 0.04096,0.311752 0.06036,0.467961 0.0194,0.156208 0.03807,0.312638 0.05602,0.469285 0.01795,0.156647 0.03517,0.313511 0.05166,0.47059 0.01649,0.157078 0.03225,0.314371 0.04728,0.471874 0.01503,0.157503 0.02932,0.315217 0.04287,0.473138 0.01355,0.157921 0.02637,0.31605 0.03845,0.474382 0.01208,0.158333 0.02341,0.316869 0.034,0.475607 0.01059,0.158737 0.02044,0.317674 0.02954,0.476809 0.0091,0.159135 0.01745,0.318467 0.02505,0.477993 0.0076,0.159526 0.01445,0.319246 0.02054,0.479156 0.0061,0.15991 0.01143,0.320011 0.01601,0.480299 0.0046,0.160288 0.0084,0.320763 0.01146,0.481422 0.0031,0.160658 0.0054,0.321501 0.0069,0.482524 0.0015,0.161023 0.0023,0.322226 0.0023,0.483606 0,0.10873 -3.48e-4,0.217381 -0.001,0.325949 -6.95e-4,0.108569 -0.0017,0.217056 -0.0031,0.325461 -0.0014,0.108404 -0.0031,0.216727 -0.0052,0.324965 -0.0021,0.108239 -0.0045,0.216394 -0.0073,0.324465 -0.0028,0.10807 -0.0059,0.216057 -0.0093,0.323957 -0.0035,0.107901 -0.0073,0.215716 -0.01139,0.323444 -0.0041,0.107728 -0.0086,0.21537 -0.01344,0.322924 -0.0048,0.107555 -0.01,0.215021 -0.01549,0.322399 -0.0055,0.107378 -0.01134,0.214667 -0.01752,0.321867 -0.0062,0.107199 -0.0127,0.214309 -0.01956,0.321328 -0.0069,0.107019 -0.01405,0.213948 -0.02158,0.320784 -0.0075,0.106837 -0.0154,0.213582 -0.0236,0.320234 -0.0082,0.106652 -0.01674,0.213211 -0.02562,0.319677 -0.0089,0.106465 -0.01808,0.212837 -0.02762,0.319114 -0.0095,0.106277 -0.01942,0.212459 -0.02962,0.318545 -0.01021,0.106086 -0.02075,0.212076 -0.03162,0.317969 -0.01087,0.105894 -0.02207,0.21169 -0.03361,0.317389 -0.01153,0.105698 -0.0234,0.211299 -0.03559,0.3168 -0.01219,0.105502 -0.02471,0.210904 -0.03756,0.316207 -0.01285,0.105302 -0.02603,0.210505 -0.03953,0.315607 -0.01351,0.105101 -0.02734,0.210102 -0.0415,0.315 -0.01416,0.104899 -0.02864,0.209695 -0.04345,0.314388 -0.01481,0.104694 -0.02995,0.209284 -0.04541,0.31377 -0.01546,0.104486 -0.03124,0.208868 -0.04735,0.313145 -0.01611,0.104277 -0.03254,0.208449 -0.04929,0.312514 -0.01675,0.104066 -0.03382,0.208025 -0.05122,0.311877 -0.01739,0.103852 -0.03511,0.207597 -0.05315,0.311234 -0.01803,0.103636 -0.03639,0.207165 -0.05506,0.310584 -0.01868,0.103419 -0.03767,0.206729 -0.05698,0.309928 -0.01931,0.1032 -0.03894,0.206289 -0.05889,0.309267 -0.01995,0.102977 -0.04021,0.205844 -0.06079,0.308598 -0.02058,0.102754 -0.04147,0.205396 -0.06268,0.307924 -0.02121,0.102529 -0.04273,0.204944 -0.06457,0.307244 -0.02184,0.102301 -0.04399,0.204487 -0.06645,0.306558 -0.02246,0.10207 -0.04524,0.204026 -0.06833,0.305864 -0.02309,0.101839 -0.04649,0.203561 -0.0702,0.305166 -0.02371,0.101605 -0.04773,0.203092 -0.07206,0.30446 -0.02433,0.101369 -0.04897,0.202619 -0.07392,0.303749 -0.02495,0.101131 -0.05021,0.202142 -0.07577,0.303032 -0.02556,0.10089 -0.05143,0.20166 -0.07761,0.302308 -0.02618,0.100648 -0.05266,0.201174 -0.07945,0.301578 -0.02679,0.100403 -0.05388,0.200684 -0.08128,0.300842 -0.0274,0.100157 -0.0551,0.200191 -0.08311,0.300099 -0.02801,0.09991 -0.05632,0.199693 -0.08493,0.299352 -0.02861,0.09966 -0.05753,0.19919 -0.08674,0.298596 -0.02922,0.09941 -0.05873,0.198685 -0.08855,0.297836 -0.02982,0.09915 -0.05993,0.198174 -0.09035,0.297069 -0.03042,0.09889 -0.06113,0.19766 -0.09214,0.296295 -0.03101,0.09864 -0.06232,0.197142 -0.09393,0.295516 -0.03161,0.09838 -0.06351,0.196619 -0.09571,0.294731 -0.0322,0.09811 -0.0647,0.196092 -0.09749,0.293939 -0.03279,0.09785 -0.06588,0.195561 -0.09926,0.293141 -0.03338,0.09758 -0.06705,0.195026 -0.101023,0.292337 -0.03397,0.09731 -0.06823,0.194487 -0.10278,0.291526 -0.03455,0.09704 -0.0694,0.193944 -0.10453,0.29071 -0.03514,0.09677 -0.07056,0.193397 -0.106276,0.289888 -0.03571,0.09649 -0.07172,0.192844 -0.108013,0.289058 -0.03629,0.09621 -0.07288,0.192289 -0.109746,0.288224 -0.03687,0.09594 -0.07403,0.191729 -0.111471,0.287382 -0.03744,0.09565 -0.07518,0.191165 -0.113191,0.286535 -0.03802,0.09537 -0.07632,0.190597 -0.114904,0.285681 -0.03859,0.09508 -0.07746,0.190025 -0.116612,0.284822 -0.03915,0.0948 -0.07859,0.189449 -0.118312,0.283956 -0.03972,0.09451 -0.07972,0.188868 -0.120006,0.283083 -0.04028,0.09421 -0.08085,0.188284 -0.121695,0.282205 -0.04085,0.09392 -0.08197,0.187695 -0.123376,0.281321 -0.04141,0.09363 -0.08309,0.187102 -0.125053,0.280429 -0.04196,0.09333 -0.0842,0.186506 -0.126722,0.279533 -0.04252,0.09303 -0.08531,0.185905 -0.128385,0.27863 -0.04307,0.09273 -0.08642,0.185299 -0.130042,0.277721 -0.04362,0.09242 -0.08752,0.18469 -0.131693,0.276805 -0.04417,0.09211 -0.08862,0.184077 -0.133338,0.275883 -0.04472,0.09181 -0.08971,0.18346 -0.134976,0.274956 -0.04526,0.0915 -0.0908,0.182838 -0.136607,0.274022 -0.04581,0.09118 -0.09189,0.182212 -0.138234,0.273081 -0.04635,0.09087 -0.09297,0.181582 -0.139853,0.272136 -0.04689,0.09055 -0.09404,0.180947 -0.141466,0.271182 -0.04742,0.09023 -0.09511,0.18031 -0.143073,0.270224 -0.04796,0.08991 -0.09618,0.179668 -0.144674,0.269259 -0.04849,0.08959 -0.09725,0.179021 -0.146269,0.268288 -0.04902,0.08927 -0.09831,0.17837 -0.147856,0.26731 -0.04955,0.08894 -0.09936,0.177716 -0.149439,0.266327 -0.05008,0.08861 -0.100414,0.177058 -0.151014,0.265338 -0.0506,0.08828 -0.101462,0.176394 -0.152584,0.264341 -0.05112,0.08795 -0.102505,0.175728 -0.154147,0.26334 -0.05164,0.08761 -0.103544,0.175056 -0.155704,0.262331 -0.05216,0.08727 -0.104579,0.174381 -0.157255,0.261317 -0.05268,0.08694 -0.10561,0.173702 -0.1588,0.260296 -0.05319,0.08659 -0.106636,0.173018 -0.160337,0.25927 -0.0537,0.08625 -0.107658,0.17233 -0.16187,0.258236 -0.05421,0.08591 -0.108676,0.171639 -0.163395,0.257198 -0.05472,0.08556 -0.10969,0.170943 -0.164914,0.256152 -0.05523,0.08521 -0.110701,0.170243 -0.166428,0.2551 -0.05573,0.08486 -0.111707,0.169539 -0.167935,0.254043 -0.05623,0.0845 -0.112708,0.168831 -0.169436,0.252979 -0.05673,0.08415 -0.113705,0.168118 -0.17093,0.251909 -0.05723,0.08379 -0.114698,0.167402 -0.172418,0.250833 -0.05772,0.08343 -0.115687,0.166681 -0.173901,0.24975 -0.05821,0.08307 -0.116672,0.165956 -0.175376,0.248661 -0.0587,0.0827 -0.117652,0.165228 -0.176845,0.247567 -0.05919,0.08234 -0.118629,0.164495 -0.178309,0.246466 -0.05968,0.08197 -0.119601,0.163757 -0.179765,0.245358 -0.06016,0.0816 -0.12057,0.163017 -0.181216,0.244245 -0.06065,0.08123 -0.121534,0.162271 -0.182661,0.243126 -0.06113,0.08085 -0.122494,0.161522 -0.184099,0.242 -0.06161,0.08048 -0.123449,0.160768 -0.185531,0.240868 -0.06208,0.0801 -0.124401,0.16001 -0.186957,0.23973 -0.06256,0.07972 -0.125348,0.159248 -0.188376,0.238585 -0.06303,0.07934 -0.126291,0.158483 -0.189789,0.237435 -0.0635,0.07895 -0.12723,0.157713 -0.191196,0.236279 -0.06397,0.07857 -0.128165,0.156938 -0.192597,0.235115 -0.06443,0.07818 -0.129096,0.15616 -0.193991,0.233947 -0.0649,0.07779 -0.130023,0.155377 -0.19538,0.232771 -0.06536,0.07739 -0.130945,0.154591 -0.196761,0.23159 -0.06582,0.077 -0.131863,0.1538 -0.198138,0.230402 -0.06627,0.0766 -0.132776,0.153005 -0.199506,0.229208 -0.06673,0.0762 -0.133687,0.152207 -0.20087,0.228009 -0.06718,0.0758 -0.134592,0.151403 -0.202227,0.226802 -0.06763,0.0754 -0.135494,0.150596 -0.203577,0.22559 -0.06808,0.07499 -0.136391,0.149785 -0.204922,0.224372 -0.06853,0.07459 -0.137284,0.148969 -0.20626,0.223147 -0.06898,0.07418 -0.138173,0.148149 -0.207592,0.221916 -0.06942,0.07377 -0.139058,0.147326 -0.208918,0.220678 -0.06986,0.07335 -0.139938,0.146499 -0.210237,0.219436 -0.0703,0.07294 -0.140815,0.145666 -0.21155,0.218186 -0.07073,0.07252 -0.141687,0.14483 -0.212857,0.216931 -0.07117,0.0721 -0.142556,0.14399 -0.214158,0.215668 -0.0716,0.07168 -0.14342,0.143146 -0.215452,0.214401 -0.07203,0.07126 -0.14428,0.142297 -0.21674,0.213126 -0.07246,0.07083 -0.145136,0.141445 -0.218023,0.211847 -0.07289,0.0704 -0.145986,0.140588 -0.219298,0.210559 -0.07331,0.06997 -0.146834,0.139728 -0.220567,0.209267 -0.07373,0.06954 -0.147677,0.138862 -0.221831,0.207968 -0.07415,0.0691 -0.148516,0.137993 -0.223087,0.206663 -0.07457,0.06867 -0.149351,0.13712 -0.224338,0.205351 -0.07499,0.06823 -0.150182,0.136243 -0.225583,0.204034 -0.0754,0.06779 -0.151008,0.135362 -0.22682,0.202711 -0.07581,0.06735 -0.151831,0.134476 -0.228053,0.20138 -0.07622,0.06691 -0.152648,0.133586 -0.229278,0.200044 -0.07663,0.06646 -0.153463,0.132693 -0.230498,0.198703 -0.07704,0.06601 -0.154272,0.131794 -0.231711,0.197354 -0.07744,0.06556 -0.155078,0.130892 -0.232917,0.195999 -0.07784,0.06511 -0.15588,0.129986 -0.234119,0.194638 -0.07824,0.06465 -0.156676,0.129076 -0.235312,0.193272 -0.07864,0.06419 -0.15747,0.128162 -0.236501,0.191898 -0.07903,0.06374 -0.158259,0.127243 -0.237683,0.190519 -0.07942,0.06328 -0.159044,0.126321 -0.238858,0.189134 -0.07982,0.06281 -0.159825,0.125394 -0.240028,0.187742 -0.0802,0.06235 -0.160601,0.124462 -0.241191,0.186343 -0.08059,0.06188 -0.161373,0.123528 -0.242348,0.18494 -0.08097,0.06141 -0.162141,0.122589 -0.243498,0.18353 -0.08136,0.06094 -0.162906,0.121645 -0.244643,0.182113 -0.08174,0.06047 -0.163665,0.120698 -0.245781,0.180691 -0.08212,0.05999 -0.164421,0.119746 -0.246913,0.179261 -0.08249,0.05952 -0.165172,0.118791 -0.248039,0.177827 -0.08287,0.05904 -0.165919,0.117831 -0.249158,0.176386 -0.08324,0.05855 -0.166662,0.116867 -0.250271,0.174938 -0.08361,0.05807 -0.167401,0.115899 -0.251378,0.173484 -0.08398,0.05759 -0.168136,0.114928 -0.252478,0.172025 -0.08434,0.0571 -0.168867,0.113951 -0.253573,0.170559 -0.08471,0.05661 -0.169593,0.112971 -0.254661,0.169087 -0.08507,0.05612 -0.170316,0.111986 -0.255743,0.167609 -0.08543,0.05562 -0.171034,0.110997 -0.256818,0.166124 -0.08579,0.05513 -0.171748,0.110004 -0.257888,0.164633 -0.08614,0.05463 -0.172458,0.109008 -0.258951,0.163137 -0.08649,0.05413 -0.173163,0.108006 -0.260008,0.161633 -0.08684,0.05363 -0.173865,0.107002 -0.261059,0.160124 -0.08719,0.05312 -0.174561,0.105993 -0.262102,0.158609 -0.08754,0.05262 -0.175255,0.104979 -0.263141,0.157088 -0.08789,0.05211 -0.175944,0.103961 -0.264173,0.155559 -0.08823,0.0516 -0.176629,0.10294 -0.265198,0.154026 -0.08857,0.05108 -0.17731,0.101914 -0.266218,0.152485 -0.08891,0.05057 -0.177986,0.100884 -0.267231,0.150939 -0.08924,0.05006 -0.178658,0.09985 -0.268238,0.149387 -0.08958,0.04954 -0.179326,0.09881 -0.269238,0.147828 -0.08991,0.04902 -0.17999,0.09777 -0.270233,0.146262 -0.09024,0.04849 -0.18065,0.09672 -0.271221,0.144692 -0.09057,0.04797 -0.181305,0.09567 -0.272202,0.143115 -0.0909,0.04744 -0.181957,0.09462 -0.273178,0.141531 -0.09122,0.04691 -0.182605,0.09356 -0.274148,0.139942 -0.09154,0.04638 -0.183247,0.0925 -0.275111,0.138345 -0.09186,0.04585 -0.183886,0.09143 -0.276067,0.136744 -0.09218,0.04531 -0.184521,0.09036 -0.277018,0.135136 -0.0925,0.04478 -0.185152,0.08928 -0.277963,0.133521 -0.09281,0.04424 -0.185778,0.0882 -0.2789,0.131901 -0.09312,0.0437 -0.1864,0.08712 -0.279832,0.130274 -0.09343,0.04315 -0.187019,0.08603 -0.280758,0.128641 -0.09374,0.04261 -0.187633,0.08494 -0.281678,0.127001 -0.09404,0.04206 -0.188242,0.08385 -0.28259,0.125357 -0.09435,0.04151 -0.188848,0.08275 -0.283497,0.123705 -0.09465,0.04096 -0.189449,0.08164 -0.284398,0.122047 -0.09495,0.04041 -0.190046,0.08053 -0.285292,0.120384 -0.09525,0.03985 -0.190639,0.07942 -0.28618,0.118714 -0.09554,0.03929 -0.191229,0.0783 -0.287062,0.117037 -0.09583,0.03873 -0.191813,0.07718 -0.287938,0.115355 -0.09612,0.03817 -0.192393,0.07606 -0.288807,0.113666 -0.09641,0.03761 -0.19297,0.07493 -0.28967,0.111972 -0.0967,0.03704 -0.193542,0.0738 -0.290526,0.11027 -0.09698,0.03647 -0.194111,0.07266 -0.291378,0.108564 -0.09727,0.0359 -0.194674,0.07152 -0.292221,0.10685 -0.09755,0.03533 -0.195235,0.07037 -0.29306,0.10513 -0.09783,0.03476 -0.19579,0.06923 -0.293892,0.103405 -0.0981,0.03418 -0.196341,0.06807 -0.294717,0.101673 -0.09838,0.0336 -0.196888,0.06691 -0.295536,0.09994 -0.09865,0.03302 -0.197432,0.06575 -0.29635,0.09819 -0.09892,0.03244 -0.19797,0.06459 -0.297156,0.09644 -0.09919,0.03185 -0.198505,0.06342 -0.297957,0.09468 -0.09945,0.03127 -0.199036,0.06224 -0.298751,0.09292 -0.09972,0.03068 -0.199562,0.06106 -0.299539,0.09115 -0.09998,0.03009 -0.200085,0.05988 -0.300321,0.08938 -0.100237,0.0295 -0.200603,0.0587 -0.301097,0.0876 -0.100494,0.0289 -0.201116,0.0575 -0.301866,0.08581 -0.100749,0.0283 -0.201626,0.05631 -0.302629,0.08401 -0.101003,0.0277 -0.202131,0.05511 -0.303385,0.08221 -0.101254,0.0271 -0.202634,0.05391 -0.304137,0.08041 -0.101503,0.0265 -0.20313,0.0527 -0.30488,0.0786 -0.10175,0.0259 -0.203624,0.05149 -0.305619,0.07678 -0.101995,0.02529 -0.204112,0.05027 -0.30635,0.07495 -0.102238,0.02468 -0.204597,0.04905 -0.307076,0.07312 -0.102479,0.02407 -0.205078,0.04783 -0.307795,0.07128 -0.102718,0.02345 -0.205554,0.0466 -0.308509,0.06944 -0.102954,0.02284 -0.206026,0.04537 -0.309215,0.06759 -0.103188,0.02222 -0.206494,0.04413 -0.309915,0.06574 -0.103421,0.0216 -0.206958,0.04289 -0.31061,0.06387 -0.103652,0.02098 -0.207418,0.04165 -0.311298,0.06201 -0.10388,0.02036 -0.207873,0.0404 -0.31198,0.06013 -0.104106,0.01973 -0.208324,0.03915 -0.312655,0.05825 -0.10433,0.0191 -0.208772,0.03789 -0.313324,0.05637 -0.104553,0.01847 -0.209215,0.03663 -0.313988,0.05447 -0.104772,0.01784 -0.209654,0.03537 -0.314644,0.05257 -0.10499,0.01721 -0.210089,0.0341 -0.315295,0.05067 -0.105206,0.01657 -0.210519,0.03282 -0.315939,0.04876 -0.105419,0.01593 -0.210946,0.03155 -0.316577,0.04684 -0.105631,0.01529 -0.211368,0.03027 -0.317209,0.04492 -0.105841,0.01465 -0.211786,0.02898 -0.317834,0.04299 -0.106048,0.01401 -0.2122,0.02769 -0.318454,0.04105 -0.106253,0.01336 -0.212609,0.0264 -0.319066,0.03911 -0.106457,0.01271 -0.213015,0.0251 -0.319674,0.03716 -0.106658,0.01206 -0.213416,0.0238 -0.320274,0.03521 -0.106857,0.01141 -0.213813,0.02249 -0.320868,0.03325 -0.107054,0.01075 -0.214207,0.02118 -0.321456,0.03128 -0.107249,0.0101 -0.214596,0.01987 -0.322038,0.0293 -0.107442,0.0094 -0.21498,0.01855 -0.322613,0.02733 -0.107633,0.0088 -0.215361,0.01722 -0.323183,0.02534 -0.107822,0.0081 -0.215737,0.0159 -0.323746,0.02335 -0.108008,0.0075 -0.216109,0.01457 -0.324302,0.02135 -0.108193,0.0068 -0.216478,0.01323 -0.324853,0.01935 -0.108375,0.0061 -0.216841,0.01189 -0.325397,0.01734 -0.108556,0.0054 -0.217201,0.01055 -0.325935,0.01532 -0.108734,0.0048 -0.217557,0.0092 -0.326467,0.0133 -0.10891,0.0041 -0.217908,0.0079 -0.326992,0.01127 -0.109085,0.0034 -0.218256,0.0065 -0.327512,0.0092 -0.109256,0.0027 -0.218598,0.0051 -0.328025,0.0072 -0.109426,0.0021 -0.218937,0.0038 -0.328531,0.0051 -0.109594,0.0014 -0.219272,0.0024 -0.329032,0.0031 -0.10976,6.88e-4 -0.219602,0.001 -0.329526,0.001 -0.149377,0 -0.298604,-6.36e-4 -0.447678,-0.0019 -0.149074,-0.0013 -0.297995,-0.0032 -0.446759,-0.0057 -0.148765,-0.0025 -0.297374,-0.0057 -0.445825,-0.0095 -0.148451,-0.0038 -0.296743,-0.0082 -0.444875,-0.01327 -0.148131,-0.005 -0.296102,-0.01073 -0.443909,-0.01702 -0.147806,-0.0063 -0.29545,-0.01322 -0.442927,-0.02077 -0.147477,-0.0075 -0.294788,-0.01571 -0.441931,-0.02449 -0.147142,-0.0088 -0.294115,-0.01818 -0.440918,-0.0282 -0.146802,-0.01002 -0.293433,-0.02065 -0.439889,-0.03189 -0.146457,-0.01125 -0.29274,-0.0231 -0.438846,-0.03557 -0.146107,-0.01247 -0.292037,-0.02555 -0.437787,-0.03924 -0.145751,-0.01369 -0.291322,-0.02798 -0.436712,-0.04288 -0.14539,-0.0149 -0.290598,-0.03041 -0.435621,-0.04652 -0.145024,-0.01611 -0.289863,-0.03282 -0.434515,-0.05013 -0.144652,-0.01731 -0.289118,-0.03522 -0.433393,-0.05373 -0.144276,-0.01851 -0.288362,-0.03762 -0.432256,-0.05732 -0.143894,-0.0197 -0.287596,-0.04 -0.431103,-0.06089 -0.143507,-0.02089 -0.28682,-0.04237 -0.429935,-0.06444 -0.143114,-0.02207 -0.286032,-0.04473 -0.42875,-0.06798 -0.142717,-0.02325 -0.285235,-0.04709 -0.42755,-0.07151 -0.142315,-0.02442 -0.284428,-0.04943 -0.426335,-0.07501 -0.141907,-0.02559 -0.28361,-0.05176 -0.425104,-0.07851 -0.141494,-0.02675 -0.282781,-0.05408 -0.423857,-0.08198 -0.141077,-0.02791 -0.281943,-0.05639 -0.422596,-0.08544 -0.140653,-0.02906 -0.281093,-0.05869 -0.421317,-0.08889 -0.140225,-0.0302 -0.280233,-0.06098 -0.420024,-0.09232 -0.139791,-0.03134 -0.279363,-0.06326 -0.418715,-0.09574 -0.139352,-0.03248 -0.278483,-0.06552 -0.417391,-0.09913 -0.138907,-0.03361 -0.277592,-0.06778 -0.41605,-0.102517 -0.138458,-0.03473 -0.276691,-0.07003 -0.414694,-0.105886 -0.138004,-0.03585 -0.275779,-0.07227 -0.413323,-0.109238 -0.137545,-0.03697 -0.274857,-0.07449 -0.411937,-0.112575 -0.137079,-0.03808 -0.273924,-0.07671 -0.410533,-0.115896 -0.136609,-0.03918 -0.272981,-0.07892 -0.409115,-0.119202 -0.136134,-0.04028 -0.272028,-0.08112 -0.407682,-0.122493 -0.135653,-0.04138 -0.271064,-0.0833 -0.406231,-0.125768 -0.135168,-0.04247 -0.270091,-0.08548 -0.404767,-0.129028 C 10.183242,75.800521 10.048812,75.756429 9.9146322,75.7118 9.7804519,75.667171 9.646521,75.622003 9.5128421,75.5763 9.3791632,75.530598 9.2457362,75.484359 9.1125638,75.437588 8.9793915,75.390817 8.8464736,75.343513 8.713813,75.295678 8.5811524,75.247844 8.4487489,75.199479 8.3166052,75.150587 8.1844615,75.101694 8.0525776,75.052274 7.920956,75.002329 7.7893345,74.952383 7.6579753,74.901913 7.5268811,74.85092 7.3957869,74.799927 7.2649576,74.748412 7.134396,74.696376 7.0038343,74.644341 6.8735402,74.591785 6.7435163,74.538713 6.6134924,74.48564 6.4837387,74.43205 6.3542577,74.377945 6.2247767,74.32384 6.0955686,74.26922 5.9666357,74.214089 5.8377029,74.158957 5.7090455,74.103313 5.580666,74.047159 5.4522866,73.991005 5.3241851,73.934342 5.1963642,73.877172 5.0685433,73.820002 4.9410029,73.762325 4.8137458,73.704143 4.6864886,73.645961 4.5595146,73.587275 4.4328264,73.528087 4.3061382,73.468899 4.1797358,73.409209 4.0536217,73.34902 3.9275077,73.288831 3.801682,73.228143 3.6761473,73.166958 3.5506126,73.105773 3.4253689,73.044092 3.3004188,72.981916 3.1754686,72.91974 3.050812,72.857071 2.9264517,72.79391 2.8020913,72.730748 2.6780271,72.667096 2.5542616,72.602954 2.4304962,72.538812 2.3070296,72.474182 2.1838643,72.409065 2.060699,72.343948 1.9378351,72.278345 1.8152752,72.212258 1.6927153,72.146171 1.5704594,72.079601 1.44851,72.012549 1.3265606,71.945498 1.2049179,71.877965 1.0835843,71.809953 0.96225068,71.741942 0.84122626,71.673452 0.72051363,71.604486 0.599801,71.53552 0.47940014,71.466078 0.35931367,71.396163 0.2392272,71.326248 0.11945511,71.255859 0,71.185 c 0.06781363,0.13349 0.13618809,0.266652 0.2051203,0.399485 0.0689322,0.132832 0.1384222,0.265334 0.20846689,0.397504 0.0700447,0.132169 0.14064409,0.264005 0.21179513,0.395505 0.071151,0.1315 0.14285375,0.262664 0.21510504,0.393488 0.0722513,0.130825 0.14505118,0.26131 0.21839664,0.391454 0.073345,0.130143 0.1472363,0.259944 0.2216698,0.389399 0.074433,0.129456 0.1494094,0.258566 0.2249247,0.387328 0.075515,0.128763 0.1515701,0.257176 0.2281613,0.385239 0.076591,0.128062 0.1537186,0.255773 0.2313794,0.38313 0.077661,0.127357 0.155855,0.254359 0.2345794,0.381004 0.078724,0.126645 0.157979,0.252932 0.2377609,0.378859 0.079782,0.125927 0.1600908,0.251494 0.240924,0.376697 0.080833,0.125203 0.1621905,0.250043 0.2440689,0.374516 0.081878,0.124473 0.1642779,0.248579 0.2471954,0.372316 0.082918,0.123737 0.1663531,0.247105 0.2503036,0.370099 0.08395,0.122995 0.168416,0.245617 0.2533935,0.367864 0.084977,0.122246 0.1704667,0.244117 0.2564649,0.365609 0.085998,0.121492 0.1725052,0.242606 0.259518,0.363338 0.087013,0.120731 0.1745315,0.241081 0.2625529,0.361047 0.088021,0.119965 0.1765455,0.239546 0.2655694,0.358738 0.089024,0.119193 0.1785473,0.237998 0.2685675,0.356412 0.09002,0.118414 0.1805369,0.236437 0.2715473,0.354067 0.09101,0.117629 0.1825142,0.234865 0.2745087,0.351703 0.091995,0.116839 0.1844794,0.233281 0.2774519,0.349323 0.092972,0.116041 0.1864323,0.231683 0.2803766,0.346922 0.093944,0.115239 0.188373,0.230075 0.2832831,0.344505 0.09491,0.114429 0.1903014,0.228453 0.2861711,0.342068 0.09587,0.113615 0.1922177,0.22682 0.289041,0.339614 0.096823,0.112794 0.1941217,0.225175 0.2918923,0.337142 0.097771,0.111966 0.1960135,0.223517 0.2947255,0.33465 0.098712,0.111133 0.197893,0.221848 0.2975401,0.332142 0.099647,0.110294 0.1997604,0.220166 0.3003366,0.329614 0.1005762,0.109449 0.2016155,0.218473 0.3031146,0.327069 0.1014992,0.108597 0.2034584,0.216766 0.3058744,0.324506 0.102416,0.107739 0.205289,0.215048 0.3086157,0.321923 0.1033268,0.106875 0.2071074,0.213317 0.3113388,0.319323 0.1042314,0.106006 0.2089136,0.211575 0.3140435,0.316705 0.1051299,0.10513 0.2107076,0.20982 0.3167299,0.314068 0.1060223,0.104248 0.2124893,0.208054 0.3193983,0.311414 0.106908,0.10336 0.214258,0.206274 0.322047,0.30874 0.107789,0.102466 0.216016,0.204483 0.324679,0.306049 0.108663,0.101566 0.217761,0.20268 0.327292,0.30334 0.109531,0.100659 0.219494,0.200864 0.329887,0.300612 0.110392,0.09975 0.221214,0.199037 0.332462,0.297866 0.111249,0.09883 0.222923,0.197197 0.335021,0.295101 0.112098,0.0979 0.224619,0.195346 0.337561,0.29232 0.112941,0.09697 0.226303,0.193481 0.340082,0.289518 0.113779,0.09604 0.227975,0.191606 0.342585,0.2867 0.11461,0.0951 0.229634,0.189717 0.345069,0.283863 0.115435,0.09415 0.231282,0.187817 0.347536,0.281008 0.116254,0.09319 0.232916,0.185903 0.349984,0.278134 0.117067,0.09223 0.234539,0.183979 0.352413,0.275242 0.117874,0.09126 0.23615,0.182042 0.354824,0.272332 0.118675,0.09029 0.237749,0.180093 0.357218,0.269405 0.119469,0.08931 0.239334,0.178131 0.359592,0.266457 0.120258,0.08833 0.240908,0.176159 0.361949,0.263493 0.12104,0.08733 0.242469,0.174173 0.364286,0.260511 0.121816,0.08634 0.244019,0.172175 0.366606,0.257509 0.122586,0.08533 0.245556,0.170165 0.368907,0.25449 0.12335,0.08432 0.247081,0.168143 0.37119,0.251452 0.124108,0.08331 0.248594,0.166109 0.373454,0.248396 0.124861,0.08229 0.250095,0.164063 0.375701,0.245323 0.125606,0.08126 0.251583,0.162004 0.377929,0.24223 0.126345,0.08023 0.253059,0.159934 0.380138,0.23912 0.127079,0.07919 0.254523,0.157851 0.382329,0.235991 0.127807,0.07814 0.255975,0.155756 0.384503,0.232844 0.128527,0.07709 0.257414,0.153649 0.386656,0.22968 0.129243,0.07603 0.258842,0.15153 0.388793,0.226496 0.129952,0.07497 0.260257,0.149398 0.390911,0.223294 0.130655,0.0739 0.261659,0.147255 0.39301,0.220074 0.131352,0.07282 0.26305,0.1451 0.395092,0.216837 0.132042,0.07174 0.264428,0.142931 0.397154,0.21358 0.132727,0.07065 0.265794,0.140752 0.399199,0.210306 0.133405,0.06955 0.267147,0.13856 0.401225,0.207013 0.134077,0.06845 0.268489,0.136355 0.403232,0.203702 0.134744,0.06735 0.269819,0.134139 0.405223,0.200373 0.135403,0.06624 0.271135,0.131911 0.407193,0.197026 0.136057,0.06511 0.27244,0.12967 0.409146,0.19366 0.136705,0.06399 0.273733,0.127417 0.41108,0.190277 0.137348,0.06286 0.275014,0.125152 0.412997,0.186874 0.137983,0.06172 0.276282,0.122875 0.414894,0.183454 0.138613,0.06058 0.277538,0.120586 0.416774,0.180016 0.139236,0.05943 0.278782,0.118284 0.418635,0.176559 0.139853,0.05827 0.280013,0.11597 0.420478,0.173083 0.140464,0.05711 0.281232,0.113645 0.422302,0.169591 0.141069,0.05595 0.282439,0.111307 0.424108,0.16608 0.141668,0.05477 0.283634,0.108956 0.425896,0.162549 0.142261,0.05359 0.284817,0.106595 0.427665,0.159002 0.142848,0.05241 0.285988,0.104221 0.429416,0.155436 0.143429,0.05122 0.287146,0.101834 0.431149,0.151852 0.144003,0.05002 0.288292,0.09943 0.432863,0.148249 0.144572,0.04881 0.289426,0.09703 0.43456,0.144629 0.145134,0.0476 0.290547,0.0946 0.436237,0.140989 0.14569,0.04639 0.291656,0.09217 0.437896,0.137332 0.14624,0.04517 0.292754,0.08972 0.439538,0.133657 0.146784,0.04394 0.293838,0.08726 0.44116,0.129963 0.147322,0.0427 0.294911,0.08479 0.442764,0.126252 0.147854,0.04146 0.295972,0.0823 0.444351,0.122521 0.148379,0.04022 0.297019,0.07981 0.445918,0.118773 0.148899,0.03896 0.298055,0.0773 0.447467,0.115007 0.149412,0.03771 0.299079,0.07478 0.448999,0.111221 0.149919,0.03644 0.30009,0.07225 0.450511,0.107419 0.15042,0.03517 0.30109,0.0697 0.452005,0.103598 0.150916,0.03389 0.302077,0.06715 0.453481,0.09976 0.151405,0.03261 0.303052,0.06458 0.454939,0.0959 0.151888,0.03132 0.304015,0.062 0.456379,0.09202 0.152363,0.03003 0.304964,0.0594 0.457799,0.08813 0.152834,0.02873 0.305902,0.0568 0.459201,0.08422 0.153299,0.02742 0.306829,0.05418 0.460586,0.08029 0.153758,0.02611 0.307743,0.05155 0.461952,0.07634 0.15421,0.02479 0.308644,0.04891 0.4633,0.07237 0.154656,0.02346 0.309533,0.04626 0.464629,0.06839 0.155095,0.02213 0.31041,0.04359 0.465939,0.06438 0.15553,0.02079 0.311275,0.04091 0.467233,0.06036 0.155957,0.01945 0.312127,0.03822 0.468506,0.05632 0.156379,0.0181 0.312968,0.03552 0.469762,0.05226 0.156795,0.01674 0.313796,0.03281 0.471,0.04819 0.157204,0.01538 0.314612,0.03008 0.472219,0.04409 0.157608,0.01401 0.315416,0.02734 0.47342,0.03998 0.158005,0.01264 0.316207,0.02459 0.474603,0.03585 0.158396,0.01126 0.316986,0.02183 0.475766,0.0317 0.158781,0.0099 0.317753,0.01905 0.476913,0.02753 0.15916,0.0085 0.318507,0.01626 0.47804,0.02335 0.159533,0.0071 0.31925,0.01346 0.479149,0.01914 0.159899,0.0057 0.31998,0.01065 0.48024,0.01492 0.16026,0.0043 0.320699,0.0078 0.481313,0.01068 0.160614,0.0029 0.321404,0.005 0.482366,0.0064 0.160963,0.0014 0.322098,0.0021 0.483403,0.0021 0.113921,0 0.227758,-3.57e-4 0.34151,-0.0011 0.113751,-7.13e-4 0.227417,-0.0018 0.340997,-0.0032 0.11358,-0.0014 0.227073,-0.0032 0.340479,-0.0053 0.113406,-0.0021 0.226724,-0.0046 0.339953,-0.0075 0.11323,-0.0028 0.226371,-0.006 0.339423,-0.0096 0.113051,-0.0035 0.226013,-0.0074 0.338884,-0.01168 0.11287,-0.0042 0.225651,-0.0088 0.338339,-0.01378 0.112688,-0.0049 0.225285,-0.01024 0.337788,-0.01588 0.112504,-0.0056 0.224915,-0.01163 0.337231,-0.01797 0.112317,-0.0063 0.224539,-0.01302 0.336667,-0.02005 0.112128,-0.007 0.22416,-0.0144 0.336096,-0.02213 0.111937,-0.0077 0.223777,-0.01579 0.33552,-0.0242 0.111743,-0.0084 0.223389,-0.01716 0.334936,-0.02626 0.111547,-0.0091 0.222996,-0.01854 0.334346,-0.02832 0.11135,-0.0098 0.2226,-0.0199 0.33375,-0.03037 0.111149,-0.01046 0.222199,-0.02127 0.333147,-0.03242 0.110947,-0.01114 0.221793,-0.02263 0.332537,-0.03445 0.110744,-0.01182 0.221384,-0.02399 0.331922,-0.03648 0.110537,-0.0125 0.22097,-0.02534 0.331299,-0.03851 0.110329,-0.01317 0.220553,-0.02668 0.330671,-0.04053 0.110118,-0.01385 0.22013,-0.02803 0.330035,-0.04254 0.109905,-0.01452 0.219703,-0.02937 0.329393,-0.04455 0.109691,-0.01518 0.219273,-0.0307 0.328746,-0.04655 0.109473,-0.01585 0.218837,-0.03203 0.32809,-0.04854 0.109254,-0.01651 0.218397,-0.03336 0.32743,-0.05053 0.109032,-0.01717 0.217953,-0.03468 0.326761,-0.05251 0.108809,-0.01783 0.217505,-0.03599 0.326088,-0.05448 0.108583,-0.01849 0.217052,-0.03731 0.325407,-0.05645 0.108355,-0.01914 0.216595,-0.03862 0.32472,-0.05841 0.108125,-0.0198 0.216134,-0.03992 0.324026,-0.06037 0.107893,-0.02045 0.215669,-0.04122 0.323327,-0.06232 0.107658,-0.0211 0.215198,-0.04252 0.322619,-0.06426 0.107422,-0.02174 0.214724,-0.04381 0.321907,-0.0662 0.107183,-0.02239 0.214245,-0.0451 0.321187,-0.06813 0.106942,-0.02303 0.213763,-0.04638 0.320461,-0.07005 0.106699,-0.02367 0.213276,-0.04766 0.319729,-0.07196 0.106454,-0.02431 0.212784,-0.04893 0.31899,-0.07388 0.106206,-0.02494 0.212288,-0.0502 0.318244,-0.07578 0.105957,-0.02558 0.211788,-0.05147 0.317493,-0.07768 0.105705,-0.02621 0.211283,-0.05273 0.316734,-0.07957 0.105451,-0.02684 0.210775,-0.05399 0.315969,-0.08145 0.105195,-0.02746 0.210262,-0.05524 0.315198,-0.08333 0.104937,-0.02809 0.209744,-0.05649 0.314421,-0.0852 0.104676,-0.02871 0.209222,-0.05773 0.313635,-0.08707 0.104414,-0.02933 0.208696,-0.05898 0.312846,-0.08893 0.104149,-0.02995 0.208165,-0.06021 0.312047,-0.09078 0.103883,-0.03057 0.207631,-0.06144 0.311245,-0.09262 0.103613,-0.03118 0.207091,-0.06267 0.310434,-0.09446 0.103342,-0.03179 0.206548,-0.06389 0.309617,-0.0963 0.103069,-0.0324 0.206001,-0.06511 0.308794,-0.09813 0.102793,-0.03301 0.205449,-0.06633 0.307964,-0.09995 0.102516,-0.03362 0.204893,-0.06754 0.307129,-0.101759 0.102236,-0.03422 0.204331,-0.06875 0.306285,-0.103568 0.101955,-0.03482 0.203767,-0.06995 0.305437,-0.105368 0.10167,-0.03542 0.203198,-0.07114 0.304581,-0.107164 0.101384,-0.03602 0.202624,-0.07234 0.303719,-0.108952 0.101096,-0.03661 0.202046,-0.07353 0.302851,-0.110734 0.100805,-0.03721 0.201463,-0.07471 0.301975,-0.112509 0.100512,-0.0378 0.200877,-0.07589 0.301095,-0.114279 0.100217,-0.03839 0.200286,-0.07707 0.300206,-0.116042 0.09992,-0.03897 0.199691,-0.07824 0.299311,-0.117798 0.09962,-0.03956 0.199092,-0.07941 0.298411,-0.119548 0.09932,-0.04014 0.198488,-0.08057 0.297503,-0.121291 0.09902,-0.04072 0.19788,-0.08173 0.29659,-0.123029 0.09871,-0.0413 0.197267,-0.08289 0.295669,-0.12476 0.0984,-0.04187 0.19665,-0.08404 0.294743,-0.126483 0.09809,-0.04245 0.196029,-0.08518 0.293809,-0.128202 0.09778,-0.04302 0.195403,-0.08633 0.292869,-0.129914 0.09747,-0.04359 0.194774,-0.08746 0.291923,-0.131618 0.09715,-0.04416 0.19414,-0.0886 0.29097,-0.133317 0.09683,-0.04472 0.193501,-0.08973 0.290011,-0.13501 0.09651,-0.04529 0.192859,-0.09085 0.289045,-0.136695 0.09619,-0.04585 0.192212,-0.09197 0.288074,-0.138375 0.09586,-0.04641 0.19156,-0.09309 0.287094,-0.140049 0.09553,-0.04696 0.190904,-0.0942 0.286109,-0.141714 0.0952,-0.04752 0.190245,-0.09531 0.285118,-0.143375 0.09487,-0.04807 0.18958,-0.09641 0.28412,-0.145029 0.09454,-0.04862 0.188911,-0.09751 0.283115,-0.146676 0.0942,-0.04917 0.188238,-0.09861 0.282104,-0.148318 0.09386,-0.04971 0.187561,-0.0997 0.281086,-0.149952 0.09352,-0.05026 0.18688,-0.100782 0.280062,-0.15158 0.09318,-0.0508 0.186194,-0.101865 0.279032,-0.153202 0.09284,-0.05134 0.185504,-0.102943 0.277995,-0.154817 0.09249,-0.05188 0.184809,-0.104017 0.276952,-0.156427 0.09214,-0.05241 0.18411,-0.105086 0.275901,-0.158029 0.09179,-0.05294 0.183407,-0.106151 0.274846,-0.159625 0.09144,-0.05347 0.182699,-0.107212 0.273782,-0.161215 0.09108,-0.054 0.181987,-0.108269 0.272713,-0.162798 0.09073,-0.05453 0.181271,-0.109321 0.271637,-0.164375 0.09037,-0.05505 0.180551,-0.11037 0.270554,-0.165946 0.09,-0.05558 0.179827,-0.111413 0.269466,-0.16751 0.08964,-0.0561 0.179097,-0.112452 0.268371,-0.169067 0.08927,-0.05661 0.178364,-0.113488 0.267269,-0.170619 0.0889,-0.05713 0.177626,-0.114519 0.26616,-0.172164 0.08854,-0.05764 0.176884,-0.115546 0.265046,-0.173702 0.08816,-0.05816 0.176138,-0.116568 0.263925,-0.175235 0.08779,-0.05867 0.175387,-0.117586 0.262797,-0.17676 0.08741,-0.05917 0.174632,-0.1186 0.261663,-0.178279 0.08703,-0.05968 0.173872,-0.11961 0.260522,-0.179792 0.08665,-0.06018 0.173109,-0.120615 0.259375,-0.181299 0.08627,-0.06068 0.172341,-0.121616 0.258222,-0.182798 0.08588,-0.06118 0.171568,-0.122613 0.257061,-0.184292 0.08549,-0.06168 0.170792,-0.123606 0.255895,-0.18578 0.0851,-0.06217 0.170011,-0.124594 0.254722,-0.18726 0.08471,-0.06267 0.169225,-0.125578 0.253542,-0.188735 0.08432,-0.06316 0.168436,-0.126558 0.252356,-0.190202 0.08392,-0.06364 0.167642,-0.127534 0.251164,-0.191665 0.08352,-0.06413 0.166844,-0.128504 0.249965,-0.193119 0.08312,-0.06462 0.166041,-0.129471 0.248759,-0.194568 0.08272,-0.0651 0.165235,-0.130434 0.247548,-0.196011 0.08231,-0.06558 0.164423,-0.131392 0.246329,-0.197446 0.08191,-0.06605 0.163608,-0.132346 0.245104,-0.198876 0.0815,-0.06653 0.162788,-0.133296 0.243873,-0.200299 0.08109,-0.067 0.161964,-0.134242 0.242635,-0.201716 0.08067,-0.06747 0.161136,-0.135183 0.241391,-0.203126 0.08026,-0.06794 0.160303,-0.13612 0.24014,-0.20453 0.07984,-0.06841 0.159466,-0.137053 0.238883,-0.205927 0.07942,-0.06888 0.158624,-0.137981 0.237619,-0.207319 0.07899,-0.06934 0.157778,-0.138905 0.236349,-0.208703 0.07857,-0.0698 0.156928,-0.139825 0.235072,-0.210081 0.07814,-0.07026 0.156074,-0.140741 0.233789,-0.211454 0.07771,-0.07071 0.155215,-0.141652 0.232499,-0.212818 0.07728,-0.07117 0.154352,-0.14256 0.231203,-0.214178 0.07685,-0.07162 0.153485,-0.143462 0.229901,-0.215531 0.07642,-0.07207 0.152613,-0.14436 0.228591,-0.216876 0.07598,-0.07252 0.151737,-0.145255 0.227276,-0.218216 0.07554,-0.07296 0.150857,-0.146145 0.225954,-0.21955 0.0751,-0.07341 0.149972,-0.147031 0.224625,-0.220877 0.07465,-0.07385 0.149083,-0.147912 0.22329,-0.222197 0.07421,-0.07428 0.14819,-0.14879 0.221949,-0.223512 0.07376,-0.07472 0.147292,-0.149662 0.220601,-0.224819 0.07331,-0.07516 0.14639,-0.150531 0.219246,-0.22612 0.07286,-0.07559 0.145484,-0.151396 0.217885,-0.227416 0.0724,-0.07602 0.144574,-0.152255 0.216518,-0.228704 0.07194,-0.07645 0.143659,-0.153111 0.215144,-0.229986 0.07149,-0.07687 0.14274,-0.153963 0.213764,-0.231262 0.07102,-0.0773 0.141816,-0.15481 0.212377,-0.232531 0.07056,-0.07772 0.140889,-0.155653 0.210983,-0.233794 0.0701,-0.07814 0.139957,-0.156492 0.209584,-0.235051 0.06963,-0.07856 0.13902,-0.157326 0.208178,-0.2363 0.06916,-0.07897 0.138079,-0.158156 0.206764,-0.237544 0.06869,-0.07939 0.137135,-0.158983 0.205346,-0.238782 0.06821,-0.0798 0.136185,-0.159804 0.203919,-0.240012 0.06773,-0.08021 0.135232,-0.160621 0.202488,-0.241237 0.06726,-0.08062 0.134273,-0.161434 0.201049,-0.242455 0.06678,-0.08102 0.133311,-0.162243 0.199604,-0.243666 0.06629,-0.08142 0.132344,-0.163048 0.198152,-0.244872 0.06581,-0.08182 0.131373,-0.163848 0.196694,-0.24607 0.06532,-0.08222 0.130397,-0.164644 0.195229,-0.247263 0.06483,-0.08262 0.129418,-0.165436 0.193758,-0.248449 0.06434,-0.08301 0.128434,-0.166223 0.192281,-0.249628 0.06385,-0.0834 0.127446,-0.167006 0.190797,-0.250802 0.06335,-0.08379 0.126453,-0.167785 0.189306,-0.251968 0.06285,-0.08418 0.125456,-0.16856 0.187809,-0.253128 0.06235,-0.08457 0.124455,-0.16933 0.186306,-0.254283 0.06185,-0.08495 0.123449,-0.170096 0.184795,-0.25543 0.06135,-0.08533 0.12244,-0.170858 0.18328,-0.256571 0.06084,-0.08571 0.121425,-0.171616 0.181756,-0.257706 0.06033,-0.08609 0.120407,-0.172369 0.180227,-0.258834 0.05982,-0.08647 0.119384,-0.173118 0.178691,-0.259956 0.05931,-0.08684 0.118357,-0.173863 0.177149,-0.261072 0.05879,-0.08721 0.117326,-0.174602 0.1756,-0.26218 0.05827,-0.08758 0.11629,-0.175339 0.174045,-0.263283 0.05776,-0.08794 0.115249,-0.176071 0.172483,-0.26438 0.05723,-0.08831 0.114205,-0.176798 0.170914,-0.265469 0.05671,-0.08867 0.113157,-0.177522 0.16934,-0.266553 0.05618,-0.08903 0.112104,-0.178241 0.167759,-0.26763 0.05566,-0.08939 0.111046,-0.178955 0.166171,-0.2687 0.05512,-0.08974 0.109984,-0.179666 0.164577,-0.269764 0.05459,-0.0901 0.108918,-0.180373 0.162976,-0.270823 0.05406,-0.09045 0.107848,-0.181074 0.161369,-0.271874 0.05352,-0.0908 0.106773,-0.181772 0.159755,-0.272918 0.05298,-0.09115 0.105695,-0.182466 0.158136,-0.273958 0.05244,-0.09149 0.104611,-0.183154 0.156508,-0.274989 0.0519,-0.09183 0.103524,-0.18384 0.154876,-0.276015 0.05135,-0.09217 0.102431,-0.184521 0.153236,-0.277035 0.05081,-0.09251 0.101335,-0.185196 0.15159,-0.278047 0.05026,-0.09285 0.100235,-0.185869 0.149938,-0.279054 0.0497,-0.09319 0.09913,-0.186537 0.148279,-0.280054 0.04915,-0.09352 0.09802,-0.1872 0.146613,-0.281048 0.04859,-0.09385 0.09691,-0.187859 0.144941,-0.282035 0.04803,-0.09418 0.09579,-0.188514 0.143263,-0.283016 0.04747,-0.0945 0.09467,-0.189165 0.141578,-0.28399 0.04691,-0.09483 0.09354,-0.189812 0.139887,-0.284958 0.04635,-0.09515 0.09241,-0.190454 0.138188,-0.285921 0.04578,-0.09547 0.09128,-0.191091 0.136485,-0.286875 0.04521,-0.09578 0.09014,-0.191725 0.134774,-0.287824 0.04464,-0.0961 0.08899,-0.192355 0.133056,-0.288767 0.04406,-0.09641 0.08784,-0.192979 0.131333,-0.289702 0.04349,-0.09672 0.08669,-0.193601 0.129602,-0.290632 0.04291,-0.09703 0.08553,-0.194218 0.127866,-0.291556 0.04233,-0.09734 0.08437,-0.194829 0.126122,-0.292472 0.04175,-0.09764 0.08321,-0.195437 0.124373,-0.293383 0.04116,-0.09794 0.08204,-0.196041 0.122616,-0.294286 0.04058,-0.09825 0.08086,-0.196641 0.120854,-0.295184 0.03999,-0.09854 0.07969,-0.197236 0.119085,-0.296076 0.0394,-0.09884 0.0785,-0.197826 0.11731,-0.29696 0.03881,-0.09913 0.07731,-0.198413 0.115527,-0.297838 0.03821,-0.09942 0.07612,-0.198995 0.113738,-0.29871 0.03761,-0.09971 0.07493,-0.199574 0.111944,-0.299576 0.03701,-0.100002 0.07373,-0.200147 0.110142,-0.300435 0.03641,-0.100287 0.07252,-0.200717 0.108334,-0.301287 0.03581,-0.100571 0.07132,-0.201283 0.10652,-0.302134 0.0352,-0.100852 0.0701,-0.201843 0.104698,-0.302974 0.0346,-0.10113 0.06889,-0.2024 0.102872,-0.303807 0.03399,-0.101407 0.06766,-0.202952 0.101037,-0.304634 0.03337,-0.101682 0.06644,-0.203501 0.0992,-0.305455 0.03276,-0.101955 0.06521,-0.204045 0.09735,-0.306269 0.03214,-0.102225 0.06397,-0.204584 0.0955,-0.307077 0.03152,-0.102493 0.06274,-0.20512 0.09364,-0.307879 0.0309,-0.102759 0.06149,-0.20565 0.09177,-0.308673 0.03028,-0.103023 0.06025,-0.206177 0.0899,-0.309462 0.02965,-0.103285 0.05899,-0.2067 0.08802,-0.310244 0.02902,-0.103545 0.05774,-0.207218 0.08613,-0.31102 0.0284,-0.103802 0.05648,-0.207732 0.08424,-0.31179 0.02776,-0.104057 0.05521,-0.208241 0.08234,-0.312552 0.02713,-0.104311 0.05394,-0.208747 0.08044,-0.313309 0.02649,-0.104562 0.05267,-0.209248 0.07852,-0.314059 0.02585,-0.10481 0.05139,-0.209745 0.07661,-0.314803 0.02522,-0.105057 0.05011,-0.210237 0.07468,-0.31554 0.02457,-0.105302 0.04882,-0.210726 0.07275,-0.316271 0.02393,-0.105544 0.04753,-0.21121 0.07081,-0.316995 0.02328,-0.105785 0.04624,-0.21169 0.06887,-0.317714 0.02263,-0.106023 0.04494,-0.212165 0.06692,-0.318425 0.02198,-0.10626 0.04363,-0.212637 0.06496,-0.319131 0.02133,-0.106493 0.04233,-0.213103 0.063,-0.319829 0.02067,-0.106726 0.04102,-0.213567 0.06103,-0.320522 0.02001,-0.106955 0.0397,-0.214025 0.05905,-0.321208 0.01935,-0.107183 0.03838,-0.214479 0.05707,-0.321888 0.01869,-0.107408 0.03705,-0.214929 0.05508,-0.32256 0.01803,-0.107632 0.03572,-0.215375 0.05308,-0.323228 0.01736,-0.107853 0.03439,-0.215816 0.05108,-0.323888 0.01669,-0.108072 0.03305,-0.216253 0.04907,-0.324542 0.01602,-0.108289 0.03171,-0.216686 0.04706,-0.32519 0.01535,-0.108504 0.03036,-0.217114 0.04503,-0.325831 0.01467,-0.108716 0.02901,-0.217538 0.04301,-0.326465 0.014,-0.108927 0.02765,-0.217959 0.04097,-0.327094 0.01332,-0.109136 0.0263,-0.218375 0.03893,-0.327716 0.01264,-0.109342 0.02493,-0.218786 0.03688,-0.328332 0.01195,-0.109546 0.02356,-0.219193 0.03483,-0.32894 0.01127,-0.109748 0.02219,-0.219596 0.03277,-0.329544 0.01058,-0.109947 0.02081,-0.219994 0.0307,-0.33014 0.0099,-0.110145 0.01943,-0.220388 0.02863,-0.330729 0.0092,-0.110341 0.01805,-0.220779 0.02655,-0.331313 0.0085,-0.110535 0.01666,-0.221165 0.02446,-0.331891 0.0078,-0.110725 0.01526,-0.221546 0.02237,-0.33246 0.0071,-0.110915 0.01386,-0.221924 0.02027,-0.333026 0.0064,-0.111101 0.01246,-0.222296 0.01816,-0.333583 0.0057,-0.111286 0.01105,-0.222665 0.01605,-0.334134 0.005,-0.111469 0.0096,-0.22303 0.01393,-0.33468 0.0043,-0.11165 0.0082,-0.223389 0.01181,-0.335218 0.0036,-0.111828 0.0068,-0.223745 0.0097,-0.33575 0.0029,-0.112005 0.0054,-0.224097 0.0075,-0.336276 0.0022,-0.112179 0.004,-0.224445 0.0054,-0.336796 0.0014,-0.112351 0.0025,-0.224788 0.0032,-0.337309 7.2e-4,-0.112521 0.0011,-0.225126 0.0011,-0.337815 0,-0.08329 -1.97e-4,-0.16653 -5.91e-4,-0.249726 -3.94e-4,-0.0832 -9.85e-4,-0.166346 -0.0018,-0.249449 -7.87e-4,-0.0831 -0.0018,-0.16616 -0.0029,-0.249169 -0.0012,-0.08301 -0.0026,-0.165973 -0.0041,-0.248888 -0.0016,-0.08291 -0.0033,-0.165783 -0.0053,-0.248603 -0.002,-0.08282 -0.0041,-0.165592 -0.0065,-0.248316 -0.0024,-0.08272 -0.0049,-0.1654 -0.0076,-0.248027 -0.0027,-0.08263 -0.0057,-0.165205 -0.0088,-0.247734 -0.0031,-0.08253 -0.0064,-0.165009 -0.01,-0.247439 -0.0035,-0.08243 -0.0072,-0.164811 -0.01112,-0.247142 -0.0039,-0.08233 -0.008,-0.164611 -0.01228,-0.246842 -0.0043,-0.08223 -0.0088,-0.16441 -0.01343,-0.246539 -0.0047,-0.08213 -0.0095,-0.164207 -0.01458,-0.246234 -0.0051,-0.08203 -0.0103,-0.164003 -0.01573,-0.245927 -0.0054,-0.08192 -0.01106,-0.163796 -0.01688,-0.245616 -0.0058,-0.08182 -0.01183,-0.163588 -0.01802,-0.245303 -0.0062,-0.08171 -0.01259,-0.163378 -0.01917,-0.244988 -0.0066,-0.08161 -0.01335,-0.163166 -0.0203,-0.244669 -0.007,-0.0815 -0.01411,-0.162953 -0.02144,-0.244349 -0.0073,-0.0814 -0.01486,-0.162738 -0.02257,-0.244026 -0.0077,-0.08129 -0.01561,-0.162521 -0.0237,-0.2437 -0.0081,-0.08118 -0.01637,-0.162303 -0.02483,-0.243372 -0.0085,-0.08107 -0.01712,-0.162082 -0.02596,-0.24304 -0.0088,-0.08096 -0.01787,-0.161861 -0.02708,-0.242708 -0.0092,-0.08085 -0.01861,-0.161637 -0.0282,-0.242371 -0.0096,-0.08073 -0.01936,-0.161411 -0.02932,-0.242032 -0.01,-0.08062 -0.0201,-0.161185 -0.03043,-0.241691 -0.01033,-0.08051 -0.02084,-0.160956 -0.03154,-0.241347 -0.0107,-0.08039 -0.02159,-0.160725 -0.03266,-0.241001 -0.01107,-0.08028 -0.02232,-0.160493 -0.03376,-0.240652 -0.01144,-0.08016 -0.02306,-0.160259 -0.03487,-0.2403 -0.01181,-0.08004 -0.0238,-0.160023 -0.03597,-0.239946 -0.01217,-0.07992 -0.02453,-0.159786 -0.03707,-0.239589 -0.01254,-0.0798 -0.02526,-0.159547 -0.03816,-0.23923 -0.0129,-0.07968 -0.02599,-0.159306 -0.03926,-0.238868 -0.01327,-0.07956 -0.02672,-0.159064 -0.04035,-0.238504 -0.01363,-0.07944 -0.02745,-0.158819 -0.04144,-0.238136 -0.01399,-0.07932 -0.02817,-0.158573 -0.04252,-0.237767 -0.01436,-0.07919 -0.02889,-0.158325 -0.04361,-0.237395 -0.01472,-0.07907 -0.02961,-0.158076 -0.04469,-0.237019 -0.01508,-0.07894 -0.03033,-0.157825 -0.04577,-0.236643 -0.01544,-0.07882 -0.03105,-0.157572 -0.04684,-0.236262 -0.01579,-0.07869 -0.03177,-0.157317 -0.04792,-0.23588 -0.01615,-0.07856 -0.03248,-0.157061 -0.04899,-0.235495 -0.01651,-0.07843 -0.03319,-0.156803 -0.05006,-0.235107 -0.01686,-0.0783 -0.0339,-0.156543 -0.05112,-0.234717 -0.01722,-0.07817 -0.03461,-0.156281 -0.05218,-0.234323 -0.01757,-0.07804 -0.03532,-0.156019 -0.05324,-0.233929 -0.01792,-0.07791 -0.03602,-0.155753 -0.0543,-0.23353 -0.01828,-0.07778 -0.03673,-0.155487 -0.05535,-0.23313 -0.01863,-0.07764 -0.03743,-0.155219 -0.05641,-0.232727 -0.01898,-0.07751 -0.03813,-0.154948 -0.05746,-0.23232 -0.01933,-0.07737 -0.03883,-0.154677 -0.0585,-0.231913 -0.01968,-0.07724 -0.03952,-0.154403 -0.05955,-0.231502 -0.02002,-0.0771 -0.04022,-0.154127 -0.06059,-0.231088 -0.02037,-0.07696 -0.04091,-0.153851 -0.06163,-0.230672 -0.02072,-0.07682 -0.0416,-0.153572 -0.06266,-0.230253 -0.02106,-0.07668 -0.04229,-0.153292 -0.0637,-0.229832 -0.0214,-0.07654 -0.04298,-0.15301 -0.06473,-0.229408 -0.02175,-0.0764 -0.04367,-0.152726 -0.06576,-0.228982 -0.02209,-0.07626 -0.04435,-0.152441 -0.06678,-0.228553 -0.02243,-0.07611 -0.04503,-0.152153 -0.0678,-0.228121 -0.02277,-0.07597 -0.04571,-0.151864 -0.06883,-0.227688 -0.02311,-0.07582 -0.04639,-0.151573 -0.06984,-0.22725 -0.02345,-0.07568 -0.04707,-0.151281 -0.07086,-0.226811 -0.02379,-0.07553 -0.04775,-0.150987 -0.07187,-0.22637 -0.02413,-0.07538 -0.04842,-0.15069 -0.07288,-0.225924 -0.02446,-0.07523 -0.04909,-0.150394 -0.07389,-0.225478 -0.0248,-0.07508 -0.04976,-0.150094 -0.07489,-0.225028 -0.02513,-0.07493 -0.05043,-0.149793 -0.0759,-0.224576 -0.02546,-0.07478 -0.0511,-0.149491 -0.07689,-0.224122 -0.0258,-0.07463 -0.05176,-0.149185 -0.07789,-0.223663 -0.02613,-0.07448 -0.05242,-0.14888 -0.07889,-0.223204 -0.02646,-0.07433 -0.05309,-0.148572 -0.07988,-0.222742 -0.02679,-0.07417 -0.05375,-0.148262 -0.08087,-0.222276 -0.02712,-0.07401 -0.05441,-0.147951 -0.08185,-0.221809 -0.02745,-0.07386 -0.05506,-0.147637 -0.08284,-0.221338 -0.02778,-0.0737 -0.05572,-0.147323 -0.08382,-0.220866 -0.0281,-0.07354 -0.05637,-0.147006 -0.0848,-0.22039 -0.02843,-0.07338 -0.05702,-0.146688 -0.08577,-0.219912 -0.02875,-0.07322 -0.05767,-0.146368 -0.08675,-0.219431 -0.02908,-0.07306 -0.05832,-0.146047 -0.08772,-0.218949 -0.0294,-0.0729 -0.05896,-0.145723 -0.08868,-0.218462 -0.02972,-0.07274 -0.05961,-0.145398 -0.08965,-0.217975 -0.03005,-0.07258 -0.06025,-0.145071 -0.09061,-0.217483 -0.03037,-0.07241 -0.06089,-0.144743 -0.09157,-0.21699 -0.03068,-0.07225 -0.06153,-0.144412 -0.09253,-0.216494 -0.031,-0.07208 -0.06217,-0.14408 -0.09349,-0.215995 -0.03132,-0.07192 -0.0628,-0.143747 -0.09444,-0.215494 -0.03164,-0.07175 -0.06343,-0.143411 -0.09539,-0.214991 -0.03195,-0.07158 -0.06407,-0.143073 -0.09634,-0.214483 -0.03227,-0.07141 -0.0647,-0.142735 -0.09728,-0.213975 -0.03258,-0.07124 -0.06532,-0.142395 -0.09822,-0.213464 -0.0329,-0.07107 -0.06595,-0.142052 -0.09916,-0.212949 -0.03321,-0.0709 -0.06658,-0.141708 -0.100098,-0.212433 -0.03352,-0.07072 -0.0672,-0.141362 -0.101032,-0.211913 -0.03383,-0.07055 -0.06782,-0.141015 -0.101963,-0.211391 -0.03414,-0.07038 -0.06844,-0.140666 -0.102892,-0.210868 -0.03445,-0.0702 -0.06906,-0.140314 -0.103818,-0.21034 -0.03476,-0.07002 -0.06967,-0.139962 -0.104742,-0.20981 -0.03507,-0.06985 -0.07029,-0.139608 -0.105662,-0.209278 -0.03537,-0.06967 -0.0709,-0.139252 -0.106581,-0.208744 -0.03568,-0.06949 -0.07151,-0.138894 -0.107496,-0.208206 -0.03598,-0.06931 -0.07212,-0.138534 -0.108409,-0.207666 -0.03629,-0.06913 -0.07273,-0.138174 -0.10932,-0.207124 -0.03659,-0.06895 -0.07333,-0.13781 -0.110227,-0.206579 -0.03689,-0.06877 -0.07394,-0.137445 -0.111133,-0.206031 -0.03719,-0.06858 -0.07454,-0.137079 -0.112034,-0.205481 -0.0375,-0.0684 -0.07514,-0.136711 -0.112935,-0.204928 -0.0378,-0.06822 -0.07574,-0.136341 -0.113832,-0.204373 -0.03809,-0.06803 -0.07634,-0.135969 -0.114727,-0.203814 -0.03839,-0.06785 -0.07693,-0.135597 -0.115619,-0.203254 -0.03869,-0.06766 -0.07752,-0.135222 -0.116508,-0.202691 -0.03898,-0.06747 -0.07812,-0.134845 -0.117395,-0.202126 -0.03928,-0.06728 -0.07871,-0.134466 -0.118279,-0.201557 -0.03957,-0.06709 -0.07929,-0.134086 -0.11916,-0.200986 -0.03987,-0.0669 -0.07988,-0.133704 -0.12004,-0.200413 -0.04016,-0.06671 -0.08046,-0.133321 -0.120916,-0.199837 -0.04045,-0.06652 -0.08105,-0.132935 -0.121789,-0.199258 -0.04074,-0.06632 -0.08163,-0.132548 -0.12266,-0.198677 -0.04103,-0.06613 -0.08221,-0.132159 -0.123529,-0.198093 -0.04132,-0.06593 -0.08279,-0.131769 -0.124395,-0.197507 -0.04161,-0.06574 -0.08336,-0.131377 -0.125257,-0.196918 -0.0419,-0.06554 -0.08394,-0.130983 -0.126118,-0.196326 -0.04218,-0.06534 -0.08451,-0.130587 -0.126976,-0.195732 -0.04247,-0.06514 -0.08508,-0.13019 -0.127832,-0.195136 -0.04275,-0.06495 -0.08565,-0.129791 -0.128684,-0.194536 -0.04304,-0.06475 -0.08621,-0.129391 -0.129534,-0.193935 -0.04332,-0.06454 -0.08678,-0.128988 -0.130381,-0.19333 -0.0436,-0.06434 -0.08734,-0.128584 -0.131227,-0.192723 -0.04388,-0.06414 -0.0879,-0.128178 -0.132068,-0.192114 -0.04416,-0.06394 -0.08847,-0.12777 -0.132908,-0.191502 -0.04444,-0.06373 -0.08902,-0.12736 -0.133745,-0.190886 -0.04472,-0.06353 -0.08958,-0.12695 -0.134579,-0.19027 -0.045,-0.06332 -0.09014,-0.126536 -0.135411,-0.189649 -0.04528,-0.06311 -0.09069,-0.126123 -0.13624,-0.189028 -0.04555,-0.06291 -0.09124,-0.125705 -0.137066,-0.188402 -0.04583,-0.0627 -0.09179,-0.125288 -0.13789,-0.187774 -0.0461,-0.06249 -0.09234,-0.124868 -0.138712,-0.187144 -0.04637,-0.06228 -0.09288,-0.124447 -0.13953,-0.186512 -0.04665,-0.06207 -0.09343,-0.124024 -0.140345,-0.185876 -0.04692,-0.06185 -0.09397,-0.123599 -0.14116,-0.185238 -0.04719,-0.06164 -0.09451,-0.123172 -0.141969,-0.184598 -0.04746,-0.06142 -0.09505,-0.122744 -0.142778,-0.183955 -0.04773,-0.06121 -0.09559,-0.122313 -0.143584,-0.183308 -0.048,-0.061 -0.09612,-0.121883 -0.144386,-0.182661 -0.04826,-0.06078 -0.09666,-0.121449 -0.145186,-0.18201 -0.04853,-0.06056 -0.09719,-0.121013 -0.145984,-0.181356 -0.04879,-0.06034 -0.09772,-0.120577 -0.146779,-0.180701 -0.04906,-0.06012 -0.09825,-0.120138 -0.147571,-0.180042 -0.04932,-0.0599 -0.09878,-0.119697 -0.148361,-0.17938 -0.04958,-0.05968 -0.0993,-0.119256 -0.149148,-0.178717 -0.04985,-0.05946 -0.09982,-0.118812 -0.149932,-0.178051 -0.05011,-0.05924 -0.100346,-0.118366 -0.150714,-0.177382 -0.05037,-0.05902 -0.100866,-0.117919 -0.151494,-0.17671 -0.05063,-0.05879 -0.101384,-0.11747 -0.15227,-0.176036 -0.05089,-0.05857 -0.1019,-0.11702 -0.153044,-0.17536 -0.05114,-0.05834 -0.102415,-0.116567 -0.153815,-0.17468 -0.0514,-0.05811 -0.102928,-0.116113 -0.154584,-0.173999 -0.05166,-0.05789 -0.103439,-0.115657 -0.15535,-0.173314 -0.05191,-0.05766 -0.103949,-0.1152 -0.156114,-0.172627 -0.05217,-0.05743 -0.104456,-0.114741 -0.156874,-0.171938 -0.05242,-0.0572 -0.104963,-0.11428 -0.157633,-0.171246 -0.05267,-0.05697 -0.105466,-0.113816 -0.158388,-0.170551 -0.05292,-0.05673 -0.105969,-0.113352 -0.159141,-0.169853 -0.05317,-0.0565 -0.10647,-0.112887 -0.159892,-0.169154 -0.05342,-0.05627 -0.106968,-0.112419 -0.160639,-0.168452 -0.05367,-0.05603 -0.107466,-0.111948 -0.161385,-0.167746 -0.05392,-0.0558 -0.107961,-0.111477 -0.162127,-0.167039 -0.05416,-0.05556 -0.108454,-0.111004 -0.162866,-0.166328 -0.05441,-0.05532 -0.108947,-0.11053 -0.163604,-0.165616 -0.05466,-0.05509 -0.109437,-0.110054 -0.164339,-0.164901 -0.0549,-0.05485 -0.109925,-0.109575 -0.16507,-0.164183 -0.05515,-0.05461 -0.110412,-0.109095 -0.1658,-0.163462 -0.05539,-0.05437 -0.110897,-0.108613 -0.166527,-0.162739 -0.05563,-0.05413 -0.11138,-0.10813 -0.167251,-0.162013 -0.05587,-0.05388 -0.111861,-0.107646 -0.167972,-0.161286 -0.05611,-0.05364 -0.112341,-0.107158 -0.168691,-0.160554 -0.05635,-0.0534 -0.112819,-0.1066699 -0.169408,-0.1598211 C 83.495709,9.8467148 83.439002,9.7936863 83.382176,9.7407808 83.325351,9.6878754 83.268406,9.6350931 83.211344,9.5824343 83.154282,9.5297755 83.097102,9.4772402 83.039804,9.4248289 82.982506,9.3724175 82.92509,9.3201302 82.867558,9.2679672 82.810025,9.2158042 82.752375,9.1637655 82.694608,9.1118517 82.636842,9.0599379 82.578958,9.0081489 82.520959,8.9564852 82.462959,8.9048214 82.404843,8.8532829 82.346611,8.80187 82.288379,8.7504572 82.230031,8.69917 82.171568,8.6480089 82.113105,8.5968478 82.054526,8.5458129 81.995832,8.4949044 81.937139,8.443996 81.87833,8.3932141 81.819407,8.3425591 81.760483,8.2919041 81.701446,8.2413761 81.642294,8.1909755 81.583142,8.1405749 81.523876,8.0903017 81.464496,8.0401563 c -0.05938,-0.050145 -0.118873,-0.100163 -0.17848,-0.1500523 -0.05961,-0.049889 -0.119327,-0.09965 -0.179159,-0.1492828 -0.05983,-0.049632 -0.119779,-0.099136 -0.179837,-0.1485107 -0.06006,-0.049375 -0.120228,-0.09862 -0.18051,-0.1477361 -0.06028,-0.049116 -0.120677,-0.098102 -0.181183,-0.1469588 -0.0605,-0.048856 -0.121123,-0.097583 -0.181851,-0.146179 -0.06073,-0.048596 -0.121568,-0.097062 -0.182518,-0.1453966 -0.06095,-0.048335 -0.12201,-0.096539 -0.183181,-0.1446116 -0.06117,-0.048073 -0.122452,-0.096014 -0.183843,-0.143824 -0.06139,-0.04781 -0.122891,-0.095488 -0.184501,-0.143034 -0.06161,-0.047546 -0.123329,-0.09496 -0.185157,-0.1422412 -0.06183,-0.047281 -0.123765,-0.09443 -0.18581,-0.1414458 -0.06205,-0.047016 -0.1242,-0.093899 -0.186461,-0.1406481 -0.06226,-0.046749 -0.124632,-0.093365 -0.18711,-0.1398475 -0.06248,-0.046482 -0.125062,-0.09283 -0.187754,-0.1390446 -0.06269,-0.046214 -0.125491,-0.092294 -0.188397,-0.1382389 -0.06291,-0.045945 -0.125919,-0.091755 -0.189038,-0.1374307 -0.06312,-0.045675 -0.126344,-0.091215 -0.189675,-0.1366199 -0.06333,-0.045405 -0.126768,-0.090674 -0.19031,-0.1358066 -0.06354,-0.045133 -0.12719,-0.09013 -0.190942,-0.1349907 -0.06375,-0.044861 -0.12761,-0.089585 -0.191572,-0.1341721 -0.06396,-0.044587 -0.128029,-0.089038 -0.192199,-0.133351 -0.06417,-0.044313 -0.128445,-0.088489 -0.192824,-0.1325274 -0.06438,-0.044038 -0.12886,-0.087939 -0.193445,-0.1317011 -0.06458,-0.043762 -0.129273,-0.087387 -0.194064,-0.1308723 -0.06479,-0.043486 -0.129685,-0.086833 -0.194681,-0.1300408 -0.065,-0.043208 -0.130095,-0.086277 -0.195295,-0.1292069 -0.0652,-0.04293 -0.130503,-0.08572 -0.195907,-0.1283703 -0.0654,-0.04265 -0.130908,-0.085161 -0.196515,-0.1275311 -0.06561,-0.04237 -0.131313,-0.0846 -0.197121,-0.1266894 -0.06581,-0.042089 -0.131716,-0.084038 -0.197724,-0.1258451 -0.06601,-0.041807 -0.132117,-0.083474 -0.198326,-0.1249982 -0.06621,-0.041525 -0.132516,-0.082908 -0.198923,-0.1241488 -0.06641,-0.041241 -0.132914,-0.08234 -0.199519,-0.1232967 -0.06661,-0.040957 -0.13331,-0.081771 -0.200112,-0.122442 -0.0668,-0.040671 -0.133704,-0.0812 -0.200703,-0.1215849 -0.067,-0.040385 -0.134095,-0.080627 -0.20129,-0.120725 -0.06719,-0.040098 -0.134486,-0.080052 -0.201875,-0.1198627 -0.06739,-0.03981 -0.134875,-0.079476 -0.202458,-0.1189977 C 73.956644,2.7423714 73.888964,2.7029945 73.821189,2.6637627 73.753413,2.6245308 73.685542,2.585444 73.617574,2.5465026 73.549607,2.5075612 73.481543,2.4687652 73.413385,2.4301152 73.345226,2.3914651 73.276972,2.3529609 73.208624,2.314603 73.140275,2.2762451 73.071831,2.2380336 73.003293,2.1999687 72.934755,2.1619039 72.866122,2.1239858 72.797396,2.0862149 72.728669,2.0484439 72.659848,2.0108202 72.590934,1.973344 72.52202,1.9358678 72.453012,1.8985393 72.383911,1.8613587 72.31481,1.8241782 72.245616,1.7871457 72.176329,1.7502616 72.107043,1.7133776 72.037663,1.676642 71.968191,1.6400553 71.89872,1.6034686 71.829156,1.5670307 71.7595,1.5307422 71.689844,1.4944537 71.620096,1.4583146 71.550257,1.4223251 71.480418,1.3863357 71.410487,1.350496 71.340466,1.3148065 71.270445,1.279117 71.200332,1.2435776 71.130129,1.2081889 71.059926,1.1728002 70.989633,1.137562 70.91925,1.102475 c -0.07038,-0.035087 -0.140858,-0.070023 -0.211421,-0.10480775 -0.07056,-0.0347846 -0.141216,-0.0694177 -0.211958,-0.10389891 -0.07074,-0.0344812 -0.141573,-0.0688105 -0.212493,-0.10298752 -0.07092,-0.034177 -0.141929,-0.0682017 -0.213027,-0.10207356 -0.0711,-0.0338719 -0.142282,-0.0675911 -0.213556,-0.10115702 -0.07127,-0.033566 -0.142634,-0.0669787 -0.214083,-0.10023789 -0.07145,-0.0332592 -0.142985,-0.0663647 -0.214608,-0.0993162 -0.07162,-0.0329515 -0.143334,-0.0657489 -0.215131,-0.0983919 -0.0718,-0.032643 -0.14368,-0.0651315 -0.215649,-0.097465 C 68.925354,0.15980561 68.853298,0.12762693 68.781157,0.09560359 68.709016,0.06358024 68.636788,0.03171224 68.564476,0 Z"
     id="path4"
     style="fill:#000000;fill-opacity:1;stroke:none;stroke-opacity:1" />
</svg>
