<?xml version="1.0" encoding="UTF-8" standalone="no"?>
<svg
   xmlns:dc="http://purl.org/dc/elements/1.1/"
   xmlns:cc="http://creativecommons.org/ns#"
   xmlns:rdf="http://www.w3.org/1999/02/22-rdf-syntax-ns#"
   xmlns:svg="http://www.w3.org/2000/svg"
   xmlns="http://www.w3.org/2000/svg"
   height="90"
   width="100"
   version="1.1"
   id="svg2"
   enable-background="new 0 0 64 64"
   viewBox="0 0 100 90">
  <metadata
     id="metadata26">
    <rdf:RDF>
      <cc:Work
         rdf:about="">
        <dc:format>image/svg+xml</dc:format>
        <dc:type
           rdf:resource="http://purl.org/dc/dcmitype/StillImage" />
        <dc:title></dc:title>
      </cc:Work>
    </rdf:RDF>
  </metadata>
  <defs
     id="defs24" />
  <path
     style="fill:#000000;fill-opacity:1;stroke:none;stroke-opacity:1"
     id="path4"
     d="m 47.243333,2.603333 -8.001666,8.198334 c 2.845,0.616666 5.495,1.741666 7.861666,3.27 l 0.14,-11.468334" />
  <path
     style="fill:#000000;fill-opacity:1;stroke:none;stroke-opacity:1"
     id="path6"
     d="M 10.803333,39.24 2.6,47.241667 l 11.471667,-0.14 c -1.53,-2.368334 -2.655,-5.018334 -3.268334,-7.861667" />
  <path
     style="fill:#000000;fill-opacity:1;stroke:none;stroke-opacity:1"
     id="path8"
     d="M 14.071667,21.23 2.6,21.09 10.803333,29.093333 C 11.42,26.248333 12.541667,23.6 14.071667,21.23" />
  <path
     style="fill:#000000;fill-opacity:1;stroke:none;stroke-opacity:1"
     id="path10"
     d="m 29.095,10.8 -8.001667,-8.2 0.14,11.468333 C 23.603333,12.54 26.253333,11.416667 29.095,10.8" />
  <path
     style="fill:#000000;fill-opacity:1;stroke:none;stroke-opacity:1"
     id="path12"
     d="m 53.811667,20.545 4.515,-10.536667 -10.533334,4.515 C 50.14,16.155 52.181667,18.195 53.811667,20.545" />
  <path
     style="fill:#000000;fill-opacity:1;stroke:none;stroke-opacity:1"
     id="path14"
     d="m 10.25,34.166667 c 0,-1.455 0.153333,-2.875 0.4,-4.261667 L 0,34.165 10.651667,38.426667 C 10.403333,37.041667 10.25,35.623333 10.25,34.166667" />
  <path
     style="fill:#000000;fill-opacity:1;stroke:none;stroke-opacity:1"
     id="path16"
     d="M 20.546667,14.521667 10.01,10.006667 14.525,20.543333 c 1.63,-2.348333 3.671667,-4.39 6.021667,-6.021666" />
  <path
     style="fill:#000000;fill-opacity:1;stroke:none;stroke-opacity:1"
     id="path18"
     d="M 38.428333,10.651667 34.166667,0 29.908333,10.651667 c 1.383334,-0.248334 2.803334,-0.4 4.258334,-0.4 1.458333,-0.0017 2.878333,0.15 4.261666,0.4" />
  <path
     style="fill:#000000;fill-opacity:1;stroke:none;stroke-opacity:1"
     id="path20"
     d="m 89.211667,49.006667 c -0.01005,-0.0059 -0.02011,-0.01176 -0.03016,-0.01764 -0.01006,-0.0059 -0.02011,-0.01174 -0.03017,-0.0176 -0.01006,-0.0059 -0.02012,-0.01171 -0.03018,-0.01756 -0.01006,-0.0058 -0.02013,-0.01168 -0.0302,-0.01751 -0.01007,-0.0058 -0.02014,-0.01165 -0.03021,-0.01747 -0.01007,-0.0058 -0.02014,-0.01162 -0.03022,-0.01743 -0.01008,-0.0058 -0.02015,-0.0116 -0.03023,-0.01738 -0.01008,-0.0058 -0.02016,-0.01157 -0.03024,-0.01734 -0.01008,-0.0058 -0.02017,-0.01154 -0.03026,-0.01729 -0.01009,-0.0058 -0.02018,-0.0115 -0.03028,-0.01724 -0.0101,-0.0057 -0.02019,-0.01147 -0.03029,-0.0172 -0.0101,-0.0057 -0.0202,-0.01144 -0.03031,-0.01715 -0.0101,-0.0057 -0.02021,-0.01141 -0.03032,-0.0171 -0.01011,-0.0057 -0.02023,-0.01137 -0.03034,-0.01704 -0.01012,-0.0057 -0.02024,-0.01134 -0.03036,-0.01699 -0.01012,-0.0057 -0.02025,-0.0113 -0.03038,-0.01694 -0.01013,-0.0056 -0.02026,-0.01127 -0.0304,-0.01689 -0.01014,-0.0056 -0.02028,-0.01123 -0.03042,-0.01683 -0.01014,-0.0056 -0.02029,-0.0112 -0.03044,-0.01678 -0.01015,-0.0056 -0.02031,-0.01116 -0.03046,-0.01672 -0.01016,-0.0056 -0.02032,-0.01112 -0.03048,-0.01666 -0.01017,-0.0055 -0.02033,-0.01108 -0.03051,-0.0166 -0.01017,-0.0055 -0.02035,-0.01104 -0.03053,-0.01655 -0.01018,-0.0055 -0.02037,-0.011 -0.03056,-0.01648 -0.01019,-0.0055 -0.02038,-0.01096 -0.03058,-0.01642 -0.0102,-0.0055 -0.0204,-0.01092 -0.03061,-0.01636 -0.0102,-0.0054 -0.02041,-0.01088 -0.03063,-0.0163 -0.01021,-0.0054 -0.02043,-0.01083 -0.03065,-0.01623 -0.01022,-0.0054 -0.02045,-0.01079 -0.03068,-0.01617 -0.01023,-0.0054 -0.02047,-0.01075 -0.03071,-0.01611 -0.01024,-0.0054 -0.02049,-0.01071 -0.03074,-0.01604 -0.01025,-0.0053 -0.0205,-0.01066 -0.03076,-0.01597 l 0,-0.0049 0,-0.0049 0,-0.0049 0,-0.0049 0,-0.0049 0,-0.0049 0,-0.0049 0,-0.0049 0,-0.0049 0,-0.0049 0,-0.0049 0,-0.0049 0,-0.0049 0,-0.0049 0,-0.0049 0,-0.0049 0,-0.0049 0,-0.0049 0,-0.0049 0,-0.0049 0,-0.0049 0,-0.0049 0,-0.0049 0,-0.0049 0,-0.0049 0,-0.0049 0,-0.0049 0,-0.0049 0,-0.0049 0,-0.0049 0,-0.0049 0,-0.0049 c 0,-0.430312 -0.01072,-0.858122 -0.03189,-1.283164 -0.02117,-0.425042 -0.05281,-0.847317 -0.09464,-1.266562 -0.04183,-0.419244 -0.09386,-0.835458 -0.155835,-1.248377 -0.06197,-0.412919 -0.133887,-0.822543 -0.215485,-1.228609 -0.0816,-0.406066 -0.172878,-0.808574 -0.273584,-1.20726 -0.100706,-0.398685 -0.210837,-0.793549 -0.330134,-1.184326 -0.119298,-0.390778 -0.247762,-0.77747 -0.385135,-1.159812 -0.137372,-0.382342 -0.283653,-0.760334 -0.438585,-1.133713 -0.154931,-0.373379 -0.318513,-0.742144 -0.490487,-1.106033 -0.171974,-0.363888 -0.35234,-0.722899 -0.54084,-1.076769 -0.1885,-0.35387 -0.385134,-0.702599 -0.589644,-1.045923 -0.204509,-0.343324 -0.416894,-0.681244 -0.636897,-1.013495 -0.220002,-0.332251 -0.447622,-0.658833 -0.682601,-0.979484 -0.234979,-0.32065 -0.477317,-0.635367 -0.726756,-0.943889 -0.249439,-0.308522 -0.505979,-0.610847 -0.769362,-0.906713 -0.263383,-0.295866 -0.533608,-0.585272 -0.810418,-0.867954 -0.27681,-0.282682 -0.560205,-0.558641 -0.849925,-0.827612 -0.289721,-0.268972 -0.585768,-0.530956 -0.887883,-0.785688 -0.302115,-0.254733 -0.610297,-0.502215 -0.92429,-0.742181 -0.313993,-0.239967 -0.633795,-0.472418 -0.959149,-0.697091 -0.325354,-0.224673 -0.65626,-0.441567 -0.992459,-0.650419 -0.336199,-0.208851 -0.677691,-0.40966 -1.024218,-0.602163 -0.346527,-0.192503 -0.69809,-0.3767 -1.054429,-0.552326 -0.356339,-0.175627 -0.717455,-0.342683 -1.08309,-0.500906 -0.365634,-0.158222 -0.735787,-0.307611 -1.110201,-0.447902 -0.374413,-0.140291 -0.753087,-0.271484 -1.135763,-0.393315 -0.382677,-0.121832 -0.769355,-0.234302 -1.159778,-0.337147 -0.390422,-0.102845 -0.784589,-0.196065 -1.182241,-0.279396 -0.397652,-0.08333 -0.798791,-0.156773 -1.203156,-0.220063 -0.404366,-0.06329 -0.811959,-0.116426 -1.222521,-0.159146 -0.410563,-0.04272 -0.824094,-0.07502 -1.240337,-0.09665 -0.416242,-0.02162 -0.835196,-0.03257 -1.256602,-0.03257 -0.0037,0 -0.0074,1e-5 -0.01109,2.9e-5 -0.0037,1.9e-5 -0.0074,4.7e-5 -0.01109,8.4e-5 -0.0037,3.7e-5 -0.0074,8.2e-5 -0.0111,1.36e-4 -0.0037,5.4e-5 -0.0074,1.16e-4 -0.0111,1.85e-4 -0.0037,6.9e-5 -0.0074,1.47e-4 -0.01109,2.31e-4 -0.0037,8.5e-5 -0.0074,1.77e-4 -0.01109,2.77e-4 -0.0037,10e-5 -0.0074,2.08e-4 -0.0111,3.23e-4 -0.0037,1.16e-4 -0.0074,2.39e-4 -0.0111,3.69e-4 -0.0037,1.3e-4 -0.0074,2.64e-4 -0.01109,4.01e-4 -0.0037,1.37e-4 -0.0074,2.77e-4 -0.01109,4.2e-4 -0.0037,1.42e-4 -0.0074,2.87e-4 -0.01109,4.34e-4 -0.0037,1.46e-4 -0.0074,2.95e-4 -0.01109,4.45e-4 -0.0037,1.5e-4 -0.0074,3.06e-4 -0.01109,4.66e-4 -0.0037,1.59e-4 -0.0074,3.22e-4 -0.0111,4.84e-4 -0.0037,1.63e-4 -0.0074,3.25e-4 -0.0111,4.84e-4 -0.0037,1.6e-4 -0.0074,3.16e-4 -0.01109,4.66e-4 -0.0037,1.5e-4 -0.0074,3.06e-4 -0.01109,4.67e-4 -0.0037,1.61e-4 -0.0074,3.27e-4 -0.01109,4.96e-4 -0.0037,1.68e-4 -0.0074,3.4e-4 -0.01109,5.14e-4 -0.0037,1.73e-4 -0.0074,3.48e-4 -0.0111,5.23e-4 -0.0037,1.75e-4 -0.0074,3.44e-4 -0.01109,5.08e-4 -0.0037,1.64e-4 -0.0074,3.23e-4 -0.01109,4.79e-4 -0.0037,1.57e-4 -0.0074,3.1e-4 -0.01109,4.61e-4 -0.0037,1.52e-4 -0.0074,3.02e-4 -0.01109,4.52e-4 -0.0037,1.5e-4 -0.0074,2.94e-4 -0.01109,4.31e-4 -0.0037,1.38e-4 -0.0074,2.69e-4 -0.01109,3.94e-4 -0.0037,1.25e-4 -0.0074,2.44e-4 -0.01109,3.56e-4 -0.0037,1.13e-4 -0.0074,2.19e-4 -0.0111,3.19e-4 -0.0037,10e-5 -0.0074,1.99e-4 -0.01109,2.95e-4 -0.0037,9.5e-5 -0.0074,1.88e-4 -0.01109,2.73e-4 -0.0037,8.6e-5 -0.0074,1.66e-4 -0.01109,2.37e-4 -0.0037,7e-5 -0.0074,1.32e-4 -0.01109,1.82e-4 l 0.07214,-0.07042 0.07213,-0.07042 0.07214,-0.07042 0.07214,-0.07042 0.07213,-0.07042 0.07214,-0.07042 0.07214,-0.07042 0.07213,-0.07042 0.07214,-0.07042 0.07214,-0.07042 0.07214,-0.07042 0.07214,-0.07042 0.07214,-0.07042 0.07214,-0.07042 0.07214,-0.07042 0.07213,-0.07042 0.07214,-0.07042 0.07214,-0.07042 0.07214,-0.07042 0.07214,-0.07042 0.07214,-0.07042 0.07214,-0.07042 0.07213,-0.07042 0.07214,-0.07042 0.07214,-0.07042 0.07214,-0.07042 0.07214,-0.07042 0.07214,-0.07042 0.07214,-0.07042 0.07214,-0.07042 0.07213,-0.07042 0.07214,-0.07042 -0.358385,0.0044 -0.358385,0.0044 -0.358386,0.0044 -0.358385,0.0044 -0.358385,0.0044 -0.358386,0.0044 -0.358385,0.0044 -0.358386,0.0044 -0.358385,0.0044 -0.358385,0.0044 -0.358386,0.0044 -0.358385,0.0044 -0.358385,0.0044 -0.358386,0.0044 -0.358385,0.0044 -0.358386,0.0044 -0.358385,0.0044 -0.358386,0.0044 -0.358385,0.0044 -0.358386,0.0044 -0.358385,0.0044 -0.358386,0.0044 -0.358385,0.0044 -0.358386,0.0044 -0.358385,0.0044 -0.358385,0.0044 -0.358386,0.0044 -0.358385,0.0044 -0.358385,0.0044 -0.358386,0.0044 -0.358385,0.0044 -0.358386,0.0044 c 0.02156,0.03344 0.04303,0.06694 0.06441,0.100502 0.02138,0.03356 0.04266,0.06719 0.06386,0.100879 0.02119,0.03369 0.04229,0.06744 0.0633,0.10125 0.02101,0.03381 0.04193,0.06768 0.06276,0.101617 0.02083,0.03393 0.04156,0.06793 0.06221,0.10198 0.02065,0.03405 0.0412,0.06817 0.06167,0.102338 0.02047,0.03417 0.04084,0.0684 0.06113,0.102691 0.02029,0.03429 0.04048,0.06864 0.06059,0.10304 0.02011,0.0344 0.04013,0.06887 0.06005,0.103384 0.01993,0.03452 0.03977,0.06909 0.05952,0.103724 0.01975,0.03463 0.03942,0.06932 0.05899,0.104059 0.01958,0.03474 0.03907,0.06954 0.05847,0.10439 0.0194,0.03485 0.03872,0.06976 0.05794,0.104716 0.01923,0.03496 0.03837,0.06997 0.05742,0.105036 0.01905,0.03506 0.03802,0.07018 0.05691,0.105353 0.01888,0.03517 0.03768,0.07039 0.05639,0.105666 0.01871,0.03527 0.03734,0.0706 0.05588,0.105973 0.01854,0.03538 0.037,0.0708 0.05537,0.106276 0.01837,0.03548 0.03666,0.071 0.05486,0.106575 0.0182,0.03558 0.03632,0.0712 0.05436,0.106869 0.01804,0.03567 0.03599,0.07139 0.05385,0.107158 0.01787,0.03577 0.03565,0.07158 0.05336,0.107443 0.0177,0.03586 0.03532,0.07177 0.05286,0.107723 0.01754,0.03595 0.03499,0.07195 0.05236,0.107999 0.01737,0.03604 0.03466,0.07213 0.05187,0.108269 0.01721,0.03613 0.03434,0.07231 0.05139,0.108536 0.01705,0.03622 0.03402,0.07249 0.0509,0.108798 0.01689,0.03631 0.03369,0.07266 0.05042,0.109055 0.01673,0.03639 0.03337,0.07283 0.04994,0.109307 0.01657,0.03648 0.03305,0.073 0.04946,0.109556 0.01641,0.03656 0.03274,0.07316 0.04899,0.109799 0.01625,0.03664 0.03242,0.07332 0.04852,0.110039 -0.02255,0.0077 -0.04509,0.01545 -0.0676,0.02324 -0.02252,0.0078 -0.04502,0.01561 -0.0675,0.02347 -0.02248,0.0079 -0.04495,0.01576 -0.06739,0.0237 -0.02245,0.0079 -0.04488,0.01592 -0.06729,0.02393 -0.02241,0.008 -0.04481,0.01607 -0.06719,0.02415 -0.02238,0.0081 -0.04474,0.01621 -0.06709,0.02437 -0.02235,0.0082 -0.04468,0.01636 -0.06699,0.02459 -0.02231,0.0082 -0.04461,0.0165 -0.06689,0.02481 -0.02228,0.0083 -0.04455,0.01665 -0.0668,0.02502 -0.02225,0.0084 -0.04449,0.01678 -0.0667,0.02523 -0.02222,0.0084 -0.04442,0.01692 -0.06661,0.02543 -0.02219,0.0085 -0.04436,0.01706 -0.06652,0.02564 -0.02216,0.0086 -0.04431,0.01719 -0.06643,0.02584 -0.02213,0.0086 -0.04424,0.01733 -0.06634,0.02604 -0.0221,0.0087 -0.04419,0.01746 -0.06626,0.02623 -0.02207,0.0088 -0.04413,0.01759 -0.06617,0.02643 -0.02204,0.0088 -0.04407,0.01771 -0.06609,0.02662 -0.02202,0.0089 -0.04402,0.01784 -0.06601,0.02681 -0.02199,0.009 -0.04397,0.01796 -0.06593,0.02699 -0.02196,0.009 -0.04391,0.01808 -0.06585,0.02717 -0.02194,0.0091 -0.04386,0.0182 -0.06578,0.02735 -0.02191,0.0091 -0.04381,0.01832 -0.0657,0.02753 -0.02189,0.0092 -0.04376,0.01844 -0.06563,0.0277 -0.02186,0.0093 -0.04371,0.01855 -0.06555,0.02787 -0.02184,0.0093 -0.04367,0.01867 -0.06549,0.02805 -0.02182,0.0094 -0.04362,0.01878 -0.06542,0.02822 -0.02179,0.0094 -0.04357,0.0189 -0.06535,0.02838 -0.02177,0.0095 -0.04353,0.019 -0.06528,0.02854 -0.02175,0.0095 -0.04348,0.01911 -0.06521,0.0287 -0.02173,0.0096 -0.04344,0.01921 -0.06515,0.02886 -0.02171,0.0096 -0.0434,0.01931 -0.06509,0.029 -0.02169,0.0097 -0.04336,0.01941 -0.06503,0.02915 -0.104739,-0.237709 -0.213608,-0.473187 -0.326516,-0.706343 -0.112908,-0.233156 -0.229854,-0.46399 -0.350749,-0.692408 -0.120895,-0.228418 -0.245739,-0.454421 -0.374441,-0.677915 -0.128701,-0.223495 -0.261261,-0.444481 -0.397588,-0.662866 -0.136327,-0.218385 -0.276422,-0.43417 -0.420195,-0.647261 -0.143772,-0.213091 -0.291222,-0.423488 -0.442258,-0.631099 -0.151037,-0.207611 -0.30566,-0.412435 -0.46378,-0.61438 -0.15812,-0.201945 -0.319737,-0.401011 -0.48476,-0.597105 -0.165023,-0.196094 -0.333452,-0.389215 -0.505197,-0.579272 -0.171744,-0.190057 -0.346805,-0.377049 -0.525091,-0.560884 -0.178286,-0.183835 -0.359797,-0.364512 -0.544443,-0.541939 -0.184647,-0.177426 -0.372428,-0.351603 -0.563254,-0.522436 -0.190826,-0.170833 -0.384697,-0.338324 -0.581522,-0.502378 -0.196825,-0.164055 -0.396604,-0.324673 -0.599247,-0.481763 -0.202643,-0.15709 -0.408149,-0.310651 -0.61643,-0.460591 -0.20828,-0.14994 -0.419334,-0.296259 -0.633071,-0.438863 -0.213737,-0.142604 -0.430157,-0.281494 -0.64917,-0.416577 -0.219013,-0.135083 -0.440618,-0.266359 -0.664726,-0.393735 -0.224108,-0.127377 -0.450718,-0.250853 -0.67974,-0.370337 -0.229022,-0.119484 -0.460456,-0.234976 -0.694212,-0.346382 -0.233756,-0.111406 -0.469833,-0.218727 -0.708142,-0.32187 -0.238308,-0.103143 -0.478848,-0.202108 -0.721528,-0.296802 -0.242681,-0.09469 -0.487502,-0.185117 -0.734374,-0.271177 -0.246872,-0.08606 -0.495794,-0.167756 -0.746676,-0.244995 -0.250882,-0.07724 -0.503724,-0.150023 -0.758436,-0.218257 -0.254712,-0.06823 -0.511294,-0.131919 -0.769654,-0.190962 -0.258361,-0.05904 -0.518501,-0.113444 -0.78033,-0.16311 -0.261829,-0.04967 -0.525347,-0.0946 -0.790463,-0.134702 -0.265117,-0.0401 -0.531832,-0.07538 -0.800055,-0.105737 -0.268223,-0.03036 -0.537954,-0.05579 -0.809103,-0.07622 -0.271149,-0.02042 -0.543715,-0.03583 -0.817609,-0.04614 -0.273894,-0.0103 -0.549116,-0.0155 -0.825574,-0.0155 -0.373437,0 -0.744665,0.0095 -1.113455,0.02816 -0.368791,0.0187 -0.735144,0.04663 -1.098834,0.08357 -0.363691,0.03694 -0.724718,0.08288 -1.082855,0.137613 -0.358136,0.05473 -0.713383,0.118237 -1.065514,0.190301 -0.35213,0.07206 -0.701144,0.152683 -1.046816,0.241629 -0.345671,0.08895 -0.687999,0.186221 -1.026757,0.291597 -0.338759,0.105376 -0.673948,0.218853 -1.00534,0.340205 -0.331393,0.121352 -0.65899,0.250579 -0.982564,0.387454 -0.323574,0.136875 -0.643126,0.281398 -0.958428,0.433343 -0.315303,0.151944 -0.626356,0.311311 -0.932934,0.477871 -0.306577,0.166561 -0.608679,0.340317 -0.906079,0.521041 -0.297399,0.180724 -0.590096,0.368415 -0.877865,0.562849 -0.287769,0.194434 -0.570608,0.395609 -0.848293,0.603299 -0.277684,0.20769 -0.550213,0.421895 -0.817361,0.642388 -0.267147,0.220493 -0.528912,0.447275 -0.785069,0.680118 -0.256157,0.232843 -0.506705,0.471747 -0.751419,0.716487 -0.244713,0.244739 -0.483592,0.495314 -0.716409,0.751497 -0.232817,0.256183 -0.459573,0.517974 -0.68004,0.785147 -0.220468,0.267172 -0.434647,0.539727 -0.642312,0.817436 -0.207665,0.27771 -0.408815,0.560574 -0.603224,0.848367 -0.194409,0.287793 -0.382077,0.580514 -0.562778,0.877938 -0.1807,0.297423 -0.354433,0.599548 -0.520972,0.906147 -0.166538,0.3066 -0.325882,0.617675 -0.477806,0.932999 -0.151924,0.315323 -0.296426,0.634895 -0.433282,0.958489 -0.136855,0.323594 -0.266064,0.651209 -0.387398,0.98262 -0.121334,0.331411 -0.234795,0.666617 -0.340155,1.005391 -0.10536,0.338775 -0.20262,0.681118 -0.291552,1.026802 -0.08893,0.345685 -0.169539,0.694712 -0.241591,1.046854 -0.07205,0.352142 -0.135551,0.707399 -0.19027,1.065545 -0.05472,0.358145 -0.100658,0.71918 -0.13759,1.082876 -0.03693,0.363696 -0.06486,0.730055 -0.08355,1.098848 -0.01869,0.368794 -0.02815,0.740022 -0.02815,1.11346 0,0.165937 0.0019,0.331408 0.0057,0.496393 0.0038,0.164985 0.0094,0.329485 0.01693,0.493482 0.0075,0.163997 0.01686,0.32749 0.02805,0.490462 0.01119,0.162973 0.02421,0.325423 0.03905,0.487335 0.01483,0.161912 0.03148,0.323284 0.04992,0.484099 0.01844,0.160815 0.03866,0.321073 0.06065,0.480755 0.02199,0.159682 0.04575,0.318788 0.07126,0.477301 0.0255,0.158513 0.05275,0.316433 0.08173,0.473741 0.02898,0.157308 0.05967,0.314004 0.09207,0.470071 0.0324,0.156067 0.06651,0.311504 0.102288,0.466293 0.03578,0.15479 0.07325,0.308931 0.112372,0.462407 0.03912,0.153476 0.07991,0.306286 0.122325,0.458413 0.04242,0.152126 0.08648,0.303569 0.132148,0.45431 0.04567,0.150741 0.09296,0.30078 0.141841,0.450099 0.04888,0.149319 0.09936,0.297918 0.151403,0.445779 0.05205,0.147861 0.105666,0.294985 0.160835,0.441352 0.05517,0.146367 0.111889,0.291978 0.170137,0.436816 0.05825,0.144837 0.118025,0.2889 0.179308,0.43217 0.06128,0.143271 0.124074,0.28575 0.18835,0.427418 0.06428,0.141669 0.130036,0.282527 0.19726,0.422557 0.06722,0.14003 0.135912,0.279232 0.206041,0.417588 0.07013,0.138355 0.1417,0.275865 0.214691,0.41251 0.07299,0.136644 0.147402,0.272425 0.223211,0.407323 0.07581,0.134898 0.153017,0.268914 0.231601,0.402029 0.07858,0.133115 0.158545,0.26533 0.23986,0.396626 0.08132,0.131296 0.163986,0.261674 0.247989,0.391115 0.084,0.129441 0.16934,0.257946 0.255987,0.385495 0.08665,0.12755 0.174607,0.254145 0.263856,0.379768 0.08925,0.125623 0.179787,0.250272 0.271594,0.373932 0.09181,0.123659 0.184881,0.246327 0.279202,0.367987 0.09432,0.121659 0.189887,0.24231 0.286679,0.361934 0.09679,0.119624 0.194807,0.238221 0.294026,0.355773 -0.01172,0.02328 -0.02341,0.04658 -0.03507,0.0699 -0.01167,0.02332 -0.0233,0.04666 -0.03492,0.07002 -0.01161,0.02336 -0.0232,0.04674 -0.03475,0.07014 -0.01156,0.0234 -0.02308,0.04682 -0.03458,0.07026 -0.0115,0.02344 -0.02297,0.0469 -0.03441,0.07038 -0.01144,0.02348 -0.02285,0.04698 -0.03423,0.07051 -0.01138,0.02352 -0.02273,0.04707 -0.03404,0.07063 -0.01132,0.02356 -0.0226,0.04715 -0.03385,0.07076 -0.01125,0.02361 -0.02247,0.04724 -0.03366,0.07089 -0.01119,0.02365 -0.02234,0.04732 -0.03346,0.07101 -0.01112,0.02369 -0.02221,0.04741 -0.03326,0.07114 -0.01105,0.02374 -0.02207,0.04749 -0.03306,0.07127 -0.01099,0.02378 -0.02193,0.04758 -0.03285,0.0714 -0.01091,0.02382 -0.02179,0.04767 -0.03263,0.07154 -0.01084,0.02387 -0.02164,0.04776 -0.03241,0.07167 -0.01077,0.02391 -0.02149,0.04785 -0.03218,0.07181 -0.01069,0.02396 -0.02134,0.04794 -0.03195,0.07194 -0.01061,0.024 -0.02119,0.04803 -0.03172,0.07208 -0.01053,0.02405 -0.02103,0.04812 -0.03148,0.07222 -0.01045,0.0241 -0.02087,0.04822 -0.03124,0.07236 -0.01037,0.02414 -0.0207,0.04831 -0.03099,0.0725 -0.01029,0.02419 -0.02053,0.04841 -0.03074,0.07264 -0.0102,0.02424 -0.02036,0.0485 -0.03048,0.07279 -0.01012,0.02429 -0.02019,0.0486 -0.03022,0.07293 -0.01003,0.02434 -0.02002,0.0487 -0.02995,0.07308 -0.0099,0.02438 -0.01983,0.04879 -0.02968,0.07323 -0.0098,0.02444 -0.01965,0.04889 -0.02941,0.07338 -0.0098,0.02448 -0.01947,0.04899 -0.02913,0.07353 -0.0097,0.02454 -0.01928,0.0491 -0.02885,0.07368 -0.0096,0.02459 -0.01909,0.0492 -0.02855,0.07383 -0.0095,0.02464 -0.01889,0.0493 -0.02826,0.07399 -0.0094,0.02469 -0.01869,0.0494 -0.02796,0.07414 -0.02354,-0.02547 -0.04705,-0.05097 -0.07051,-0.07652 -0.02347,-0.02554 -0.04689,-0.05112 -0.07028,-0.07673 -0.02339,-0.02562 -0.04673,-0.05127 -0.07004,-0.07696 -0.02331,-0.02569 -0.04657,-0.05142 -0.06979,-0.07719 -0.02322,-0.02577 -0.0464,-0.05158 -0.06954,-0.07742 -0.02314,-0.02585 -0.04623,-0.05173 -0.06927,-0.07766 -0.02305,-0.02593 -0.04605,-0.0519 -0.069,-0.07791 -0.02295,-0.02601 -0.04586,-0.05206 -0.06872,-0.07816 -0.02286,-0.02609 -0.04567,-0.05223 -0.06844,-0.07841 -0.02276,-0.02618 -0.04548,-0.0524 -0.06815,-0.07867 -0.02267,-0.02627 -0.04528,-0.05258 -0.06785,-0.07893 -0.02257,-0.02636 -0.04508,-0.05276 -0.06754,-0.0792 -0.02246,-0.02645 -0.04487,-0.05294 -0.06722,-0.07947 -0.02235,-0.02654 -0.04465,-0.05312 -0.0669,-0.07975 -0.02224,-0.02663 -0.04443,-0.05331 -0.06657,-0.08004 -0.02213,-0.02673 -0.04421,-0.0535 -0.06623,-0.08032 -0.02202,-0.02682 -0.04398,-0.05369 -0.06588,-0.08062 -0.0219,-0.02692 -0.04374,-0.05389 -0.06553,-0.08091 -0.02178,-0.02702 -0.0435,-0.05409 -0.06516,-0.08122 -0.02166,-0.02712 -0.04326,-0.0543 -0.0648,-0.08152 -0.02154,-0.02723 -0.04301,-0.0545 -0.06442,-0.08184 -0.02141,-0.02733 -0.04275,-0.05472 -0.06403,-0.08215 -0.02128,-0.02744 -0.04249,-0.05493 -0.06364,-0.08248 -0.02115,-0.02755 -0.04223,-0.05515 -0.06324,-0.0828 -0.02101,-0.02766 -0.04196,-0.05537 -0.06283,-0.08314 -0.02088,-0.02777 -0.04168,-0.05559 -0.06242,-0.08347 -0.02074,-0.02788 -0.0414,-0.05582 -0.06199,-0.08381 -0.02059,-0.028 -0.04111,-0.05605 -0.06156,-0.08416 -0.02045,-0.02811 -0.04082,-0.05628 -0.06112,-0.08451 -0.0203,-0.02823 -0.04053,-0.05652 -0.06068,-0.08487 -0.02015,-0.02835 -0.04023,-0.05676 -0.06023,-0.08523 -0.02,-0.02847 -0.03992,-0.057 -0.05977,-0.0856 l -0.141198,0.329219 -0.141198,0.329218 -0.141198,0.329219 -0.141198,0.329219 -0.141198,0.329219 -0.141198,0.329218 -0.141198,0.329219 -0.141198,0.329219 -0.141198,0.329219 -0.141198,0.329218 -0.141198,0.329219 -0.141198,0.329219 -0.141198,0.329219 -0.141197,0.329219 -0.141198,0.329218 -0.141198,0.329219 -0.141198,0.329219 -0.141198,0.329218 -0.141198,0.329219 -0.141198,0.329219 -0.141198,0.329219 -0.141198,0.329219 -0.141198,0.329218 -0.141198,0.329219 -0.141198,0.329219 -0.141198,0.329219 -0.141198,0.329218 -0.141198,0.329219 -0.141198,0.329219 -0.141197,0.329219 -0.141198,0.329218 -0.141198,0.329219 0.07281,-0.03125 0.07281,-0.03125 0.07281,-0.03125 0.07281,-0.03125 0.07281,-0.03125 0.07281,-0.03125 0.07281,-0.03125 0.07281,-0.03125 0.07281,-0.03125 0.07281,-0.03125 0.07281,-0.03125 0.07281,-0.03125 0.07281,-0.03125 0.07281,-0.03125 0.07281,-0.03125 0.07281,-0.03125 0.07281,-0.03125 0.07281,-0.03125 0.07281,-0.03125 0.07281,-0.03125 0.07281,-0.03125 0.07281,-0.03125 0.07281,-0.03125 0.07281,-0.03125 0.07281,-0.03125 0.07281,-0.03125 0.07281,-0.03125 0.07281,-0.03125 0.07281,-0.03125 0.07281,-0.03125 0.07281,-0.03125 0.07281,-0.03125 c -0.112552,0.111823 -0.223609,0.224935 -0.333153,0.339303 -0.109544,0.114369 -0.217576,0.229994 -0.324079,0.346843 -0.106504,0.116849 -0.211478,0.234922 -0.314908,0.354187 -0.103429,0.119265 -0.205314,0.239722 -0.305637,0.361337 -0.100323,0.121616 -0.199084,0.24439 -0.296268,0.368291 -0.09718,0.123901 -0.192789,0.248929 -0.286801,0.37505 -0.09401,0.126122 -0.186428,0.253338 -0.277234,0.381615 -0.09081,0.128277 -0.180002,0.257616 -0.2675707,0.387984 -0.087568,0.130368 -0.1735094,0.261765 -0.2578068,0.394158 -0.084297,0.132393 -0.1669514,0.265783 -0.2479452,0.400137 -0.080994,0.134354 -0.1603276,0.269672 -0.237985,0.405922 -0.077657,0.13625 -0.1536381,0.273431 -0.2279261,0.411511 -0.074288,0.13808 -0.146883,0.27706 -0.2177687,0.416905 -0.070886,0.139846 -0.140062,0.280559 -0.2075126,0.422105 -0.067451,0.141547 -0.1331753,0.283927 -0.1971579,0.427109 -0.063983,0.143182 -0.126223,0.287166 -0.1867048,0.431918 -0.060482,0.144753 -0.1192049,0.290274 -0.176153,0.436532 -0.056948,0.146259 -0.1121212,0.293253 -0.1655028,0.440952 -0.053382,0.147699 -0.1049716,0.296102 -0.1547537,0.445176 -0.049782,0.149074 -0.097756,0.29882 -0.1439063,0.449205 -0.04615,0.150385 -0.090476,0.301409 -0.1329603,0.45304 -0.042485,0.15163 -0.083129,0.303867 -0.1219156,0.456678 -0.038787,0.152812 -0.075716,0.306197 -0.1107723,0.460123 -0.035056,0.153927 -0.068238,0.308395 -0.099531,0.463372 -0.031292,0.154977 -0.060695,0.310463 -0.088191,0.466426 -0.027496,0.155963 -0.053085,0.312402 -0.076752,0.469286 -0.023666,0.156883 -0.04541,0.31421 -0.065214,0.471949 -0.019804,0.157739 -0.037669,0.31589 -0.053578,0.474419 -0.015909,0.15853 -0.029862,0.317438 -0.041843,0.476693 -0.011981,0.159255 -0.02199,0.318857 -0.03001,0.478773 -0.00802,0.159915 -0.014052,0.320145 -0.018078,0.480656 -0.00403,0.160511 -0.00605,0.321304 -0.00605,0.482345 0,0.25724 0.00503,0.513535 0.014998,0.768774 0.00997,0.255238 0.024889,0.509419 0.044673,0.762429 0.019783,0.25301 0.044432,0.504849 0.073866,0.755404 0.029434,0.250556 0.063653,0.499827 0.1025771,0.7477 0.038924,0.247874 0.082553,0.49435 0.130807,0.739315 0.048254,0.244965 0.1011325,0.488419 0.1585556,0.730249 0.057423,0.24183 0.1193907,0.482036 0.1858225,0.720504 0.066432,0.238468 0.1373279,0.475199 0.2126078,0.710078 0.07528,0.23488 0.1549439,0.467908 0.2389115,0.698972 0.083968,0.231065 0.1722388,0.460164 0.2647336,0.687187 0.092495,0.227022 0.1892128,0.451966 0.2900741,0.67472 0.1008614,0.222753 0.2058658,0.443315 0.3149332,0.661573 0.1090673,0.218258 0.2221975,0.434211 0.3393104,0.647746 0.1171129,0.213535 0.2382085,0.424653 0.3632065,0.633239 0.124998,0.208586 0.2538984,0.414641 0.3866209,0.618051 0.1327225,0.203411 0.2692669,0.404176 0.4095539,0.602184 0.140286,0.198008 0.284315,0.393258 0.432005,0.585636 0.147689,0.192379 0.299041,0.381886 0.453974,0.568408 0.154933,0.186523 0.313447,0.37006 0.475462,0.5505 0.162015,0.18044 0.327532,0.357781 0.496469,0.531911 0.168937,0.17413 0.341295,0.345049 0.516993,0.512643 0.175699,0.167594 0.354738,0.331863 0.537037,0.492694 0.1823,0.16083 0.367859,0.318223 0.556599,0.472064 0.18874,0.153841 0.380659,0.30413 0.575679,0.450754 0.195019,0.146624 0.393139,0.289584 0.594278,0.428765 0.201138,0.139181 0.405297,0.274584 0.612394,0.406095 0.207098,0.131511 0.417135,0.25913 0.630031,0.382744 0.212895,0.123614 0.42865,0.243224 0.647184,0.358714 0.218533,0.115491 0.439846,0.226863 0.663856,0.334003 0.224011,0.10714 0.45072,0.210049 0.680048,0.308612 0.229327,0.09856 0.461273,0.192782 0.695756,0.282542 0.234484,0.08976 0.471505,0.175061 0.710985,0.25579 0.0588,0.02005 0.117693,0.0398 0.176672,0.05923 0.05898,0.01943 0.118045,0.03856 0.177197,0.05737 0.05915,0.01881 0.118388,0.03732 0.177708,0.05551 0.05932,0.01819 0.118723,0.03608 0.178208,0.05365 0.05948,0.01757 0.119049,0.03484 0.178693,0.05179 0.05964,0.01695 0.119366,0.0336 0.179166,0.04993 0.0598,0.01633 0.119675,0.03235 0.179625,0.04806 0.05995,0.01571 0.119976,0.03111 0.180074,0.0462 0.0601,0.01509 0.120267,0.02986 0.180508,0.04433 0.06024,0.01447 0.120551,0.02862 0.18093,0.04246 0.06038,0.01384 0.120826,0.02737 0.181339,0.04059 0.06051,0.01322 0.121092,0.02612 0.181735,0.03872 0.06064,0.01259 0.121349,0.02488 0.182118,0.03684 0.06077,0.01197 0.121598,0.02362 0.182488,0.03497 0.06089,0.01134 0.12184,0.02237 0.182847,0.03309 0.06101,0.01072 0.122072,0.02112 0.183192,0.03121 0.06112,0.01009 0.122294,0.01987 0.183522,0.02934 0.06123,0.0095 0.12251,0.01861 0.183843,0.02745 0.06133,0.0088 0.122717,0.01736 0.184149,0.02557 0.06143,0.0082 0.122914,0.0161 0.184443,0.02368 0.06153,0.0076 0.123103,0.01485 0.184723,0.0218 0.06162,0.007 0.123284,0.01359 0.184991,0.01991 0.06171,0.0063 0.123456,0.01233 0.185246,0.01802 0.06179,0.0057 0.12362,0.01107 0.185489,0.01613 0.06187,0.0051 0.123775,0.0098 0.185718,0.01424 0.06194,0.0044 0.123922,0.0085 0.185935,0.01235 0.06201,0.0038 0.12406,0.0073 0.186138,0.01045 0.06208,0.0032 0.124189,0.006 0.18633,0.0086 0.06214,0.0025 0.124315,0.0048 0.186515,0.0066 0.0622,0.0019 0.124426,0.0035 0.186678,0.0047 0.06225,0.0013 0.124528,0.0022 0.186828,0.0028 C 25.202,89.999686 25.264323,90 25.326667,90 l 1.66125,0 1.66125,0 1.66125,0 1.66125,0 1.66125,0 1.66125,0 1.66125,0 1.66125,0 1.66125,0 1.66125,0 1.66125,0 1.66125,0 1.66125,0 1.66125,0 1.66125,0 1.66125,0 1.66125,0 1.66125,0 1.66125,0 1.66125,0 1.66125,0 1.66125,0 1.66125,0 1.66125,0 1.66125,0 1.66125,0 1.66125,0 1.66125,0 1.66125,0 1.66125,0 1.66125,0 1.66125,0 c 0.05016,0 0.100334,-1.87e-4 0.150531,-5.63e-4 0.0502,-3.75e-4 0.100415,-9.37e-4 0.150651,-0.0017 0.05024,-7.5e-4 0.100492,-0.0017 0.150765,-0.0028 0.05027,-0.0011 0.100564,-0.0024 0.150872,-0.0039 0.05031,-0.0015 0.100632,-0.0032 0.150971,-0.0051 0.05034,-0.0019 0.100696,-0.0039 0.151065,-0.0062 0.05037,-0.0022 0.100754,-0.0047 0.151152,-0.0073 0.0504,-0.0026 0.100809,-0.0054 0.151232,-0.0084 0.05042,-0.003 0.100859,-0.0062 0.151305,-0.0095 0.05045,-0.0034 0.100904,-0.0069 0.151372,-0.01067 0.05047,-0.0037 0.100945,-0.0077 0.151431,-0.01179 0.05049,-0.0041 0.100982,-0.0084 0.151485,-0.01291 0.0505,-0.0045 0.101013,-0.0092 0.15153,-0.01404 0.05052,-0.0049 0.101041,-0.0099 0.151571,-0.01516 0.05053,-0.0052 0.101064,-0.01067 0.151603,-0.01628 0.05054,-0.0056 0.101083,-0.01142 0.15163,-0.01741 0.05055,-0.006 0.101097,-0.01217 0.151649,-0.01853 0.05055,-0.0064 0.101107,-0.01292 0.151662,-0.01965 0.05056,-0.0067 0.101112,-0.01366 0.151668,-0.02078 0.05056,-0.0071 0.101113,-0.01441 0.151668,-0.0219 0.05056,-0.0075 0.101109,-0.01516 0.15166,-0.02302 0.05055,-0.0079 0.101101,-0.01591 0.151647,-0.02415 0.05054,-0.0082 0.101088,-0.01666 0.151625,-0.02527 0.05054,-0.0086 0.101071,-0.01741 0.151598,-0.02639 0.05053,-0.009 0.101049,-0.01816 0.151564,-0.02752 0.05052,-0.0094 0.101023,-0.01891 0.151523,-0.02864 0.0505,-0.0097 0.100993,-0.01965 0.151476,-0.02976 0.05048,-0.01011 0.100957,-0.0204 0.151421,-0.03088 0.05046,-0.01048 0.100918,-0.02115 0.15136,-0.03201 0.05044,-0.01086 0.100873,-0.0219 0.151292,-0.03313 0.05042,-0.01123 0.100825,-0.02265 0.151217,-0.03425 0.05039,-0.0116 0.100772,-0.0234 0.151137,-0.03538 0.30651,-0.07187 0.610143,-0.150096 0.910779,-0.23451 0.300635,-0.08441 0.598274,-0.175023 0.892796,-0.271671 0.294522,-0.09665 0.585927,-0.199338 0.874097,-0.307916 0.288169,-0.108577 0.573103,-0.223043 0.854681,-0.343244 0.281578,-0.120201 0.5598,-0.246138 0.834548,-0.377657 0.274747,-0.131519 0.54602,-0.268621 0.813698,-0.411154 0.267678,-0.142532 0.531762,-0.290494 0.792131,-0.443734 0.26037,-0.15324 0.517026,-0.311758 0.769848,-0.4754 0.252822,-0.163643 0.501811,-0.33241 0.746847,-0.50615 0.245036,-0.173739 0.486119,-0.352451 0.72313,-0.535983 0.237011,-0.183532 0.469949,-0.371883 0.698696,-0.564902 0.228746,-0.193018 0.453301,-0.390703 0.673544,-0.592903 0.220243,-0.2022 0.436175,-0.408914 0.647676,-0.61999 0.211501,-0.211075 0.418572,-0.426513 0.621092,-0.646159 0.20252,-0.219647 0.40049,-0.443503 0.59379,-0.671415 0.1933,-0.227912 0.381931,-0.459881 0.565772,-0.695753 0.183841,-0.235873 0.362893,-0.475649 0.537037,-0.719176 0.174143,-0.243528 0.343377,-0.490806 0.507584,-0.741683 0.164206,-0.250877 0.323384,-0.505353 0.477415,-0.763274 0.15403,-0.257922 0.302913,-0.519289 0.446529,-0.78395 0.143616,-0.26466 0.281964,-0.532614 0.414926,-0.803709 0.132962,-0.271094 0.260537,-0.545329 0.382606,-0.822552 0.12207,-0.277224 0.238633,-0.557435 0.34957,-0.840481 0.110938,-0.283047 0.21625,-0.568929 0.315817,-0.857493 0.09957,-0.288564 0.193389,-0.579811 0.281346,-0.873588 0.08796,-0.293777 0.170051,-0.590085 0.24616,-0.888769 0.07611,-0.298685 0.146233,-0.599747 0.210255,-0.903034 0.06402,-0.303287 0.12194,-0.608798 0.173635,-0.916382 0.05169,-0.307579 0.09717,-0.617231 0.136296,-0.928804 0.03913,-0.311572 0.07192,-0.625065 0.09824,-0.940326 0.02633,-0.31526 0.04619,-0.632288 0.05947,-0.950931 C 99.993299,68.673643 100,68.353386 100,68.031667 c 0,-0.244323 -0.004,-0.48813 -0.01206,-0.731334 -0.008,-0.243204 -0.02003,-0.485806 -0.03598,-0.727718 -0.01595,-0.241911 -0.03584,-0.483134 -0.05961,-0.723579 -0.02378,-0.240446 -0.05144,-0.480116 -0.08295,-0.718922 -0.0315,-0.238806 -0.06685,-0.476749 -0.105986,-0.713742 -0.03914,-0.236993 -0.08206,-0.473036 -0.128727,-0.708042 -0.04667,-0.235006 -0.09708,-0.468975 -0.151175,-0.70182 -0.0541,-0.232845 -0.111893,-0.464567 -0.173328,-0.695078 -0.06144,-0.230511 -0.126514,-0.459812 -0.195186,-0.687815 -0.06867,-0.228003 -0.140939,-0.454709 -0.21675,-0.68003 -0.07581,-0.225322 -0.155166,-0.449259 -0.238016,-0.671726 -0.08285,-0.222466 -0.169198,-0.443462 -0.25899,-0.662899 -0.08979,-0.219438 -0.183031,-0.437318 -0.279667,-0.653553 -0.09664,-0.216235 -0.196668,-0.430826 -0.300049,-0.643685 -0.103381,-0.212859 -0.210109,-0.423987 -0.320136,-0.633296 -0.110028,-0.20931 -0.223353,-0.416801 -0.339929,-0.622387 -0.116575,-0.205586 -0.2364,-0.409267 -0.359426,-0.610956 C 96.619008,56.243396 96.492782,56.043699 96.363405,55.846081 96.234029,55.648463 96.101501,55.452924 95.965871,55.25955 95.830241,55.066176 95.691509,54.874968 95.549724,54.686012 95.407939,54.497056 95.263102,54.310353 95.115261,54.125989 94.96742,53.941624 94.816575,53.759599 94.662776,53.58 94.508977,53.400401 94.352223,53.223228 94.192565,53.048568 94.032906,52.873908 93.870342,52.70176 93.704922,52.532213 93.539502,52.362665 93.371226,52.195718 93.200143,52.031456 93.02906,51.867195 92.855171,51.70562 92.678523,51.546819 92.501876,51.388017 92.322471,51.231989 92.140358,51.078821 91.958244,50.925653 91.773422,50.775346 91.585941,50.627985 91.39846,50.480624 91.208319,50.33621 91.015568,50.19483 c -0.19275,-0.14138 -0.388111,-0.279726 -0.586033,-0.414952 -0.197921,-0.135225 -0.398404,-0.26733 -0.601399,-0.396228 -0.202994,-0.128897 -0.4085,-0.254587 -0.616469,-0.376983 M 81.92,83.24 c -0.03448,0.0082 -0.069,0.01625 -0.103564,0.0242 -0.03456,0.008 -0.06917,0.01581 -0.103817,0.02354 -0.03465,0.0077 -0.06934,0.01536 -0.104067,0.02287 -0.03473,0.0075 -0.0695,0.01491 -0.104317,0.0222 -0.03481,0.0073 -0.06967,0.01446 -0.104564,0.02152 -0.03489,0.0071 -0.06983,0.014 -0.104811,0.02083 -0.03498,0.0068 -0.07,0.01354 -0.105056,0.02013 -0.03506,0.0066 -0.07016,0.01307 -0.105299,0.01943 -0.03514,0.0064 -0.07032,0.0126 -0.10554,0.01872 -0.03522,0.0061 -0.07048,0.01212 -0.105781,0.018 -0.0353,0.0059 -0.07064,0.01164 -0.106019,0.01727 -0.03538,0.0056 -0.0708,0.01115 -0.106256,0.01654 -0.03546,0.0054 -0.07095,0.01066 -0.106492,0.01581 -0.03554,0.0051 -0.07111,0.01016 -0.106726,0.01506 -0.03561,0.0049 -0.07127,0.0097 -0.106959,0.0143 -0.03569,0.0046 -0.07142,0.0092 -0.10719,0.01354 -0.03577,0.0044 -0.07157,0.0086 -0.107419,0.01278 -0.03585,0.0041 -0.07173,0.0081 -0.107647,0.01201 -0.03592,0.0039 -0.07188,0.0076 -0.107874,0.01123 -0.03599,0.0036 -0.07203,0.0071 -0.108098,0.01044 -0.03607,0.0033 -0.07218,0.0066 -0.108322,0.0096 -0.03614,0.0031 -0.07233,0.006 -0.108544,0.0088 -0.03622,0.0028 -0.07247,0.0055 -0.108764,0.008 -0.03629,0.0025 -0.07262,0.0049 -0.108983,0.0072 -0.03636,0.0023 -0.07277,0.0044 -0.109201,0.0064 -0.03644,0.002 -0.07291,0.0038 -0.109416,0.0056 -0.03651,0.0017 -0.07305,0.0033 -0.10963,0.0047 -0.03658,0.0014 -0.07319,0.0027 -0.109843,0.0039 -0.03665,0.0012 -0.07333,0.0022 -0.110054,0.003 -0.03672,8.72e-4 -0.07347,0.0016 -0.110263,0.0022 -0.03679,5.87e-4 -0.07361,0.001 -0.110472,0.0013 -0.03686,2.96e-4 -0.07375,4.45e-4 -0.110679,4.45e-4 l -1.03e-4,0 -1.03e-4,0 -1.03e-4,0 -1.03e-4,0 -1.03e-4,0 -1.03e-4,0 -1.04e-4,0 -1.03e-4,0 -1.03e-4,0 -1.03e-4,0 -1.03e-4,0 -1.03e-4,0 -1.03e-4,0 -1.03e-4,0 -1.04e-4,0 -1.03e-4,0 -1.03e-4,0 -1.03e-4,0 -1.04e-4,0 -1.03e-4,0 -1.03e-4,0 -1.03e-4,0 -1.03e-4,0 -1.03e-4,0 -1.03e-4,0 -1.03e-4,0 -1.04e-4,0 -1.03e-4,0 -1.03e-4,0 -1.03e-4,0 -1.03e-4,0 -1.03e-4,0 -1.66125,0 -1.66125,0 -1.66125,0 -1.66125,0 -1.66125,0 -1.66125,0 -1.66125,0 -1.66125,0 -1.66125,0 -1.66125,0 -1.66125,0 -1.66125,0 -1.66125,0 -1.66125,0 -1.66125,0 -1.66125,0 -1.66125,0 -1.66125,0 -1.66125,0 -1.66125,0 -1.66125,0 -1.66125,0 -1.66125,0 -1.66125,0 -1.66125,0 -1.66125,0 -1.66125,0 -1.66125,0 -1.66125,0 -1.66125,0 -1.66125,0 -1.66125,0 c -0.0426,0 -0.08516,-2.25e-4 -0.127655,-6.75e-4 -0.0425,-4.49e-4 -0.08495,-0.0011 -0.127338,-0.002 -0.04239,-8.98e-4 -0.08473,-0.002 -0.127013,-0.0034 -0.04228,-0.0013 -0.08451,-0.0029 -0.126685,-0.0047 -0.04217,-0.0018 -0.08429,-0.0038 -0.126349,-0.006 -0.04206,-0.0022 -0.08407,-0.0047 -0.126011,-0.0073 -0.04195,-0.0027 -0.08384,-0.0055 -0.125666,-0.0086 -0.04183,-0.0031 -0.0836,-0.0064 -0.125314,-0.0099 -0.04171,-0.0035 -0.08337,-0.0073 -0.124958,-0.01123 -0.04159,-0.004 -0.08313,-0.0081 -0.124596,-0.01251 -0.04147,-0.0044 -0.08288,-0.009 -0.124228,-0.01378 -0.04135,-0.0048 -0.08263,-0.0098 -0.123855,-0.01505 -0.04122,-0.0052 -0.08238,-0.01066 -0.123477,-0.0163 -0.04109,-0.0056 -0.08213,-0.01149 -0.123093,-0.01754 -0.04097,-0.0061 -0.08187,-0.01232 -0.122704,-0.01878 -0.04083,-0.0065 -0.0816,-0.01314 -0.122308,-0.02001 -0.0407,-0.0069 -0.08134,-0.01395 -0.121908,-0.02124 -0.04057,-0.0073 -0.08107,-0.01476 -0.121503,-0.02245 -0.04043,-0.0077 -0.0808,-0.01557 -0.121091,-0.02365 -0.04029,-0.0081 -0.08052,-0.01636 -0.120674,-0.02484 -0.04015,-0.0085 -0.08024,-0.01715 -0.120252,-0.02603 -0.04001,-0.0089 -0.07995,-0.01794 -0.119824,-0.02721 -0.03987,-0.0093 -0.07967,-0.01873 -0.119391,-0.02838 -0.03972,-0.0097 -0.07937,-0.0195 -0.118951,-0.02954 -0.03958,-0.01004 -0.07908,-0.02027 -0.118507,-0.03069 -0.03943,-0.01042 -0.07878,-0.02104 -0.118058,-0.03184 -0.03928,-0.0108 -0.07848,-0.02179 -0.117602,-0.03297 -0.03912,-0.01118 -0.07817,-0.02254 -0.117141,-0.0341 -0.03897,-0.01155 -0.07786,-0.02329 -0.116676,-0.03521 -0.03881,-0.01192 -0.07755,-0.02403 -0.116203,-0.03632 -0.03866,-0.01229 -0.07723,-0.02477 -0.115726,-0.03743 -0.03849,-0.01266 -0.07691,-0.0255 -0.115243,-0.03852 -0.154845,-0.05225 -0.308347,-0.107516 -0.460439,-0.165729 -0.152091,-0.05821 -0.302773,-0.119372 -0.451977,-0.183412 -0.149205,-0.06404 -0.296932,-0.13096 -0.443114,-0.200692 -0.146183,-0.06973 -0.29082,-0.142276 -0.433846,-0.217565 -0.143026,-0.07529 -0.284439,-0.153323 -0.424174,-0.234033 -0.139734,-0.08071 -0.277789,-0.164097 -0.414098,-0.250092 -0.136309,-0.08599 -0.270871,-0.174598 -0.403619,-0.265741 -0.132748,-0.09114 -0.263683,-0.184827 -0.392736,-0.280983 -0.129053,-0.09616 -0.256226,-0.194783 -0.381449,-0.295814 -0.125224,-0.101032 -0.2485,-0.204467 -0.369759,-0.310237 -0.12126,-0.105771 -0.240504,-0.213877 -0.357665,-0.32425 -0.117161,-0.110373 -0.232239,-0.223013 -0.345166,-0.337853 -0.112928,-0.11484 -0.223705,-0.231879 -0.332265,-0.351048 -0.10856,-0.11917 -0.214902,-0.240471 -0.318959,-0.363834 -0.104058,-0.123363 -0.20583,-0.248789 -0.305251,-0.376209 -0.09942,-0.127421 -0.196488,-0.256836 -0.291137,-0.388177 -0.09465,-0.131341 -0.186878,-0.264608 -0.27662,-0.399734 -0.08974,-0.135125 -0.176998,-0.272109 -0.2617,-0.410882 -0.0847,-0.138773 -0.16685,-0.279337 -0.246376,-0.421622 -0.07953,-0.142284 -0.156431,-0.286291 -0.230648,-0.431951 -0.07422,-0.14566 -0.145744,-0.292973 -0.214516,-0.441872 -0.06877,-0.148899 -0.134788,-0.299383 -0.197981,-0.451384 -0.06319,-0.152001 -0.123563,-0.305519 -0.181042,-0.460485 -0.05748,-0.154967 -0.112068,-0.311383 -0.163699,-0.469179 -0.05163,-0.157796 -0.100304,-0.316973 -0.145952,-0.477462 -0.04565,-0.16049 -0.08827,-0.322291 -0.127802,-0.485337 -0.03953,-0.163046 -0.07597,-0.327336 -0.109247,-0.492802 -0.03328,-0.165466 -0.0634,-0.332108 -0.09029,-0.499858 -0.02689,-0.16775 -0.05056,-0.336607 -0.07093,-0.506505 -0.02037,-0.169897 -0.03745,-0.340834 -0.05116,-0.512742 -0.01371,-0.171908 -0.02407,-0.344788 -0.03099,-0.518571 C 12.893496,71.30354 12.89,71.128854 12.89,70.953333 c 0,-0.119427 0.0016,-0.238459 0.0048,-0.357074 0.0032,-0.118615 0.008,-0.236813 0.01441,-0.354574 0.0064,-0.117762 0.01435,-0.235085 0.02386,-0.351951 0.0095,-0.116865 0.02058,-0.233272 0.03318,-0.3492 0.0126,-0.115928 0.02673,-0.231376 0.04237,-0.346324 0.01564,-0.114949 0.0328,-0.229396 0.05144,-0.343323 0.01864,-0.113927 0.03878,-0.227332 0.06038,-0.340195 0.0216,-0.112863 0.04467,-0.225184 0.06918,-0.336942 0.02451,-0.111758 0.05048,-0.222952 0.07786,-0.333563 0.02739,-0.11061 0.0562,-0.220637 0.08641,-0.330058 0.03022,-0.109422 0.06183,-0.218238 0.09484,-0.326428 0.033,-0.10819 0.06738,-0.215755 0.10313,-0.322672 0.03575,-0.106917 0.07285,-0.213187 0.111295,-0.31879 0.03844,-0.105602 0.07823,-0.210537 0.119332,-0.314782 0.0411,-0.104246 0.08352,-0.207803 0.12724,-0.31065 0.04372,-0.102847 0.08873,-0.204984 0.13502,-0.30639 0.04629,-0.101406 0.09385,-0.202082 0.142671,-0.302005 0.04882,-0.09992 0.09889,-0.199096 0.150195,-0.297495 0.0513,-0.0984 0.103841,-0.196026 0.157588,-0.292859 0.05375,-0.09683 0.108707,-0.192872 0.164855,-0.288097 0.05615,-0.09522 0.113486,-0.189635 0.171992,-0.283209 0.05851,-0.09357 0.11818,-0.186313 0.179001,-0.278196 0.06082,-0.09188 0.122788,-0.182908 0.185881,-0.273056 0.06309,-0.09015 0.127312,-0.17942 0.192634,-0.267792 0.06532,-0.08837 0.131748,-0.175847 0.199257,-0.262401 0.06751,-0.08655 0.1361,-0.17219 0.205752,-0.256885 0.06965,-0.08469 0.140366,-0.168449 0.212119,-0.251242 0.07175,-0.08279 0.144546,-0.164625 0.218357,-0.245475 0.07381,-0.08085 0.14864,-0.160717 0.224466,-0.239581 0.07583,-0.07886 0.152649,-0.156725 0.230448,-0.233562 0.0778,-0.07684 0.156572,-0.152649 0.2363,-0.227416 0.07973,-0.07477 0.16041,-0.14849 0.242025,-0.221146 0.03693,-0.03307 0.07405,-0.06592 0.111351,-0.09853 0.03731,-0.03261 0.0748,-0.06499 0.112482,-0.09714 0.03768,-0.03215 0.07555,-0.06406 0.113605,-0.09575 0.03805,-0.03168 0.07629,-0.06313 0.114714,-0.09434 0.03842,-0.03121 0.07703,-0.06219 0.115814,-0.09293 0.03879,-0.03074 0.07775,-0.06125 0.116903,-0.09151 0.03915,-0.03027 0.07848,-0.06029 0.117982,-0.09008 0.03951,-0.02979 0.07919,-0.05933 0.11905,-0.08864 0.03986,-0.02931 0.0799,-0.05837 0.120107,-0.08719 0.04021,-0.02882 0.0806,-0.0574 0.121153,-0.08574 0.04056,-0.02834 0.08129,-0.05643 0.12219,-0.08427 0.0409,-0.02784 0.08197,-0.05544 0.123214,-0.0828 0.04124,-0.02735 0.08265,-0.05446 0.124228,-0.08131 0.04158,-0.02686 0.08332,-0.05347 0.125232,-0.07982 0.04191,-0.02636 0.08399,-0.05247 0.126226,-0.07832 0.04224,-0.02586 0.08464,-0.05146 0.127208,-0.07681 0.04256,-0.02535 0.08529,-0.05045 0.12818,-0.07529 0.04289,-0.02484 0.08593,-0.04943 0.12914,-0.07377 0.04321,-0.02433 0.08657,-0.04841 0.130091,-0.07223 0.04352,-0.02382 0.0872,-0.04738 0.13103,-0.07068 0.04383,-0.0233 0.08782,-0.04635 0.131959,-0.06913 0.04414,-0.02278 0.08843,-0.04531 0.132877,-0.06757 0.04445,-0.02226 0.08904,-0.04426 0.133785,-0.066 0.04475,-0.02174 0.08964,-0.04321 0.134683,-0.06442 0.04504,-0.02121 0.09023,-0.04215 0.135568,-0.06283 0.04534,-0.02068 0.09082,-0.04109 0.136444,-0.06123 0.04563,-0.02014 0.0914,-0.04002 0.137309,-0.05962 0.04591,-0.01961 0.09197,-0.03894 0.138163,-0.05801 0.04619,-0.01906 0.09253,-0.03786 0.139006,-0.05638 0.04648,-0.01852 0.09309,-0.03677 0.139839,-0.05475 0.04675,-0.01798 0.09364,-0.03568 0.140661,-0.05311 0.04702,-0.01743 0.09418,-0.03458 0.141473,-0.05145 0.0401,-0.01422 0.0803,-0.02825 0.120575,-0.0421 0.04028,-0.01384 0.08065,-0.0275 0.121098,-0.04097 0.04045,-0.01347 0.08099,-0.02674 0.121617,-0.03983 0.04062,-0.01309 0.08133,-0.02598 0.12213,-0.03868 0.0408,-0.0127 0.08168,-0.0252 0.122639,-0.03751 0.04096,-0.01231 0.08201,-0.02442 0.123143,-0.03633 0.04113,-0.01191 0.08235,-0.02362 0.123644,-0.03513 0.0413,-0.01151 0.08268,-0.02282 0.124138,-0.03392 0.04146,-0.0111 0.08301,-0.022 0.12463,-0.0327 0.04162,-0.01069 0.08333,-0.02118 0.125115,-0.03146 0.04179,-0.01028 0.08365,-0.02035 0.125597,-0.03021 0.04195,-0.0099 0.08397,-0.01951 0.126074,-0.02894 0.0421,-0.0094 0.08429,-0.01866 0.126546,-0.02767 0.04226,-0.009 0.0846,-0.0178 0.127015,-0.02638 0.04241,-0.0086 0.08491,-0.01693 0.127477,-0.02507 0.04257,-0.0081 0.08522,-0.01606 0.127937,-0.02375 0.04272,-0.0077 0.08552,-0.01517 0.12839,-0.02242 0.04287,-0.0072 0.08582,-0.01427 0.12884,-0.02107 0.04302,-0.0068 0.08612,-0.01337 0.129285,-0.01971 0.04317,-0.0063 0.08641,-0.01245 0.129725,-0.01833 0.04331,-0.0059 0.0867,-0.01153 0.130161,-0.01695 0.04346,-0.0054 0.08699,-0.0106 0.130592,-0.01555 0.0436,-0.0049 0.08728,-0.0097 0.131019,-0.01413 0.04374,-0.0045 0.08756,-0.0087 0.131441,-0.0127 0.04388,-0.004 0.08784,-0.0077 0.131858,-0.01126 0.04402,-0.0035 0.08811,-0.0068 0.132272,-0.0098 0.04416,-0.003 0.08838,-0.0058 0.132679,-0.0083 0.0443,-0.0025 0.08866,-0.0048 0.133084,-0.0068 0.04443,-0.002 0.08892,-0.0038 0.133482,-0.0053 0.04456,-0.0015 0.08919,-0.0028 0.133877,-0.0038 0.04469,-0.001 0.08945,-0.0018 0.134267,-0.0023 0.04482,-5.16e-4 0.0897,-7.75e-4 0.134653,-7.75e-4 0.125313,0 0.250181,0.0019 0.374579,0.0057 0.124399,0.0038 0.248328,0.0094 0.371762,0.01692 0.123435,0.0075 0.246374,0.01684 0.368794,0.02801 0.12242,0.01116 0.24432,0.02415 0.365675,0.03893 0.121355,0.01478 0.242165,0.03135 0.362405,0.04968 0.120239,0.01834 0.239909,0.03844 0.358983,0.06028 0.119074,0.02184 0.237553,0.04542 0.355411,0.07072 0.117858,0.02529 0.235096,0.0523 0.351688,0.08099 0.116592,0.02869 0.232538,0.05907 0.347813,0.0911 0.115275,0.03204 0.229879,0.06573 0.343787,0.101054 0.113908,0.03533 0.22712,0.07228 0.339611,0.110843 0.112491,0.03856 0.22426,0.07873 0.335283,0.12047 0.111023,0.04174 0.221299,0.08506 0.330804,0.129935 0.109505,0.04487 0.218238,0.09129 0.326175,0.139239 0.107936,0.04794 0.215076,0.09741 0.321393,0.14838 0.106318,0.05097 0.211814,0.103429 0.316462,0.157361 0.104649,0.05393 0.20845,0.109334 0.311379,0.166179 0.102929,0.05685 0.204985,0.115132 0.306144,0.174836 0.101159,0.0597 0.201421,0.120822 0.30076,0.18333 0.09934,0.06251 0.197755,0.126405 0.295223,0.191664 0.09747,0.06526 0.193989,0.13188 0.289536,0.199835 0.09555,0.06796 0.190122,0.137247 0.283698,0.207845 0.09358,0.0706 0.186154,0.142505 0.277708,0.215693 0.09155,0.07319 0.182086,0.147656 0.271568,0.223379 0.08948,0.07572 0.177917,0.1527 0.265277,0.230904 0.08736,0.0782 0.173646,0.157635 0.258834,0.238266 0.08519,0.08063 0.169276,0.162463 0.25224,0.245468 0.08296,0.083 0.164804,0.167182 0.245495,0.252506 0.08069,0.08532 0.160233,0.171795 0.2386,0.259384 0.07837,0.08759 0.155559,0.176299 0.231552,0.2661 0.07599,0.0898 0.150787,0.180695 0.224355,0.272654 0.07357,0.09196 0.145912,0.184982 0.217006,0.279045 l 0.0034,-5.3e-5 0.0034,-5.4e-5 0.0034,-5.3e-5 0.0034,-5.3e-5 0.0034,-5.3e-5 0.0034,-5.3e-5 0.0034,-5.3e-5 0.0034,-5.3e-5 0.0034,-5.3e-5 0.0034,-5.3e-5 0.0034,-5.3e-5 0.0034,-5.3e-5 0.0034,-5.3e-5 0.0034,-5.4e-5 0.0034,-5.3e-5 0.0034,-5.3e-5 0.0034,-5.3e-5 0.0034,-5.4e-5 0.0034,-5.3e-5 0.0034,-5.3e-5 0.0034,-5.3e-5 0.0034,-5.3e-5 0.0034,-5.3e-5 0.0034,-5.3e-5 0.0034,-5.3e-5 0.0034,-5.3e-5 0.0034,-5.3e-5 0.0034,-5.3e-5 0.0034,-5.3e-5 0.0034,-5.4e-5 0.0034,-5.3e-5 0.0034,-5.3e-5 c -0.0825,-0.155103 -0.167241,-0.308776 -0.254179,-0.460973 -0.08694,-0.152197 -0.176073,-0.302918 -0.26736,-0.452119 -0.09129,-0.149201 -0.184727,-0.296882 -0.280275,-0.442997 -0.09555,-0.146115 -0.193203,-0.290665 -0.292922,-0.433604 -0.09972,-0.14294 -0.201502,-0.284269 -0.305304,-0.423943 -0.103802,-0.139674 -0.209624,-0.277693 -0.31742,-0.414011 -0.107796,-0.136319 -0.217567,-0.270937 -0.329268,-0.403811 -0.111701,-0.132873 -0.225332,-0.264002 -0.34085,-0.39334 -0.115518,-0.129339 -0.232921,-0.256887 -0.352166,-0.382601 -0.119246,-0.125714 -0.240332,-0.249593 -0.363216,-0.371592 -0.122884,-0.121999 -0.247566,-0.242119 -0.373999,-0.360314 -0.126434,-0.118194 -0.254621,-0.234465 -0.384516,-0.348765 -0.129895,-0.114301 -0.261498,-0.226631 -0.394766,-0.336948 -0.133267,-0.110316 -0.268198,-0.218618 -0.404749,-0.324861 -0.136551,-0.106242 -0.274722,-0.210426 -0.414467,-0.312504 -0.139746,-0.102079 -0.281066,-0.202054 -0.423918,-0.299879 -0.142853,-0.09783 -0.287236,-0.193503 -0.433105,-0.286985 -0.145869,-0.09348 -0.293225,-0.184771 -0.442022,-0.27382 -0.148797,-0.08905 -0.299036,-0.175858 -0.450673,-0.260384 -0.151637,-0.08453 -0.304671,-0.166768 -0.459058,-0.246681 -0.154387,-0.07991 -0.310127,-0.157497 -0.467176,-0.232707 -0.157049,-0.07521 -0.315407,-0.148046 -0.475029,-0.218463 -0.159623,-0.07042 -0.320509,-0.138417 -0.482615,-0.203952 -0.162107,-0.06553 -0.325433,-0.128607 -0.489935,-0.18917 -0.164502,-0.06056 -0.330179,-0.118618 -0.496988,-0.174119 -0.166809,-0.0555 -0.334748,-0.108449 -0.503775,-0.158798 -0.169026,-0.05035 -0.33914,-0.0981 -0.510295,-0.143208 -0.171156,-0.04511 -0.343354,-0.08757 -0.51655,-0.127348 -0.173196,-0.03978 -0.347389,-0.07686 -0.522537,-0.111219 -0.175147,-0.03436 -0.351248,-0.06598 -0.528258,-0.09482 -0.177009,-0.02884 -0.354928,-0.05491 -0.533712,-0.07815 -0.178784,-0.02324 -0.358432,-0.04366 -0.538901,-0.06121 0.06714,-0.239115 0.138906,-0.476241 0.215207,-0.711268 0.0763,-0.235028 0.157132,-0.467957 0.242387,-0.698679 0.08526,-0.230722 0.174935,-0.459237 0.268934,-0.685435 0.094,-0.226198 0.192317,-0.45008 0.294849,-0.671536 0.102532,-0.221456 0.209277,-0.440486 0.320131,-0.656981 0.110853,-0.216495 0.225815,-0.430455 0.344779,-0.641772 0.118965,-0.211316 0.241932,-0.419988 0.368797,-0.625906 0.126865,-0.205919 0.257627,-0.409084 0.392181,-0.609387 0.134554,-0.200303 0.2729,-0.397743 0.414932,-0.592211 0.142033,-0.194469 0.287752,-0.385966 0.437052,-0.574381 0.1493,-0.188416 0.302181,-0.373751 0.458537,-0.555896 0.156357,-0.182144 0.316189,-0.361099 0.479391,-0.536754 0.163202,-0.175655 0.329775,-0.348011 0.499612,-0.516958 0.169837,-0.168947 0.342939,-0.334486 0.5192,-0.496507 0.176261,-0.162021 0.355682,-0.320524 0.538156,-0.4754 0.182475,-0.154876 0.368003,-0.306125 0.55648,-0.453638 0.188477,-0.147513 0.379902,-0.29129 0.57417,-0.431221 0.194267,-0.139931 0.391378,-0.276018 0.591227,-0.408149 0.199848,-0.132132 0.402434,-0.260309 0.607652,-0.384422 0.205218,-0.124113 0.413068,-0.244163 0.623445,-0.360039 0.210377,-0.115877 0.42328,-0.22758 0.638605,-0.335001 0.215325,-0.107422 0.43307,-0.210561 0.653132,-0.309308 0.220062,-0.09875 0.442439,-0.193105 0.667027,-0.28296 0.224588,-0.08986 0.451386,-0.175212 0.680289,-0.255957 0.228903,-0.08075 0.459911,-0.156881 0.692918,-0.228298 0.233008,-0.07142 0.468014,-0.138114 0.704915,-0.199984 0.236901,-0.06187 0.475696,-0.118911 0.716279,-0.171015 0.240584,-0.0521 0.482956,-0.09927 0.727011,-0.14139 0.244055,-0.04212 0.489794,-0.07919 0.73711,-0.111111 0.247316,-0.03192 0.49621,-0.05868 0.746576,-0.08018 0.250366,-0.0215 0.502204,-0.03773 0.755409,-0.04859 0.253205,-0.01086 0.507777,-0.01634 0.76361,-0.01634 0.02724,0 0.05446,8.1e-5 0.08165,2.45e-4 0.0272,1.64e-4 0.05438,4.11e-4 0.08153,7.42e-4 0.02716,3.32e-4 0.05429,7.47e-4 0.08141,0.0012 0.02712,5.01e-4 0.05421,0.0011 0.08129,0.0018 0.02707,6.75e-4 0.05413,0.0014 0.08117,0.0022 0.02704,8.14e-4 0.05405,0.0017 0.08105,0.0027 0.027,9.57e-4 0.05398,0.002 0.08094,0.0031 0.02696,0.0011 0.0539,0.0023 0.08083,0.0035 0.02692,0.0013 0.05383,0.0026 0.08072,0.004 0.02689,0.0014 0.05376,0.0029 0.08061,0.0044 0.02685,0.0015 0.05369,0.0032 0.0805,0.0048 0.02682,0.0017 0.05362,0.0034 0.0804,0.0052 0.02678,0.0018 0.05355,0.0037 0.0803,0.0056 0.02675,0.0019 0.05348,0.0039 0.0802,0.006 0.02672,0.0021 0.05342,0.0042 0.0801,0.0064 0.02669,0.0022 0.05335,0.0045 0.08001,0.0068 0.02665,0.0023 0.05329,0.0047 0.07992,0.0071 0.02662,0.0024 0.05323,0.0049 0.07982,0.0075 0.02659,0.0026 0.05317,0.0052 0.07973,0.0078 0.02656,0.0027 0.05311,0.0054 0.07965,0.0082 0.02654,0.0028 0.05306,0.0056 0.07957,0.0085 0.02651,0.0029 0.053,0.0058 0.07948,0.0088 0.02648,0.003 0.05295,0.006 0.0794,0.0091 0.02645,0.0031 0.0529,0.0062 0.07932,0.0094 0.02643,0.0032 0.05285,0.0064 0.07925,0.0097 0.0264,0.0033 0.0528,0.0066 0.07918,0.01 0.02638,0.0034 0.05275,0.0068 0.0791,0.01024 0.02636,0.0035 0.0527,0.007 0.07904,0.0105 0.02633,0.0035 0.05266,0.0071 0.07897,0.01075 0.02631,0.0036 0.05261,0.0073 0.0789,0.011 0.02629,0.0037 0.05257,0.0074 0.07884,0.01123 0.02627,0.0038 0.05253,0.0076 0.07878,0.01145 0.05198,0.0076 0.103882,0.01542 0.155707,0.02346 0.05183,0.008 0.103574,0.0163 0.155244,0.02477 0.05167,0.0085 0.103262,0.01717 0.154775,0.02608 0.05151,0.0089 0.102948,0.01803 0.154303,0.02737 0.05135,0.0093 0.10263,0.0189 0.153825,0.02867 0.05119,0.0098 0.10231,0.01976 0.153344,0.02997 0.05103,0.0102 0.101987,0.02062 0.152858,0.03125 0.05087,0.01063 0.10166,0.02148 0.152366,0.03254 0.05071,0.01106 0.10133,0.02233 0.151871,0.03382 0.05054,0.01149 0.100997,0.02319 0.15137,0.03511 0.05037,0.01192 0.100662,0.02404 0.150866,0.03639 0.0502,0.01234 0.100323,0.0249 0.150356,0.03766 0.05003,0.01277 0.09998,0.02574 0.149842,0.03893 0.04986,0.01319 0.09964,0.02659 0.149323,0.0402 0.04969,0.01361 0.09929,0.02743 0.148802,0.04147 0.04951,0.01403 0.09894,0.02828 0.148273,0.04273 0.04934,0.01445 0.09858,0.02912 0.147741,0.04399 0.04916,0.01487 0.09823,0.02995 0.147204,0.04525 0.04898,0.01529 0.09787,0.03079 0.146662,0.0465 0.0488,0.01571 0.0975,0.03162 0.146117,0.04775 0.04861,0.01612 0.09714,0.03246 0.145567,0.049 0.04843,0.01654 0.09677,0.03329 0.145011,0.05024 0.04824,0.01696 0.09639,0.03412 0.144451,0.05148 0.04806,0.01737 0.09602,0.03494 0.143887,0.05272 0.04787,0.01778 0.09564,0.03577 0.143318,0.05396 0.04768,0.01819 0.09526,0.03659 0.142745,0.05519 0.04749,0.0186 0.09488,0.03741 0.142167,0.05642 0.04729,0.01901 0.09449,0.03823 0.141585,0.05765 0.0471,0.01942 0.0941,0.03904 0.140998,0.05887 0.0469,0.01983 0.0937,0.03986 0.140405,0.06009 0.0467,0.02023 0.09331,0.04067 0.139809,0.0613 0.0465,0.02064 0.09291,0.04148 0.139208,0.06252 0.172448,0.07859 0.343443,0.159875 0.512933,0.243791 0.169491,0.08392 0.337478,0.170466 0.503911,0.2596 0.166433,0.08913 0.331312,0.18085 0.494587,0.275097 0.163275,0.09425 0.324946,0.191025 0.484962,0.290281 0.160016,0.09926 0.318378,0.200991 0.475035,0.305152 0.156657,0.10416 0.31161,0.210748 0.464807,0.319709 0.153198,0.108961 0.30464,0.220297 0.454277,0.333954 0.149638,0.113657 0.29747,0.229636 0.443446,0.347885 0.145977,0.118249 0.290098,0.238767 0.432313,0.361503 0.142215,0.122736 0.282525,0.24769 0.420879,0.374808 0.138353,0.127119 0.274751,0.256403 0.409143,0.3878 0.134391,0.131397 0.266776,0.264908 0.397105,0.400479 0.130329,0.135571 0.258601,0.273203 0.384767,0.412844 0.126165,0.139641 0.250224,0.281291 0.372126,0.424897 0.121902,0.143607 0.241647,0.28917 0.359184,0.436637 0.117538,0.147467 0.232868,0.296839 0.345941,0.448063 0.113073,0.151224 0.223888,0.3043 0.332396,0.459176 0.108507,0.154877 0.214707,0.311553 0.318549,0.469977 0.103842,0.158424 0.205326,0.318596 0.304402,0.480463 0.09908,0.161868 0.195744,0.325431 0.289953,0.490638 0.09421,0.165207 0.18596,0.332057 0.275202,0.500498 0.08924,0.168442 0.175974,0.338474 0.260148,0.510046 0.08417,0.171572 0.165789,0.344683 0.244795,0.519281 0.07901,0.174598 0.155402,0.350683 0.229139,0.528202 0.07374,0.17752 0.144815,0.356474 0.213182,0.536811 0.06837,0.180336 0.134026,0.362056 0.196924,0.545105 0.0629,0.18305 0.123036,0.36743 0.180363,0.553088 0.05733,0.185658 0.111845,0.372595 0.163502,0.560757 0.05166,0.188163 0.100453,0.377551 0.146339,0.568113 0.04588,0.190563 0.08886,0.382299 0.128874,0.575157 0.04001,0.192857 0.07707,0.386837 0.111108,0.581885 0.03404,0.195049 0.06507,0.391168 0.09304,0.588303 0,-0.0011 3e-6,-0.0022 10e-6,-0.0033 6e-6,-0.0011 1.5e-5,-0.0022 2.7e-5,-0.0033 1.2e-5,-0.0011 2.7e-5,-0.0022 4.5e-5,-0.0034 1.7e-5,-0.0011 3.7e-5,-0.0023 6e-5,-0.0034 2.2e-5,-0.0011 4.7e-5,-0.0023 7.5e-5,-0.0034 2.7e-5,-0.0011 5.6e-5,-0.0023 8.8e-5,-0.0034 3.1e-5,-0.0011 6.4e-5,-0.0023 1e-4,-0.0034 3.5e-5,-0.0011 7.2e-5,-0.0023 1.11e-4,-0.0034 3.9e-5,-0.0012 8e-5,-0.0023 1.21e-4,-0.0035 4.2e-5,-0.0012 8.5e-5,-0.0023 1.29e-4,-0.0035 4.4e-5,-0.0012 8.9e-5,-0.0023 1.34e-4,-0.0035 4.6e-5,-0.0012 9.3e-5,-0.0023 1.41e-4,-0.0035 l 1.44e-4,-0.0034 1.44e-4,-0.0034 1.43e-4,-0.0034 1.44e-4,-0.0034 1.47e-4,-0.0034 1.48e-4,-0.0034 1.47e-4,-0.0034 1.47e-4,-0.0034 c 4.9e-5,-0.0011 9.6e-5,-0.0022 1.42e-4,-0.0034 4.6e-5,-0.0011 9.1e-5,-0.0022 1.35e-4,-0.0033 4.3e-5,-0.0011 8.4e-5,-0.0022 1.24e-4,-0.0033 3.9e-5,-0.0011 7.6e-5,-0.0022 1.1e-4,-0.0033 3.4e-5,-0.0011 6.8e-5,-0.0022 1.01e-4,-0.0033 3.2e-5,-0.0011 6.4e-5,-0.0022 9.5e-5,-0.0032 3.1e-5,-0.0011 6e-5,-0.0021 8.8e-5,-0.0032 2.7e-5,-0.0011 5.3e-5,-0.0021 7.7e-5,-0.0032 2.3e-5,-0.001 4.5e-5,-0.0021 6.4e-5,-0.0031 1.9e-5,-0.001 3.5e-5,-0.0021 4.9e-5,-0.0031 1.3e-5,-0.001 2.4e-5,-0.002 3.1e-5,-0.003 7e-6,-0.001 1.1e-5,-0.002 1.1e-5,-0.003 0,-0.224635 -0.0035,-0.448425 -0.01052,-0.671313 -0.007,-0.222889 -0.01747,-0.444878 -0.03135,-0.665912 -0.01389,-0.221034 -0.03119,-0.441115 -0.05186,-0.660186 -0.02067,-0.219072 -0.04471,-0.437136 -0.07205,-0.654138 -0.02734,-0.217002 -0.058,-0.432942 -0.09192,-0.647766 -0.03391,-0.214824 -0.07109,-0.428533 -0.111464,-0.641071 -0.04038,-0.212538 -0.08396,-0.423907 -0.130689,-0.634051 -0.04673,-0.210145 -0.09661,-0.419066 -0.149592,-0.626709 -0.05298,-0.207643 -0.109054,-0.414009 -0.168173,-0.619043 -0.05912,-0.205034 -0.121281,-0.408736 -0.186433,-0.611053 -0.06515,-0.202317 -0.133294,-0.403248 -0.204372,-0.60274 -0.07108,-0.199492 -0.145092,-0.397545 -0.221989,-0.594104 -0.0769,-0.196559 -0.156677,-0.391625 -0.239285,-0.585144 -0.08261,-0.193518 -0.168047,-0.38549 -0.256261,-0.57586 -0.08821,-0.190371 -0.179202,-0.37914 -0.272913,-0.566254 -0.09371,-0.187114 -0.190144,-0.372573 -0.289246,-0.556323 -0.0991,-0.18375 -0.200871,-0.365791 -0.305256,-0.546069 -0.104385,-0.180278 -0.211385,-0.358793 -0.320946,-0.535492 -0.109562,-0.176698 -0.221684,-0.35158 -0.336314,-0.524591 -0.114631,-0.17301 -0.231769,-0.34415 -0.351361,-0.513366 -0.119592,-0.169215 -0.241639,-0.336506 -0.366086,-0.501818 -0.124447,-0.165312 -0.251295,-0.328646 -0.38049,-0.489947 -0.129195,-0.161302 -0.260737,-0.32057 -0.394572,-0.477753 -0.133836,-0.157182 -0.269965,-0.312278 -0.408334,-0.465234 -0.138369,-0.152956 -0.278978,-0.303771 -0.421774,-0.452393 -0.142795,-0.148621 -0.287777,-0.295048 -0.434892,-0.439227 -0.147115,-0.144179 -0.296363,-0.286109 -0.44769,-0.425738 -0.151327,-0.139629 -0.304734,-0.276955 -0.460166,-0.411926 -0.155432,-0.134971 -0.31289,-0.267585 -0.47232,-0.39779 -0.15943,-0.130205 -0.320832,-0.258 -0.484153,-0.383332 -0.163321,-0.125331 -0.328561,-0.248198 -0.495665,-0.368548 -0.167105,-0.12035 -0.336075,-0.238182 -0.506856,-0.353442 0.09724,-0.178906 0.197277,-0.356014 0.300052,-0.531261 0.102775,-0.175247 0.208288,-0.348633 0.316479,-0.520096 0.10819,-0.171463 0.219058,-0.341003 0.332544,-0.508557 0.113485,-0.167555 0.229589,-0.333124 0.348249,-0.496645 0.118661,-0.163521 0.239879,-0.324995 0.363594,-0.484359 0.123715,-0.159363 0.249927,-0.316617 0.378577,-0.471698 0.128649,-0.155082 0.259736,-0.307991 0.393199,-0.458665 0.133464,-0.150674 0.269305,-0.299113 0.407462,-0.445256 0.138158,-0.146143 0.278632,-0.289988 0.421363,-0.431474 0.142731,-0.141487 0.287719,-0.280614 0.434904,-0.417319 0.147185,-0.136706 0.296566,-0.27099 0.448084,-0.40279 0.151518,-0.1318 0.305172,-0.261116 0.460903,-0.387886 0.155731,-0.12677 0.313538,-0.250994 0.473361,-0.372609 0.159824,-0.121616 0.321664,-0.240623 0.48546,-0.356959 0.163796,-0.116336 0.329548,-0.230001 0.497196,-0.340933 0.167648,-0.110932 0.337193,-0.219131 0.508573,-0.324535 0.17138,-0.105404 0.344597,-0.208012 0.519589,-0.307762 0.174992,-0.09975 0.351759,-0.196644 0.530243,-0.290617 0.178483,-0.09397 0.358683,-0.185025 0.540537,-0.273096 0.181855,-0.08807 0.365365,-0.173158 0.550471,-0.255202 0.185106,-0.08204 0.371807,-0.161042 0.560043,-0.236934 0.188237,-0.07589 0.378009,-0.148677 0.569256,-0.218292 0.191247,-0.06962 0.38397,-0.136062 0.578107,-0.199277 0.194138,-0.06321 0.389691,-0.123198 0.586598,-0.179888 0.196908,-0.05669 0.39517,-0.110085 0.594727,-0.160125 0.199558,-0.05004 0.40041,-0.09672 0.602497,-0.139987 0.202087,-0.04326 0.405409,-0.08311 0.609905,-0.119477 0.204497,-0.03636 0.410168,-0.06925 0.616953,-0.09859 0.206785,-0.02934 0.414685,-0.05514 0.62364,-0.07733 0.208954,-0.02219 0.418963,-0.04078 0.629966,-0.0557 0.211003,-0.01492 0.423,-0.02617 0.635932,-0.0337 0.212931,-0.0075 0.426797,-0.01131 0.641536,-0.01131 0.31474,0 0.627615,0.0081 0.938437,0.02424 0.310821,0.0161 0.619588,0.04014 0.92611,0.07195 0.306522,0.0318 0.610798,0.07136 0.912638,0.118483 0.30184,0.04712 0.601244,0.101801 0.89802,0.163847 0.296777,0.06205 0.590926,0.131457 0.882258,0.208039 0.291331,0.07658 0.579844,0.160332 0.865349,0.251059 0.285504,0.09073 0.567999,0.188427 0.847295,0.292908 0.279295,0.104481 0.555391,0.215742 0.828096,0.333587 0.272705,0.117845 0.542019,0.242275 0.807752,0.373094 0.265733,0.130819 0.527884,0.268027 0.786263,0.411429 0.258378,0.143402 0.512985,0.292998 0.763627,0.448593 0.250643,0.155595 0.497323,0.317189 0.739848,0.484586 0.242525,0.167398 0.480896,0.340599 0.714922,0.519408 0.234026,0.178809 0.463707,0.363227 0.688851,0.553058 0.225145,0.189831 0.445754,0.385076 0.661635,0.585538 0.215882,0.200462 0.427037,0.406143 0.633274,0.616846 0.206237,0.210703 0.407556,0.426429 0.603766,0.646982 0.196211,0.220554 0.387313,0.445935 0.573115,0.675948 0.185802,0.230014 0.366305,0.46466 0.541317,0.703743 0.175012,0.239083 0.344534,0.482603 0.508374,0.730365 0.16384,0.247762 0.321999,0.499766 0.474286,0.755817 0.152287,0.256051 0.298701,0.516148 0.439052,0.780097 0.140352,0.263949 0.27464,0.531749 0.402674,0.803206 0.128035,0.271457 0.249815,0.54657 0.36515,0.825144 0.115335,0.278574 0.224226,0.56061 0.32648,0.845911 0.102255,0.285301 0.197874,0.573868 0.286666,0.865506 0.08879,0.291638 0.170757,0.586346 0.245705,0.88393 0.07495,0.297584 0.142878,0.598044 0.2036,0.901183 0.06072,0.30314 0.114235,0.60896 0.160349,0.917265 0.04611,0.308305 0.08483,0.619095 0.115954,0.932174 0.03112,0.31308 0.05466,0.62845 0.07041,0.945914 0.01575,0.317465 0.02372,0.637024 0.02372,0.958482 0,0.01568 -3.3e-5,0.03134 -9.7e-5,0.04699 -6.5e-5,0.01565 -1.61e-4,0.03128 -2.87e-4,0.0469 -1.27e-4,0.01562 -2.84e-4,0.03123 -4.7e-4,0.04682 -1.87e-4,0.01559 -4.02e-4,0.03117 -6.46e-4,0.04674 -2.44e-4,0.01557 -5.16e-4,0.03112 -8.16e-4,0.04667 -3e-4,0.01554 -6.29e-4,0.03108 -9.87e-4,0.04659 -3.58e-4,0.01552 -7.45e-4,0.03103 -0.0012,0.04653 -4.16e-4,0.0155 -8.61e-4,0.03098 -0.0013,0.04646 -4.75e-4,0.01547 -9.69e-4,0.03094 -0.0015,0.04639 -5.16e-4,0.01545 -0.0011,0.0309 -0.0016,0.04633 -5.62e-4,0.01544 -0.0012,0.03086 -0.0018,0.04628 -6.15e-4,0.01542 -0.0013,0.03082 -0.0019,0.04622 -6.75e-4,0.0154 -0.0014,0.03079 -0.0021,0.04617 -7.04e-4,0.01538 -0.0014,0.03076 -0.0022,0.04612 -7.37e-4,0.01537 -0.0015,0.03073 -0.0023,0.04608 -7.78e-4,0.01535 -0.0016,0.0307 -0.0024,0.04604 -8.25e-4,0.01534 -0.0017,0.03067 -0.0025,0.04599 -8.61e-4,0.01533 -0.0017,0.03065 -0.0026,0.04596 -8.92e-4,0.01532 -0.0018,0.03062 -0.0027,0.04593 -9.2e-4,0.0153 -0.0019,0.0306 -0.0028,0.0459 -9.45e-4,0.0153 -0.0019,0.03059 -0.0029,0.04587 -9.84e-4,0.01529 -0.002,0.03057 -0.003,0.04585 -0.001,0.01528 -0.002,0.03055 -0.0031,0.04583 -0.001,0.01527 -0.0021,0.03054 -0.0032,0.04581 -0.0011,0.01527 -0.0021,0.03053 -0.0032,0.0458 -0.0011,0.01526 -0.0022,0.03052 -0.0033,0.04578 -0.0011,0.01526 -0.0022,0.03052 -0.0034,0.04577 -0.0011,0.01526 -0.0023,0.03051 -0.0034,0.04577 -0.0011,0.01526 -0.0023,0.03051 -0.0035,0.04577 -0.0012,0.01526 -0.0023,0.03051 -0.0035,0.04577 -0.0012,0.01526 -0.0024,0.03051 -0.0035,0.04577 -0.0012,0.01526 -0.0024,0.03052 -0.0036,0.04578 -0.131717,0.01026 -0.263061,0.02188 -0.394016,0.03484 -0.130956,0.01296 -0.261524,0.02727 -0.391691,0.0429 -0.130167,0.01564 -0.259933,0.0326 -0.389285,0.05089 -0.129352,0.01828 -0.258289,0.03788 -0.386799,0.05879 -0.12851,0.0209 -0.256592,0.04311 -0.384233,0.06661 -0.127641,0.0235 -0.254842,0.04828 -0.381588,0.07435 -0.126746,0.02606 -0.253038,0.0534 -0.378862,0.082 -0.125825,0.0286 -0.251181,0.05847 -0.376057,0.08958 -0.124876,0.03111 -0.24927,0.06348 -0.373171,0.09707 -0.1239,0.0336 -0.247307,0.06843 -0.370205,0.104488 -0.122899,0.03606 -0.24529,0.07333 -0.36716,0.11182 -0.12187,0.03849 -0.243219,0.07818 -0.364034,0.119073 -0.120815,0.04089 -0.241096,0.08298 -0.360829,0.126243 -0.119733,0.04327 -0.238919,0.08772 -0.357543,0.133331 -0.118625,0.04562 -0.236689,0.0924 -0.354178,0.14034 -0.11749,0.04794 -0.234405,0.09703 -0.350733,0.147267 -0.116328,0.05024 -0.232068,0.10161 -0.347207,0.154113 -0.11514,0.0525 -0.229678,0.106133 -0.343603,0.160877 -0.113924,0.05474 -0.227234,0.110601 -0.339917,0.16756 -0.112683,0.05696 -0.224738,0.115017 -0.336152,0.174162 -0.111414,0.05915 -0.222188,0.119378 -0.332307,0.180683 -0.110119,0.06131 -0.219584,0.123685 -0.328381,0.187124 -0.108798,0.06344 -0.216928,0.127937 -0.324377,0.193482 -0.107449,0.06554 -0.214218,0.132135 -0.320292,0.199759 -0.106074,0.06762 -0.211454,0.13628 -0.316127,0.205956 -0.104672,0.06967 -0.208637,0.14037 -0.311882,0.212071 -0.103244,0.0717 -0.205767,0.144406 -0.307556,0.218104 -0.101789,0.0737 -0.202844,0.148389 -0.303152,0.224058 -0.100308,0.07567 -0.199868,0.152317 -0.298667,0.229929 -0.0988,0.07761 -0.196838,0.156191 -0.294102,0.23572 -0.09726,0.07953 -0.193755,0.16001 -0.289458,0.241428 -0.0957,0.08142 -0.190618,0.163776 -0.284733,0.247057 0.0701,-0.04104 0.140544,-0.08155 0.211314,-0.121507 0.07077,-0.03996 0.14187,-0.07938 0.213296,-0.118246 0.07143,-0.03887 0.143177,-0.07718 0.21525,-0.114944 0.07207,-0.03776 0.144465,-0.07496 0.217174,-0.111605 0.07271,-0.03664 0.145735,-0.07272 0.219071,-0.108226 0.07334,-0.03551 0.146984,-0.07045 0.220937,-0.104808 0.07395,-0.03436 0.148214,-0.06815 0.222775,-0.101351 0.07456,-0.0332 0.149425,-0.06582 0.224584,-0.09786 0.07516,-0.03203 0.150616,-0.06347 0.226364,-0.09432 0.07575,-0.03085 0.151787,-0.0611 0.228114,-0.09075 0.07633,-0.02965 0.15294,-0.0587 0.229836,-0.08713 0.0769,-0.02844 0.154074,-0.05627 0.231529,-0.08348 0.07746,-0.02721 0.155188,-0.05381 0.233193,-0.07979 0.07801,-0.02598 0.156283,-0.05133 0.234828,-0.07606 0.07855,-0.02473 0.157358,-0.04883 0.236433,-0.07229 0.07908,-0.02346 0.158415,-0.04629 0.238011,-0.06848 0.0796,-0.02219 0.159451,-0.04373 0.239558,-0.06463 0.08011,-0.0209 0.160468,-0.04115 0.241077,-0.06075 0.08061,-0.0196 0.161466,-0.03854 0.242566,-0.05682 0.0811,-0.01828 0.162445,-0.0359 0.244028,-0.05286 0.08158,-0.01695 0.163404,-0.03324 0.24546,-0.04885 0.08205,-0.01561 0.164344,-0.03055 0.246863,-0.04481 0.08252,-0.01426 0.165265,-0.02784 0.248236,-0.04073 0.08297,-0.01289 0.166167,-0.0251 0.249581,-0.03661 0.08342,-0.01151 0.167049,-0.02233 0.250897,-0.03244 0.08385,-0.01012 0.167912,-0.01954 0.252185,-0.02825 0.08427,-0.0087 0.168755,-0.01672 0.253442,-0.02401 0.08469,-0.0073 0.169579,-0.01387 0.254671,-0.01973 0.08509,-0.0059 0.170384,-0.011 0.255871,-0.01541 0.08549,-0.0044 0.17117,-0.0081 0.257042,-0.01106 0.08587,-0.003 0.171936,-0.0052 0.258184,-0.0067 0.08625,-0.0015 0.172683,-0.0022 0.259297,-0.0022 0.03203,0 0.06404,10e-5 0.09602,3.02e-4 0.03198,2.01e-4 0.06394,5.04e-4 0.09587,9.11e-4 0.03193,4.06e-4 0.06384,9.15e-4 0.09573,0.0015 0.03188,6.14e-4 0.06374,0.0013 0.09557,0.0022 0.03183,8.25e-4 0.06364,0.0017 0.09543,0.0028 0.03178,0.001 0.06354,0.0021 0.09527,0.0033 0.03173,0.0012 0.06344,0.0025 0.09512,0.0039 0.03168,0.0014 0.06334,0.0029 0.09497,0.0046 0.03163,0.0016 0.06324,0.0033 0.09482,0.0052 0.03158,0.0018 0.06313,0.0037 0.09466,0.0057 0.03153,0.002 0.06303,0.0041 0.0945,0.0063 0.03148,0.0022 0.06293,0.0045 0.09435,0.0069 0.03142,0.0024 0.06282,0.0049 0.09419,0.0075 0.03137,0.0026 0.06271,0.0053 0.09403,0.0081 0.03132,0.0028 0.06261,0.0057 0.09387,0.0087 0.03127,0.003 0.0625,0.0061 0.09371,0.0093 0.03121,0.0032 0.06239,0.0065 0.09355,0.0099 0.03116,0.0034 0.06229,0.0069 0.09339,0.01044 0.0311,0.0036 0.06218,0.0072 0.09323,0.01102 0.03105,0.0038 0.06207,0.0076 0.09306,0.01159 0.03099,0.004 0.06196,0.008 0.0929,0.01217 0.03094,0.0041 0.06185,0.0084 0.09273,0.01273 0.03088,0.0043 0.06174,0.0088 0.09256,0.0133 0.03083,0.0045 0.06163,0.0091 0.0924,0.01386 0.03077,0.0047 0.06151,0.0095 0.09223,0.01443 0.03072,0.0049 0.0614,0.0099 0.09206,0.01499 0.03066,0.0051 0.06129,0.01028 0.09189,0.01555 0.0306,0.0053 0.06117,0.01065 0.09172,0.01611 0.03054,0.0055 0.06106,0.01102 0.09155,0.01667 0.03049,0.0056 0.06094,0.01139 0.09137,0.01722 0.03043,0.0058 0.06083,0.01176 0.0912,0.01777 0.03037,0.006 0.06071,0.01212 0.09103,0.01832 0.05167,0.01047 0.103235,0.02121 0.154706,0.03222 0.05147,0.01101 0.102841,0.02229 0.154113,0.03384 0.05127,0.01155 0.102443,0.02337 0.153513,0.03545 0.05107,0.01208 0.102039,0.02444 0.152906,0.03705 0.05087,0.01261 0.101631,0.02549 0.152292,0.03864 0.05066,0.01314 0.101218,0.02655 0.151671,0.04021 0.05045,0.01367 0.1008,0.02759 0.151042,0.04178 0.05024,0.01419 0.100379,0.02863 0.150408,0.04334 0.05003,0.0147 0.09995,0.02967 0.149766,0.04488 0.04981,0.01522 0.09952,0.03069 0.149117,0.04642 0.0496,0.01573 0.09908,0.03171 0.14846,0.04794 0.04938,0.01623 0.09864,0.03272 0.147797,0.04946 0.04915,0.01674 0.0982,0.03372 0.147127,0.05096 0.04893,0.01723 0.09775,0.03472 0.14645,0.05245 0.0487,0.01773 0.09729,0.03571 0.145766,0.05393 0.04847,0.01822 0.09683,0.03669 0.145074,0.0554 0.04824,0.01871 0.09637,0.03767 0.144376,0.05686 0.04801,0.0192 0.0959,0.03863 0.143671,0.05831 0.04777,0.01968 0.09543,0.03959 0.142959,0.05975 0.04753,0.02016 0.09495,0.04055 0.14224,0.06118 0.04729,0.02063 0.09446,0.04149 0.141514,0.06259 0.04705,0.0211 0.09398,0.04243 0.140779,0.064 0.0468,0.02157 0.09348,0.04337 0.140039,0.0654 0.04656,0.02203 0.09299,0.04429 0.139292,0.06678 0.0463,0.02249 0.09248,0.04521 0.138537,0.06816 0.04605,0.02295 0.09198,0.04612 0.137777,0.06952 0.0458,0.0234 0.09147,0.04702 0.137008,0.07087 0.04554,0.02385 0.09095,0.04792 0.136232,0.07222 0.04528,0.0243 0.09043,0.04881 0.13545,0.07355 0.04502,0.02474 0.08991,0.04969 0.134661,0.07487 0.04475,0.02518 0.08938,0.05057 0.133864,0.07618 0.04449,0.02561 0.08884,0.05144 0.13306,0.07748 0.143229,0.08432 0.285002,0.170931 0.425269,0.259776 0.140267,0.08884 0.279028,0.179926 0.416235,0.273195 0.137207,0.09327 0.27286,0.188727 0.406909,0.286324 0.13405,0.0976 0.266496,0.197334 0.39729,0.299162 0.130794,0.101828 0.259937,0.205747 0.387378,0.311708 0.127442,0.105962 0.253182,0.213966 0.377173,0.323964 0.123991,0.109998 0.246232,0.22199 0.366675,0.335927 0.120442,0.113938 0.239086,0.229821 0.355883,0.347601 0.116797,0.11778 0.231746,0.237457 0.3448,0.358982 0.113053,0.121526 0.22421,0.244899 0.333423,0.370073 0.109212,0.125174 0.216479,0.252147 0.321753,0.380872 0.105273,0.128725 0.208553,0.259202 0.30979,0.391381 0.101237,0.132179 0.200432,0.266062 0.297534,0.401598 0.0971,0.135537 0.192115,0.272728 0.284986,0.411525 0.09287,0.138796 0.183602,0.279199 0.272143,0.421159 0.08854,0.14196 0.174895,0.285477 0.259009,0.430503 0.08411,0.145026 0.165991,0.291561 0.245581,0.439556 0.07959,0.147995 0.156893,0.297451 0.231861,0.448318 0.07497,0.150867 0.147599,0.303146 0.217846,0.456788 0.07025,0.153642 0.138111,0.308647 0.20354,0.464967 0.06543,0.15632 0.128426,0.313955 0.18894,0.472856 0.06051,0.158901 0.118547,0.319068 0.174048,0.480452 0.0555,0.161385 0.108472,0.323987 0.158862,0.487759 0.05039,0.163771 0.0982,0.328712 0.143384,0.494773 0.04518,0.166061 0.08774,0.333243 0.127612,0.501497 0.03988,0.168254 0.07707,0.33758 0.111548,0.50793 0.03447,0.170349 0.06622,0.341722 0.09519,0.51407 0.02897,0.172348 0.05517,0.345672 0.07854,0.519921 0.02337,0.17425 0.04392,0.349426 0.0616,0.52548 0.01768,0.176054 0.03248,0.352986 0.04436,0.530748 0.01188,0.177761 0.02084,0.356352 0.02683,0.535724 0.006,0.179372 0.009,0.359526 0.009,0.540411 1.04e-4,0.231615 -0.0047,0.462049 -0.01444,0.6912 -0.0097,0.229151 -0.02425,0.457017 -0.04355,0.683497 -0.0193,0.226479 -0.04335,0.45157 -0.07204,0.67517 -0.02869,0.2236 -0.06203,0.445708 -0.09992,0.666221 -0.03788,0.220512 -0.08031,0.43943 -0.127181,0.656647 -0.04687,0.217218 -0.09818,0.432737 -0.153831,0.646452 -0.05565,0.213716 -0.115641,0.425628 -0.179869,0.635633 -0.06423,0.210006 -0.132693,0.418104 -0.205294,0.624191 -0.0726,0.206087 -0.149337,0.410163 -0.230107,0.612125 -0.08077,0.201961 -0.165571,0.401808 -0.254305,0.599436 -0.08873,0.197629 -0.181398,0.393038 -0.277891,0.586125 -0.09649,0.193087 -0.196815,0.383852 -0.300864,0.57219 -0.104049,0.188338 -0.211824,0.37425 -0.323224,0.557632 -0.111399,0.183381 -0.226424,0.364233 -0.34497,0.54245 -0.118546,0.178217 -0.240615,0.353801 -0.366104,0.526646 -0.125488,0.172845 -0.254397,0.342953 -0.386624,0.510218 -0.132227,0.167266 -0.267771,0.331689 -0.406532,0.493167 -0.13876,0.161479 -0.280736,0.320011 -0.425825,0.475494 -0.145089,0.155483 -0.293292,0.307917 -0.444506,0.457197 -0.151214,0.14928 -0.305439,0.295407 -0.462574,0.438276 -0.157134,0.14287 -0.317178,0.282482 -0.480029,0.418733 -0.16285,0.136251 -0.328508,0.269141 -0.49687,0.398566 -0.168363,0.129425 -0.33943,0.255385 -0.5131,0.377777 -0.173669,0.122391 -0.349942,0.241213 -0.528715,0.356363 -0.178767,0.115146 -0.360035,0.22662 -0.543702,0.334318 -0.183666,0.107698 -0.369732,0.21162 -0.558094,0.311663 -0.188361,0.100042 -0.37902,0.196205 -0.571872,0.288383 -0.192853,0.09218 -0.3879,0.180373 -0.585039,0.26448 -0.197125,0.0841 -0.396346,0.164114 -0.597559,0.239937 -0.201214,0.07582 -0.40442,0.147453 -0.609515,0.214789 -0.205095,0.06734 -0.41208,0.130377 -0.620851,0.189019 C 82.342796,83.136018 82.132239,83.19026 81.92,83.24" />
</svg>
