<?xml version="1.0" encoding="UTF-8" standalone="no"?>
<svg
   xmlns:dc="http://purl.org/dc/elements/1.1/"
   xmlns:cc="http://creativecommons.org/ns#"
   xmlns:rdf="http://www.w3.org/1999/02/22-rdf-syntax-ns#"
   xmlns:svg="http://www.w3.org/2000/svg"
   xmlns="http://www.w3.org/2000/svg"
   version="1.1"
   id="svg4975"
   viewBox="0 0 99.999999 75.799264"
   height="21.392237mm"
   width="28.222221mm">
  <defs
     id="defs4977" />
  <metadata
     id="metadata4980">
    <rdf:RDF>
      <cc:Work
         rdf:about="">
        <dc:format>image/svg+xml</dc:format>
        <dc:type
           rdf:resource="http://purl.org/dc/dcmitype/StillImage" />
        <dc:title></dc:title>
      </cc:Work>
    </rdf:RDF>
  </metadata>
  <g
     transform="translate(-263.27468,-765.65055)"
     id="layer1">
    <path
       d="m 315.89908,798.41748 a 20.108801,20.108801 0 0 1 -20.10687,20.1088 20.108801,20.108801 0 0 1 -20.11073,-20.10494 20.108801,20.108801 0 0 1 20.10301,-20.11266 20.108801,20.108801 0 0 1 20.11459,20.10108 l -20.1088,0.008 z"
       id="path5549"
       style="color:#000000;clip-rule:nonzero;display:inline;overflow:visible;visibility:visible;opacity:1;isolation:auto;mix-blend-mode:normal;color-interpolation:sRGB;color-interpolation-filters:linearRGB;solid-color:#000000;solid-opacity:1;fill:#000000;fill-opacity:1;fill-rule:nonzero;stroke:none;stroke-width:0.1;stroke-linecap:round;stroke-linejoin:miter;stroke-miterlimit:4;stroke-dasharray:none;stroke-dashoffset:0;stroke-opacity:1;color-rendering:auto;image-rendering:auto;shape-rendering:auto;text-rendering:auto;enable-background:accumulate" />
    <path
       transform="matrix(-0.35253189,0.9357998,-0.949843,-0.31272715,0,0)"
       d="m 689.38932,-588.44244 a 22.72526,23.949186 0 0 1 -22.72308,23.94918 22.72526,23.949186 0 0 1 -22.72744,-23.94459 22.72526,23.949186 0 0 1 22.71872,-23.95378 22.72526,23.949186 0 0 1 22.7318,23.93999 l -22.72526,0.009 z"
       id="path4747-7"
       style="color:#000000;clip-rule:nonzero;display:inline;overflow:visible;visibility:visible;opacity:1;isolation:auto;mix-blend-mode:normal;color-interpolation:sRGB;color-interpolation-filters:linearRGB;solid-color:#000000;solid-opacity:1;fill:#000000;fill-opacity:1;fill-rule:nonzero;stroke:none;stroke-width:0.60000002;stroke-linecap:round;stroke-linejoin:miter;stroke-miterlimit:4;stroke-dasharray:none;stroke-dashoffset:0;stroke-opacity:1;color-rendering:auto;image-rendering:auto;shape-rendering:auto;text-rendering:auto;enable-background:accumulate" />
    <path
       transform="matrix(-0.33218156,0.94321546,-0.94321546,-0.33218156,0,0)"
       d="m 677.5312,-574.45471 a 20.49836,20.49836 0 0 1 -20.4964,20.49836 20.49836,20.49836 0 0 1 -20.50032,-20.49443 20.49836,20.49836 0 0 1 20.49245,-20.50229 20.49836,20.49836 0 0 1 20.50427,20.49049 l -20.49836,0.008 z"
       id="path4749-5"
       style="color:#000000;clip-rule:nonzero;display:inline;overflow:visible;visibility:visible;opacity:1;isolation:auto;mix-blend-mode:normal;color-interpolation:sRGB;color-interpolation-filters:linearRGB;solid-color:#000000;solid-opacity:1;fill:#ffffff;fill-opacity:1;fill-rule:nonzero;stroke:none;stroke-width:0.60000002;stroke-linecap:round;stroke-linejoin:miter;stroke-miterlimit:4;stroke-dasharray:none;stroke-dashoffset:0;stroke-opacity:1;color-rendering:auto;image-rendering:auto;shape-rendering:auto;text-rendering:auto;enable-background:accumulate" />
    <path
       transform="matrix(0.6763903,0.73654339,-0.70058634,0.71356764,0,0)"
       d="m 799.80551,331.63028 a 15.914095,15.886615 0 0 1 -15.91256,15.88661 15.914095,15.886615 0 0 1 -15.91563,-15.88356 15.914095,15.886615 0 0 1 15.90952,-15.88966 15.914095,15.886615 0 0 1 15.91867,15.88051 l -15.91409,0.006 z"
       id="path4747-3"
       style="color:#000000;clip-rule:nonzero;display:inline;overflow:visible;visibility:visible;opacity:1;isolation:auto;mix-blend-mode:normal;color-interpolation:sRGB;color-interpolation-filters:linearRGB;solid-color:#000000;solid-opacity:1;fill:#000000;fill-opacity:1;fill-rule:nonzero;stroke:none;stroke-width:0.60000002;stroke-linecap:round;stroke-linejoin:miter;stroke-miterlimit:4;stroke-dasharray:none;stroke-dashoffset:0;stroke-opacity:1;color-rendering:auto;image-rendering:auto;shape-rendering:auto;text-rendering:auto;enable-background:accumulate" />
    <path
       transform="matrix(0.69519541,0.7188208,-0.7188208,0.69519541,0,0)"
       d="m 808.27288,351.62326 a 13.859486,13.859486 0 0 1 -13.85816,13.85949 13.859486,13.859486 0 0 1 -13.86081,-13.85683 13.859486,13.859486 0 0 1 13.85549,-13.86214 13.859486,13.859486 0 0 1 13.86348,13.85416 l -13.85949,0.005 z"
       id="path4749-6"
       style="color:#000000;clip-rule:nonzero;display:inline;overflow:visible;visibility:visible;opacity:1;isolation:auto;mix-blend-mode:normal;color-interpolation:sRGB;color-interpolation-filters:linearRGB;solid-color:#000000;solid-opacity:1;fill:#ffffff;fill-opacity:1;fill-rule:nonzero;stroke:none;stroke-width:0.60000002;stroke-linecap:round;stroke-linejoin:miter;stroke-miterlimit:4;stroke-dasharray:none;stroke-dashoffset:0;stroke-opacity:1;color-rendering:auto;image-rendering:auto;shape-rendering:auto;text-rendering:auto;enable-background:accumulate" />
    <path
       transform="matrix(0.53088794,0.84744203,-0.79489496,0.60674706,0,0)"
       d="m 846.43621,200.18597 a 14.66491,14.163713 0 0 1 -14.6635,14.16372 14.66491,14.163713 0 0 1 -14.66632,-14.161 14.66491,14.163713 0 0 1 14.66069,-14.16643 14.66491,14.163713 0 0 1 14.66913,14.15828 l -14.66491,0.005 z"
       id="path4747"
       style="color:#000000;clip-rule:nonzero;display:inline;overflow:visible;visibility:visible;opacity:1;isolation:auto;mix-blend-mode:normal;color-interpolation:sRGB;color-interpolation-filters:linearRGB;solid-color:#000000;solid-opacity:1;fill:#000000;fill-opacity:1;fill-rule:nonzero;stroke:none;stroke-width:0.60000002;stroke-linecap:round;stroke-linejoin:miter;stroke-miterlimit:4;stroke-dasharray:none;stroke-dashoffset:0;stroke-opacity:1;color-rendering:auto;image-rendering:auto;shape-rendering:auto;text-rendering:auto;enable-background:accumulate" />
    <path
       transform="matrix(0.89686992,0.44229441,-0.44229441,0.89686992,0,0)"
       d="m 633.20105,615.89136 a 11.953184,11.953184 0 0 1 -11.95204,11.95318 11.953184,11.953184 0 0 1 -11.95433,-11.95089 11.953184,11.953184 0 0 1 11.94974,-11.95548 11.953184,11.953184 0 0 1 11.95663,11.9486 l -11.95319,0.005 z"
       id="path4749"
       style="color:#000000;clip-rule:nonzero;display:inline;overflow:visible;visibility:visible;opacity:1;isolation:auto;mix-blend-mode:normal;color-interpolation:sRGB;color-interpolation-filters:linearRGB;solid-color:#000000;solid-opacity:1;fill:#ffffff;fill-opacity:1;fill-rule:nonzero;stroke:none;stroke-width:0.60000002;stroke-linecap:round;stroke-linejoin:miter;stroke-miterlimit:4;stroke-dasharray:none;stroke-dashoffset:0;stroke-opacity:1;color-rendering:auto;image-rendering:auto;shape-rendering:auto;text-rendering:auto;enable-background:accumulate" />
    <path
       transform="matrix(-0.83252049,-0.55399425,0.47654553,-0.87914979,0,0)"
       d="m -684.38534,-495.40073 a 16.406101,17.213608 0 0 1 -16.40453,17.21361 16.406101,17.213608 0 0 1 -16.40767,-17.2103 16.406101,17.213608 0 0 1 16.40137,-17.21691 16.406101,17.213608 0 0 1 16.41083,17.20699 l -16.4061,0.007 z"
       id="path4747-3-5"
       style="color:#000000;clip-rule:nonzero;display:inline;overflow:visible;visibility:visible;opacity:1;isolation:auto;mix-blend-mode:normal;color-interpolation:sRGB;color-interpolation-filters:linearRGB;solid-color:#000000;solid-opacity:1;fill:#000000;fill-opacity:1;fill-rule:nonzero;stroke:none;stroke-width:0.60000002;stroke-linecap:round;stroke-linejoin:miter;stroke-miterlimit:4;stroke-dasharray:none;stroke-dashoffset:0;stroke-opacity:1;color-rendering:auto;image-rendering:auto;shape-rendering:auto;text-rendering:auto;enable-background:accumulate" />
    <path
       transform="matrix(-0.85727084,-0.51486571,0.51486571,-0.85727084,0,0)"
       d="m -706.53395,-528.90527 a 13.859487,13.859487 0 0 1 -13.85815,13.85948 13.859487,13.859487 0 0 1 -13.86082,-13.85682 13.859487,13.859487 0 0 1 13.8555,-13.86215 13.859487,13.859487 0 0 1 13.86347,13.85416 l -13.85948,0.005 z"
       id="path4749-6-6"
       style="color:#000000;clip-rule:nonzero;display:inline;overflow:visible;visibility:visible;opacity:1;isolation:auto;mix-blend-mode:normal;color-interpolation:sRGB;color-interpolation-filters:linearRGB;solid-color:#000000;solid-opacity:1;fill:#ffffff;fill-opacity:1;fill-rule:nonzero;stroke:none;stroke-width:0.60000002;stroke-linecap:round;stroke-linejoin:miter;stroke-miterlimit:4;stroke-dasharray:none;stroke-dashoffset:0;stroke-opacity:1;color-rendering:auto;image-rendering:auto;shape-rendering:auto;text-rendering:auto;enable-background:accumulate" />
    <rect
       y="839.04816"
       x="281.25644"
       height="2.3830876"
       width="66.724945"
       id="rect4810"
       style="color:#000000;clip-rule:nonzero;display:inline;overflow:visible;visibility:visible;opacity:1;isolation:auto;mix-blend-mode:normal;color-interpolation:sRGB;color-interpolation-filters:linearRGB;solid-color:#000000;solid-opacity:1;fill:#000000;fill-opacity:1;fill-rule:nonzero;stroke:none;stroke-width:0.1;stroke-linecap:round;stroke-linejoin:miter;stroke-miterlimit:4;stroke-dasharray:none;stroke-dashoffset:0;stroke-opacity:1;color-rendering:auto;image-rendering:auto;shape-rendering:auto;text-rendering:auto;enable-background:accumulate" />
    <path
       d="m 357.00263,828.79541 a 15.613443,10.248114 0 0 1 -15.61194,10.24811 15.613443,10.248114 0 0 1 -15.61494,-10.24614 15.613443,10.248114 0 0 1 15.60894,-10.25008 15.613443,10.248114 0 0 1 15.61794,10.24417 l -15.61344,0.004 z"
       id="path4812"
       style="color:#000000;clip-rule:nonzero;display:inline;overflow:visible;visibility:visible;opacity:1;isolation:auto;mix-blend-mode:normal;color-interpolation:sRGB;color-interpolation-filters:linearRGB;solid-color:#000000;solid-opacity:1;fill:#ffffff;fill-opacity:1;fill-rule:nonzero;stroke:none;stroke-width:0.1;stroke-linecap:round;stroke-linejoin:miter;stroke-miterlimit:4;stroke-dasharray:none;stroke-dashoffset:0;stroke-opacity:1;color-rendering:auto;image-rendering:auto;shape-rendering:auto;text-rendering:auto;enable-background:accumulate" />
    <rect
       y="821.15204"
       x="285.1543"
       height="17.878252"
       width="56.154346"
       id="rect4829"
       style="color:#000000;clip-rule:nonzero;display:inline;overflow:visible;visibility:visible;opacity:1;isolation:auto;mix-blend-mode:normal;color-interpolation:sRGB;color-interpolation-filters:linearRGB;solid-color:#000000;solid-opacity:1;fill:#ffffff;fill-opacity:1;fill-rule:nonzero;stroke:none;stroke-width:0.1;stroke-linecap:round;stroke-linejoin:miter;stroke-miterlimit:4;stroke-dasharray:none;stroke-dashoffset:0;stroke-opacity:1;color-rendering:auto;image-rendering:auto;shape-rendering:auto;text-rendering:auto;enable-background:accumulate" />
    <path
       style="fill:#000000;fill-opacity:1;stroke:none;stroke-opacity:1"
       id="path4"
       d="m 307.92555,768.11102 -7.56258,7.74846 c 2.68888,0.58282 5.19346,1.64609 7.43026,3.09056 l 0.13232,-10.83902" />
    <path
       style="fill:#000000;fill-opacity:1;stroke:none;stroke-opacity:1"
       id="path6"
       d="m 273.48519,802.73726 -7.75319,7.56258 10.84217,-0.13232 c -1.44604,-2.23838 -2.50931,-4.74296 -3.08898,-7.43026" />
    <path
       style="fill:#000000;fill-opacity:1;stroke:none;stroke-opacity:1"
       id="path8"
       d="m 276.57417,785.71556 -10.84217,-0.13232 7.75319,7.56415 c 0.58282,-2.68888 1.64294,-5.19189 3.08898,-7.43183" />
    <path
       style="fill:#000000;fill-opacity:1;stroke:none;stroke-opacity:1"
       id="path10"
       d="m 290.77309,775.8579 -7.56257,-7.75002 0.13232,10.839 c 2.23995,-1.44446 4.74453,-2.50615 7.43025,-3.08898" />
    <path
       style="fill:#000000;fill-opacity:1;stroke:none;stroke-opacity:1"
       id="path12"
       d="m 314.13344,785.06814 4.26724,-9.95847 -9.95532,4.26724 c 2.21789,1.54214 4.14753,3.47019 5.68808,5.69123" />
    <path
       style="fill:#000000;fill-opacity:1;stroke:none;stroke-opacity:1"
       id="path14"
       d="m 272.96221,797.94233 c 0,-1.37516 0.14493,-2.71724 0.37805,-4.02781 l -10.06558,4.02623 10.06716,4.02781 c -0.2347,-1.309 -0.37963,-2.64951 -0.37963,-4.02623" />
    <path
       style="fill:#000000;fill-opacity:1;stroke:none;stroke-opacity:1"
       id="path16"
       d="m 282.69385,779.37534 -9.95847,-4.26724 4.26724,9.95847 c 1.54056,-2.21947 3.47019,-4.1491 5.69123,-5.69123" />
    <path
       style="fill:#000000;fill-opacity:1;stroke:none;stroke-opacity:1"
       id="path18"
       d="m 299.59427,775.71771 -4.02781,-10.06716 -4.02466,10.06716 c 1.30742,-0.23471 2.6495,-0.37805 4.02466,-0.37805 1.3783,-0.002 2.72038,0.14177 4.02781,0.37805" />
  </g>
</svg>
