<?xml version="1.0" encoding="UTF-8" standalone="no"?>
<svg
   xmlns:dc="http://purl.org/dc/elements/1.1/"
   xmlns:cc="http://creativecommons.org/ns#"
   xmlns:rdf="http://www.w3.org/1999/02/22-rdf-syntax-ns#"
   xmlns:svg="http://www.w3.org/2000/svg"
   xmlns="http://www.w3.org/2000/svg"
   viewBox="0 0 100 70"
   enable-background="new 0 0 64 64"
   id="svg2"
   version="1.1"
   width="100"
   height="70">
  <metadata
     id="metadata10">
    <rdf:RDF>
      <cc:Work
         rdf:about="">
        <dc:format>image/svg+xml</dc:format>
        <dc:type
           rdf:resource="http://purl.org/dc/dcmitype/StillImage" />
        <dc:title></dc:title>
      </cc:Work>
    </rdf:RDF>
  </metadata>
  <defs
     id="defs8" />
  <path
     d="m 61.191667,6.6666667 c 10.791666,0 19.541666,8.7566663 19.541666,19.5600003 0,0.523333 -0.03833,1.035 -0.07833,1.55 -4.518333,0.345 -8.623333,2.145 -11.848333,4.948333 2.401666,-1.38 5.175,-2.185 8.145,-2.185 1.096666,0 2.168333,0.113333 3.206666,0.321667 1.773334,0.348333 3.438334,0.993333 4.955,1.868333 4.906667,2.833333 8.22,8.123333 8.22,14.203333 0,7.783334 -5.43,14.296667 -12.705,15.966667 C 79.446667,63.176667 78.22,63.333333 76.95,63.333333 l -56.96,0 c -1.461667,0 -2.861667,-0.241666 -4.176667,-0.68 C 10.501667,60.898333 6.666667,55.898333 6.666667,50 6.666667,45.986667 8.44,42.398333 11.24,39.958333 c 1.266667,-1.11 2.741667,-1.976666 4.361667,-2.541666 1.376666,-0.478334 2.848333,-0.755 4.388333,-0.755 4.296667,0 8.105,2.045 10.543333,5.205 l 0.12,-0.0033 C 27.825,36.655 22.535,32.98 16.346667,32.39 c 2.301666,-8.033333 9.69,-13.928333 18.46,-13.928333 0.938333,0 1.848333,0.08833 2.746666,0.218333 1.78,0.256667 3.483334,0.745 5.068334,1.451667 5.911666,2.64 10.228333,8.17 11.188333,14.795 0,-0.035 0.0033,-0.07833 0.0033,-0.113334 0,-7.545 -3.866666,-14.186666 -9.723333,-18.056666 3.335,-6.015 9.741667,-10.0900003 17.101667,-10.0900003 M 61.191634,0 c -8.993334,0 -17.33,4.6233333 -22.125,12.166667 C 38.881667,12.135 38.695,12.108333 38.51,12.08 c -1.33,-0.191667 -2.541667,-0.286667 -3.701667,-0.286667 -11.478333,0 -21.705,7.715 -24.87,18.76 l -0.751666,2.625 C 8.368333,33.705 7.586667,34.295 6.846667,34.945 2.5,38.733333 0,44.226667 0,50 0,58.645 5.515,66.273333 13.723333,68.983333 15.733333,69.655 17.85,70 19.99,70 l 56.96,0 c 1.725,0 3.473333,-0.205 5.198333,-0.608333 C 92.646667,66.98 100,57.743333 100,46.933333 c 0,-8.21 -4.428333,-15.865 -11.558333,-19.976666 C 88.096667,26.758333 87.75,26.57 87.398333,26.388333 c 0,-0.05167 0,-0.106666 0,-0.161666 C 87.398333,11.766667 75.643333,0 61.191667,0 Z"
     id="path4"
     style="fill:#000000;fill-opacity:1;stroke:none" />
</svg>
