<?xml version="1.0" encoding="UTF-8" standalone="no"?>
<svg
   xmlns:dc="http://purl.org/dc/elements/1.1/"
   xmlns:cc="http://creativecommons.org/ns#"
   xmlns:rdf="http://www.w3.org/1999/02/22-rdf-syntax-ns#"
   xmlns:svg="http://www.w3.org/2000/svg"
   xmlns="http://www.w3.org/2000/svg"
   xmlns:sodipodi="http://sodipodi.sourceforge.net/DTD/sodipodi-0.dtd"
   xmlns:inkscape="http://www.inkscape.org/namespaces/inkscape"
   viewBox="0 0 64 64"
   enable-background="new 0 0 64 64"
   id="svg2"
   version="1.1"
   inkscape:version="0.91 r13725"
   sodipodi:docname="04d.svg">
  <metadata
     id="metadata10">
    <rdf:RDF>
      <cc:Work
         rdf:about="">
        <dc:format>image/svg+xml</dc:format>
        <dc:type
           rdf:resource="http://purl.org/dc/dcmitype/StillImage" />
        <dc:title />
      </cc:Work>
    </rdf:RDF>
  </metadata>
  <defs
     id="defs8" />
  <sodipodi:namedview
     pagecolor="#ffffff"
     bordercolor="#666666"
     borderopacity="1"
     objecttolerance="10"
     gridtolerance="10"
     guidetolerance="10"
     inkscape:pageopacity="0"
     inkscape:pageshadow="2"
     inkscape:window-width="1920"
     inkscape:window-height="1016"
     id="namedview6"
     showgrid="false"
     inkscape:zoom="10.429825"
     inkscape:cx="14.272208"
     inkscape:cy="36.298777"
     inkscape:window-x="0"
     inkscape:window-y="27"
     inkscape:window-maximized="1"
     inkscape:current-layer="svg2" />
  <path
     style="fill:#000000"
     d="m 42.621094,11 c -4.176565,0 -8.048561,2.147216 -10.275391,5.650391 -0.08591,-0.01471 -0.171897,-0.02786 -0.257812,-0.04102 -0.617661,-0.08901 -1.180038,-0.132812 -1.71875,-0.132813 -5.330616,0 -10.080934,3.583518 -11.550782,8.712891 l -0.349609,1.21875 c -0.380039,0.244588 -0.742276,0.518449 -1.085938,0.820313 -2.01862,1.759328 13.560586,-7.185002 16.235787,-7.00613 3.403701,0.227581 2.619786,-0.06027 6.431792,1.198268 0.933507,0.311877 10.195185,14.323832 10.156026,15.316891 l -0.266964,6.770267 c -0.03156,0.800479 1.612961,-0.09394 2.414063,-0.28125 4.875497,-1.119993 8.291015,-5.40945 8.291015,-10.429687 0,-3.81278 -2.05792,-7.367858 -5.36914,-9.277344 -0.160221,-0.09211 -0.321059,-0.179304 -0.484375,-0.263672 l 0,-0.07617 C 54.791016,16.464365 49.332546,11 42.621094,11 Z m -2.636669,8.896376 c 2.685109,4.39409 4.201731,8.838404 7.571904,11.666708 3.233058,3.941304 4.215425,5.83723 4.092109,8.647854 -0.548775,0.128486 -5.535381,-15.037376 -6.071474,-15.283269 L 32.930398,19.126996 c 0,0 -12.978043,6.694561 -13.588738,6.490996 -2.466774,-0.815034 -5.63829,6.979448 -5.63829,4.240221 0,-1.863819 1.447874,-1.133937 2.748213,-2.26709 0.588249,-0.515491 1.752446,-0.917298 2.504785,-1.179688 0.639333,-0.222141 3.431257,-0.591259 4.146444,-0.591259 6.74186,-5.820165 3.138006,-1.70074 7.264375,-6.246005 0.435767,0 0.858198,0.04119 1.27539,0.101562 0.826644,0.119198 1.619384,0.345647 2.355469,0.673828 2.745418,1.226034 3.503055,-2.821244 3.948886,0.255451 0,-0.01625 5.802673,0.394975 5.802673,0.378725 0,-3.503949 -6.349996,-0.405277 -9.069871,-2.202531 1.548797,-2.793407 -2.236089,0.587792 1.181945,0.587792 z m 4.003856,11.181749 c -29.325521,21.947917 -14.66276,10.973958 0,0 z"
     id="path4"
     inkscape:connector-curvature="0"
     sodipodi:nodetypes="sccscccscsscsccsscccsccscccccccsccccc" />
  <path
     d="m 35.028019,21.011301 c 5.011723,0 9.075282,4.066655 9.075282,9.083796 0,0.24304 -0.0178,0.480661 -0.03638,0.719831 -2.098345,0.16022 -4.004735,0.996152 -5.502446,2.298039 1.11535,-0.640881 2.403305,-1.014729 3.782593,-1.014729 0.509299,0 1.006988,0.05263 1.489197,0.149385 0.823549,0.161768 1.596786,0.46131 2.301136,0.867666 2.278689,1.31582 3.817424,3.772531 3.817424,6.596125 0,3.614632 -2.521729,6.639469 -5.900288,7.415028 -0.548774,0.128486 -1.118447,0.201243 -1.708243,0.201243 l -26.45261,0 c -0.678808,0 -1.328978,-0.112232 -1.939673,-0.315797 -2.466774,-0.815034 -4.2477737,-3.137068 -4.2477737,-5.876294 0,-1.863819 0.8235477,-3.530265 2.1238867,-4.663418 0.588249,-0.515491 1.273249,-0.917977 2.025588,-1.180367 0.639333,-0.222141 1.322785,-0.350627 2.037972,-0.350627 1.995401,0 3.764017,0.949712 4.896395,2.417237 l 0.05573,-0.0015 c -1.313497,-2.418785 -3.770209,-4.12548 -6.644113,-4.39948 1.068909,-3.730734 4.500102,-6.468412 8.572949,-6.468412 0.435768,0 0.858379,0.04102 1.275571,0.101395 0.826644,0.119198 1.617683,0.345983 2.353768,0.674164 2.745418,1.226034 4.750107,3.794203 5.195938,6.870898 0,-0.01625 0.0015,-0.03638 0.0015,-0.05263 0,-3.503949 -1.795706,-6.588384 -4.515582,-8.385638 1.548797,-2.793407 4.524096,-4.685864 7.94213,-4.685864 m 0,-3.096046 c -4.176565,0 -8.04817,2.147108 -10.275,5.650283 -0.08591,-0.01471 -0.172605,-0.02709 -0.25852,-0.04025 -0.617661,-0.08901 -1.180367,-0.13313 -1.719079,-0.13313 -5.330616,0 -10.079949,3.582899 -11.549797,8.712272 l -0.349079,1.219067 c -0.380039,0.244588 -0.743051,0.518588 -1.0867117,0.820452 -2.018621,1.759328 -3.179638,4.310469 -3.179638,6.991644 0,4.014797 2.561203,7.557447 6.3732087,8.815989 0.933507,0.311877 1.916501,0.472097 2.910332,0.472097 l 26.45261,0 c 0.801101,0 1.613039,-0.0952 2.414141,-0.282514 4.875497,-1.119994 8.290435,-5.409565 8.290435,-10.429802 0,-3.81278 -2.056548,-7.367814 -5.367768,-9.2773 -0.160221,-0.09211 -0.321215,-0.17957 -0.484531,-0.263938 0,-0.02399 0,-0.04954 0,-0.07508 0,-6.715322 -5.459102,-12.179842 -12.170554,-12.179842 z"
     id="path4-6"
     inkscape:connector-curvature="0" />
</svg>
