<?xml version="1.0" encoding="UTF-8" standalone="no"?>
<svg
   xmlns:dc="http://purl.org/dc/elements/1.1/"
   xmlns:cc="http://creativecommons.org/ns#"
   xmlns:rdf="http://www.w3.org/1999/02/22-rdf-syntax-ns#"
   xmlns:svg="http://www.w3.org/2000/svg"
   xmlns="http://www.w3.org/2000/svg"
   height="72.960449"
   width="100"
   version="1.1"
   id="svg2"
   enable-background="new 0 0 64 64"
   viewBox="0 0 100 72.960449">
  <metadata
     id="metadata10">
    <rdf:RDF>
      <cc:Work
         rdf:about="">
        <dc:format>image/svg+xml</dc:format>
        <dc:type
           rdf:resource="http://purl.org/dc/dcmitype/StillImage" />
        <dc:title></dc:title>
      </cc:Work>
    </rdf:RDF>
  </metadata>
  <defs
     id="defs8" />
  <path
     id="path4"
     d="m 66.644505,0 c -7.729458,0 -14.895258,3.973796 -19.016393,10.457028 -0.158991,-0.02722 -0.318125,-0.05156 -0.477126,-0.07592 -1.143088,-0.164728 -2.183865,-0.245791 -3.180844,-0.245793 -9.86523,0 -18.656517,6.631921 -21.376725,16.124715 l -0.647012,2.255509 c -0.703328,0.452652 -1.373711,0.95948 -2.009717,1.518131 -3.735807,3.255942 25.096216,-13.297092 30.047139,-12.966058 6.299139,0.421178 4.848368,-0.11154 11.903146,2.217603 1.727617,0.577182 18.867958,26.508734 18.795487,28.346562 L 80.188397,60.16133 c -0.05841,1.481425 2.985064,-0.173852 4.467642,-0.520502 C 93.678992,57.568092 100,49.629708 100,40.338889 100,33.282679 96.191462,26.70339 90.063476,23.169556 89.766959,22.99909 89.4693,22.837722 89.167056,22.681585 l 0,-0.140966 C 89.167056,10.112755 79.06521,0 66.644505,0 Z m -4.879613,16.464286 c 4.969259,8.132026 7.776031,16.356999 14.013121,21.591266 5.983334,7.294067 7.801375,10.802807 7.573157,16.004354 C 82.335567,54.297691 73.106988,26.230634 72.114855,25.775566 L 48.710192,15.040415 c 0,0 -24.018119,12.389446 -25.148316,12.012714 -4.565193,-1.508362 -10.434634,12.916678 -10.434634,7.847264 0,-3.44932 2.679542,-2.098547 5.086045,-4.195643 1.088657,-0.954006 3.243206,-1.697619 4.635539,-2.183217 1.183197,-0.411111 6.350136,-1.094228 7.673714,-1.094228 12.476981,-10.771224 5.807424,-3.147514 13.443985,-11.559315 0.806463,0 1.588245,0.07623 2.360331,0.187958 1.529848,0.220597 2.996951,0.63968 4.359203,1.247036 5.080872,2.268988 6.483011,-5.221201 7.308099,0.472756 0,-0.03007 10.738852,0.73097 10.738852,0.700896 0,-6.484665 -11.751768,-0.750035 -16.785369,-4.076165 2.866318,-5.1696841 -4.13827,1.087811 2.187394,1.087811 z m 7.409829,20.693766 c -54.271961,40.618425 -27.135979,20.309212 0,0 z"
     style="fill:#000000;fill-opacity:1;stroke:none" />
  <path
     style="fill:#000000;fill-opacity:1;stroke:none"
     id="path4-6"
     d="m 52.592203,18.527648 c 9.275062,0 16.795383,7.526051 16.795383,16.81114 0,0.449788 -0.03294,0.889546 -0.06733,1.332172 -3.883351,0.296515 -7.411456,1.843552 -10.18323,4.25292 2.064149,-1.186062 4.447733,-1.877932 7.000344,-1.877932 0.942546,0 1.863606,0.0974 2.756017,0.276462 1.524121,0.29938 2.95513,0.853735 4.258652,1.605767 4.217109,2.435153 7.064805,6.981723 7.064805,12.207273 0,6.689503 -4.666897,12.287488 -10.919506,13.722795 -1.015602,0.237785 -2.06988,0.372435 -3.1614,0.372435 l -48.955142,0 c -1.256252,0 -2.459504,-0.207705 -3.589701,-0.584437 -4.565193,-1.508362 -7.861242,-5.805689 -7.861242,-10.875101 0,-3.44932 1.524118,-6.533368 3.930621,-8.630464 1.088656,-0.954005 2.356368,-1.698875 3.748701,-2.184474 1.183197,-0.41111 2.448043,-0.648896 3.771621,-0.648896 3.692836,0 6.965967,1.757607 9.061628,4.473517 l 0.103138,-0.0028 C 23.914711,44.301668 19.368139,41.143133 14.049481,40.636048 16.027682,33.731678 22.3777,28.66513 29.91521,28.66513 c 0.806464,0 1.588579,0.07592 2.360665,0.187649 1.529848,0.220597 2.993803,0.640302 4.356056,1.247658 5.080872,2.268988 8.790897,7.02183 9.615984,12.715788 0,-0.03007 0.0028,-0.06733 0.0028,-0.0974 0,-6.484666 -3.323265,-12.192947 -8.356867,-15.519077 2.866317,-5.169684 8.372624,-8.672004 14.698288,-8.672004 m 0,-5.72977 c -7.729457,0 -14.894534,3.973595 -19.015669,10.456828 -0.159015,-0.02722 -0.319459,-0.05014 -0.47846,-0.07449 -1.143088,-0.164729 -2.184474,-0.24638 -3.181454,-0.24638 -9.865229,0 -18.654693,6.630775 -21.374902,16.123569 L 7.89562,41.313596 C 7.192292,41.766249 6.520475,42.273333 5.884471,42.831985 2.148663,46.087926 0,50.809255 0,55.771234 0,63.201312 4.73995,69.7576 11.794728,72.086751 c 1.727616,0.577182 3.546817,0.873697 5.386074,0.873697 l 48.955142,0 c 1.482576,0 2.985208,-0.176184 4.467786,-0.522841 9.022953,-2.072743 15.342887,-10.011338 15.342887,-19.302157 0,-7.056211 -3.805998,-13.635417 -9.933985,-17.169252 -0.296517,-0.170466 -0.594464,-0.332326 -0.896709,-0.488463 0,-0.0444 0,-0.09168 0,-0.138949 0,-12.427868 -10.103014,-22.540909 -22.52372,-22.540909 z" />
</svg>
