<?xml version="1.0" encoding="UTF-8" standalone="no"?>
<svg
   xmlns:dc="http://purl.org/dc/elements/1.1/"
   xmlns:cc="http://creativecommons.org/ns#"
   xmlns:rdf="http://www.w3.org/1999/02/22-rdf-syntax-ns#"
   xmlns:svg="http://www.w3.org/2000/svg"
   xmlns="http://www.w3.org/2000/svg"
   height="100"
   width="83.33284"
   version="1.1"
   id="svg2"
   enable-background="new 0 0 64 64"
   viewBox="0 0 83.332841 100">
  <metadata
     id="metadata26">
    <rdf:RDF>
      <cc:Work
         rdf:about="">
        <dc:format>image/svg+xml</dc:format>
        <dc:type
           rdf:resource="http://purl.org/dc/dcmitype/StillImage" />
        <dc:title></dc:title>
      </cc:Work>
    </rdf:RDF>
  </metadata>
  <defs
     id="defs24" />
  <path
     style="fill:#000000;fill-opacity:1;stroke:none"
     id="path4"
     d="m 27.706547,72.289561 c -0.986661,2.724983 -0.15,5.5333 1.874988,6.276628 2.021655,0.738329 4.46664,-0.869994 5.4533,-3.596644 1.159993,-3.208314 1.239993,-7.599954 0.451664,-12.693257 -3.80331,3.336647 -6.616626,6.803292 -7.779952,10.013273" />
  <path
     style="fill:#000000;fill-opacity:1;stroke:none"
     id="path6"
     d="m 50.324742,74.967878 c 1.163327,-3.208314 1.239993,-7.599954 0.451664,-12.693256 -3.80331,3.338313 -6.618293,6.804958 -7.778286,10.014939 -0.989994,2.724983 -0.149999,5.5333 1.874989,6.276628 2.024988,0.738329 4.466639,-0.871661 5.451633,-3.598311" />
  <path
     style="fill:#000000;fill-opacity:1;stroke:none"
     id="path8"
     d="m 66.069647,62.274622 c -3.803311,3.338313 -6.618293,6.804958 -7.78162,10.014939 -0.984994,2.724983 -0.146666,5.5333 1.874989,6.276628 2.024988,0.738329 4.466639,-0.869994 5.4533,-3.596644 1.16166,-3.208314 1.243326,-7.599954 0.453331,-12.694923" />
  <path
     style="fill:#000000;fill-opacity:1;stroke:none"
     id="path10"
     d="m 12.414973,72.289561 c -0.984994,2.724983 -0.146666,5.5333 1.874989,6.276628 2.024988,0.738329 4.466639,-0.869994 5.4533,-3.596644 1.161659,-3.208314 1.239992,-7.599954 0.451664,-12.693257 -3.801644,3.336647 -6.61496,6.803292 -7.779953,10.013273" />
  <path
     style="fill:#000000;fill-opacity:1;stroke:none"
     id="path12"
     d="m 15.704953,93.544432 c -0.984994,2.724983 -0.149999,5.533299 1.874988,6.274961 2.024988,0.741667 4.46664,-0.868328 5.453301,-3.593311 1.159993,-3.209981 1.239992,-7.60162 0.451664,-12.694923 -3.803311,3.336647 -6.616627,6.803292 -7.779953,10.013273" />
  <path
     style="fill:#000000;fill-opacity:1;stroke:none"
     id="path14"
     d="m 38.323149,96.224415 c 1.164993,-3.20998 1.239992,-7.60162 0.451664,-12.694922 -3.799977,3.338313 -6.616627,6.804958 -7.778286,10.014939 -0.988328,2.724983 -0.148333,5.533299 1.874988,6.274961 2.023321,0.741667 4.468306,-0.869994 5.451634,-3.594978" />
  <path
     style="fill:#000000;fill-opacity:1;stroke:none"
     id="path16"
     d="m 54.063053,83.529493 c -3.799977,3.338313 -6.616626,6.804958 -7.774953,10.014939 -0.989994,2.724983 -0.149999,5.533299 1.873322,6.274961 2.023321,0.741667 4.46664,-0.868328 5.451634,-3.593311 1.163326,-3.209981 1.241659,-7.60162 0.449997,-12.696589" />
  <path
     style="fill:#000000;fill-opacity:1;stroke:none"
     id="path18"
     d="m 0.41337902,93.544432 c -0.98666,2.724983 -0.146665,5.533299 1.87665598,6.274961 2.023321,0.741667 4.4666393,-0.868328 5.4516333,-3.593311 C 8.9049945,93.016101 8.9833274,88.624462 8.1933322,83.531159 4.391689,86.867806 1.573372,90.334451 0.41337902,93.544432" />
  <path
     style="fill:#000000;fill-opacity:1;stroke:none"
     id="path20"
     d="m 52.503062,5.2866352 c 8.573282,0 15.523239,6.9466248 15.523239,15.5149058 0,0.416664 -0.03167,0.823328 -0.06167,1.228326 -3.588311,0.274998 -6.849958,1.704989 -9.414943,3.924976 1.909989,-1.094994 4.113309,-1.728323 6.471628,-1.728323 0.873328,0 1.723323,0.08833 2.549984,0.249998 1.408325,0.281665 2.728317,0.788329 3.931643,1.483325 3.90331,2.248319 6.53496,6.441627 6.53496,11.264931 0,6.174963 -4.314974,11.339931 -10.093272,12.664923 -0.941661,0.218332 -1.914988,0.344998 -2.921649,0.344998 l -0.0033,0 -45.248058,0 c -1.159993,0 -2.27332,-0.193332 -3.31998,-0.541663 -4.215003,-1.389992 -7.2633178,-5.358301 -7.2633178,-10.034939 0,-3.181648 1.4116578,-6.028297 3.6333108,-7.961619 1.008328,-0.881661 2.179987,-1.568323 3.468313,-2.016654 1.091659,-0.379998 2.258319,-0.60333 3.483312,-0.60333 3.414979,0 6.43996,1.623324 8.378282,4.129975 l 0.095,-0.0033 c -2.249987,-4.133341 -6.448295,-7.048323 -11.366598,-7.513321 1.833322,-6.374961 7.699953,-11.049932 14.666577,-11.049932 0.743329,0 1.469991,0.07 2.181654,0.174998 1.416658,0.203333 2.766649,0.589997 4.026642,1.153327 4.696638,2.094987 8.128284,6.478294 8.888279,11.736595 0,-0.03167 0.0033,-0.06667 0.0033,-0.09333 0,-5.983297 -3.071648,-11.249931 -7.724953,-14.323246 2.646651,-4.7683038 7.73162,-8.0016178 13.581584,-8.0016178 m 0,-5.28663500000001 C 45.363073,1.9999999e-7 38.738113,3.6666452 34.92647,9.6482752 c -0.144999,-0.02333 -0.293332,-0.04333 -0.441664,-0.06833 -1.088327,-0.156666 -2.019988,-0.226665 -2.941649,-0.226665 -9.116611,0 -17.241562,6.1166288 -19.756546,14.8799088 L 11.186614,26.31651 C 10.538285,26.733174 9.9182887,27.201505 9.3316256,27.716502 5.876647,30.724817 3.891659,35.07979 3.891659,39.658096 c 0,6.856625 4.3816397,12.906588 10.899933,15.058241 1.603324,0.534997 3.283314,0.804995 4.978303,0.804995 l 45.248058,0 c 1.366659,0 2.75165,-0.159999 4.121642,-0.47833 8.354949,-1.916655 14.193247,-9.244944 14.193247,-17.818225 0,-6.513294 -3.518312,-12.583257 -9.181611,-15.844904 -0.273332,-0.156665 -0.549997,-0.304998 -0.829995,-0.44833 0,-0.04333 0,-0.08667 0,-0.131666 C 73.321236,9.3332802 63.981293,3.2e-6 52.503029,3.2e-6 Z" />
</svg>
