<?xml version="1.0" encoding="UTF-8" standalone="no"?>
<svg
   xmlns:dc="http://purl.org/dc/elements/1.1/"
   xmlns:cc="http://creativecommons.org/ns#"
   xmlns:rdf="http://www.w3.org/1999/02/22-rdf-syntax-ns#"
   xmlns:svg="http://www.w3.org/2000/svg"
   xmlns="http://www.w3.org/2000/svg"
   height="99.999718"
   width="100"
   version="1.1"
   id="svg2"
   enable-background="new 0 0 64 64"
   viewBox="0 0 100 99.999718">
  <metadata
     id="metadata32">
    <rdf:RDF>
      <cc:Work
         rdf:about="">
        <dc:format>image/svg+xml</dc:format>
        <dc:type
           rdf:resource="http://purl.org/dc/dcmitype/StillImage" />
        <dc:title></dc:title>
      </cc:Work>
    </rdf:RDF>
  </metadata>
  <defs
     id="defs30" />
  <path
     style="fill:#000000;fill-opacity:1;stroke:none"
     id="path4"
     d="M 35.611667,13.685 30.003333,0 24.39,13.685 c 1.825,-0.318333 3.693333,-0.515 5.61,-0.515 1.92,0 3.788333,0.196667 5.611667,0.515" />
  <path
     style="fill:#000000;fill-opacity:1;stroke:none"
     id="path6"
     d="m 13.171667,29.998334 c 0,-1.916667 0.193333,-3.785 0.515,-5.608334 L 0,30.001667 13.685,35.61 c -0.32,-1.823333 -0.513333,-3.691666 -0.513333,-5.611666" />
  <path
     style="fill:#000000;fill-opacity:1;stroke:none"
     id="path8"
     d="m 18.101667,18.098334 c 1.355,-1.356667 2.815,-2.54 4.33,-3.603334 L 8.7866667,8.7866671 14.498333,22.43 c 1.06,-1.513333 2.243334,-2.975 3.603334,-4.331666" />
  <path
     style="fill:#000000;fill-opacity:1;stroke:none"
     id="path10"
     d="M 90.851667,21.208334 C 90.58,21.051667 90.303333,20.905 90.025,20.763334 c 0,-0.04333 0,-0.08667 0,-0.13 C 90.025,9.2583338 80.716667,0 69.276667,0 62.16,0 55.56,3.638334 51.763333,9.5700004 51.616667,9.5466674 51.468333,9.5266674 51.32,9.5016674 50.235,9.3483341 49.306667,9.2783341 48.39,9.2783341 c -6.038333,0 -11.628333,2.6899999 -15.443333,7.0399999 -0.95,-0.206667 -1.935,-0.316667 -2.948334,-0.316667 -7.731666,0 -14,6.266667 -14,13.998333 0,4.24 1.9,8.021667 4.881667,10.586667 0.125,1.588333 0.496667,3.118333 1.07,4.555 -1.34,-0.973333 -2.641667,-2.03 -3.855,-3.24 -1.355,-1.358333 -2.538333,-2.816667 -3.6,-4.333333 l -5.71,13.645 13.365,-5.591667 c 0.971667,2.216667 2.445,4.183333 4.308333,5.741667 L 30.003333,60 32.281667,54.441667 c 1.42,0.41 2.888333,0.631667 4.378333,0.631667 l 45.091667,0 c 1.361666,0 2.743333,-0.158334 4.11,-0.475 C 94.183333,52.698334 100,45.43 100,36.923334 c 0,-6.458334 -3.506667,-12.48 -9.148333,-15.715 m -6.185,28.278333 c -0.938334,0.22 -1.91,0.341667 -2.911667,0.341667 0,0 0,0 -0.0033,0 l -45.091667,0 c -1.156667,0 -2.265,-0.19 -3.306667,-0.536667 -4.201666,-1.378333 -7.24,-5.313333 -7.24,-9.955 0,-3.156667 1.405,-5.978333 3.618334,-7.898333 1.005,-0.873334 2.171666,-1.555 3.455,-2 1.088333,-0.376667 2.255,-0.595 3.473333,-0.595 3.401667,0 6.418333,1.61 8.35,4.095 l 0.095,-0.0017 C 42.863333,28.835 38.676667,25.945 33.776667,25.481667 c 1.825,-6.32 7.673333,-10.96 14.616666,-10.96 0.741667,0 1.465,0.07167 2.175,0.173333 1.41,0.201667 2.755,0.588334 4.011667,1.143334 4.68,2.078333 8.096667,6.428333 8.856667,11.64 0,-0.03 0.0033,-0.06167 0.0033,-0.09 0,-5.938334 -3.061667,-11.16 -7.696667,-14.206667 C 58.381634,8.4516671 63.451634,5.245 69.2783,5.245 c 8.543334,0 15.468334,6.89 15.468334,15.386667 0,0.413333 -0.02833,0.815 -0.05833,1.22 -3.576666,0.27 -6.826666,1.69 -9.381666,3.893333 1.901666,-1.085 4.096666,-1.716666 6.445,-1.716666 0.871666,0 1.718333,0.08833 2.541666,0.248333 1.403334,0.278333 2.721667,0.783333 3.92,1.473333 3.888334,2.23 6.51,6.391667 6.51,11.171667 0,6.126667 -4.296666,11.251667 -10.056666,12.565" />
  <path
     style="fill:#000000;fill-opacity:1;stroke:none"
     id="path12"
     d="M 51.68,75.958334 C 52.803333,72.875 52.878333,68.655 52.116667,63.765 48.448333,66.971667 45.73,70.301667 44.61,73.383334 c -0.953333,2.615 -0.143333,5.315 1.81,6.026666 1.953333,0.711667 4.31,-0.835 5.26,-3.451666" />
  <path
     style="fill:#000000;fill-opacity:1;stroke:none"
     id="path14"
     d="M 66.438333,75.958334 C 67.558333,72.875 67.636667,68.655 66.875,63.765 c -3.671667,3.206667 -6.386667,6.536667 -7.51,9.618334 -0.95,2.615 -0.143333,5.315 1.81,6.026666 1.953333,0.711667 4.31,-0.835 5.263333,-3.451666" />
  <path
     style="fill:#000000;fill-opacity:1;stroke:none"
     id="path16"
     d="m 74.123333,73.383334 c -0.951666,2.615 -0.143333,5.315 1.81,6.026666 1.953334,0.711667 4.31,-0.836666 5.261667,-3.451666 C 82.316667,72.875 82.393333,68.655 81.631667,63.765 77.96,66.971667 75.243333,70.301667 74.123333,73.383334" />
  <path
     style="fill:#000000;fill-opacity:1;stroke:none"
     id="path18"
     d="M 36.923333,75.958334 C 38.045,72.875 38.121667,68.655 37.36,63.765 c -3.67,3.206667 -6.386667,6.536667 -7.508333,9.618334 -0.951667,2.615 -0.143334,5.315 1.81,6.026666 1.953333,0.711667 4.31,-0.835 5.261666,-3.451666" />
  <path
     style="fill:#000000;fill-opacity:1;stroke:none"
     id="path20"
     d="m 33.025,93.8 c -0.951667,2.615 -0.143333,5.315 1.81,6.026667 C 36.788333,100.53833 39.145,98.99 40.096667,96.375 41.218333,93.291667 41.295,89.071667 40.533333,84.181667 36.863333,87.388334 34.146667,90.718334 33.025,93.8" />
  <path
     style="fill:#000000;fill-opacity:1;stroke:none"
     id="path22"
     d="m 47.783333,93.8 c -0.951666,2.615 -0.143333,5.315 1.81,6.026667 1.953334,0.711663 4.31,-0.836667 5.261667,-3.451667 1.121667,-3.083333 1.198333,-7.303333 0.436667,-12.193333 -3.67,3.206667 -6.386667,6.536667 -7.508334,9.618333" />
  <path
     style="fill:#000000;fill-opacity:1;stroke:none"
     id="path24"
     d="m 62.538333,93.8 c -0.95,2.615 -0.143333,5.315 1.81,6.026667 1.953334,0.711663 4.31,-0.836667 5.263334,-3.451667 1.12,-3.083333 1.198333,-7.303333 0.436666,-12.193333 -3.671666,3.206667 -6.386666,6.536667 -7.51,9.618333" />
  <path
     style="fill:#000000;fill-opacity:1;stroke:none"
     id="path26"
     d="m 18.266667,93.8 c -0.95,2.615 -0.143334,5.315 1.81,6.026667 1.953333,0.711663 4.31,-0.836667 5.265,-3.451667 1.12,-3.083333 1.198333,-7.303333 0.436666,-12.193333 C 22.105,87.388334 19.39,90.718334 18.266667,93.8" />
</svg>
