<?xml version="1.0" encoding="UTF-8" standalone="no"?>
<svg
   xmlns:dc="http://purl.org/dc/elements/1.1/"
   xmlns:cc="http://creativecommons.org/ns#"
   xmlns:rdf="http://www.w3.org/1999/02/22-rdf-syntax-ns#"
   xmlns:svg="http://www.w3.org/2000/svg"
   xmlns="http://www.w3.org/2000/svg"
   viewBox="0 0 76.666664 100"
   enable-background="new 0 0 64 64"
   id="svg2"
   version="1.1"
   width="76.666664"
   height="100">
  <metadata
     id="metadata10">
    <rdf:RDF>
      <cc:Work
         rdf:about="">
        <dc:format>image/svg+xml</dc:format>
        <dc:type
           rdf:resource="http://purl.org/dc/dcmitype/StillImage" />
        <dc:title></dc:title>
      </cc:Work>
    </rdf:RDF>
  </metadata>
  <defs
     id="defs8" />
  <path
     style="fill:#000000;fill-opacity:1;stroke:none"
     d="m 67.803333,20.538333 c -0.26,-0.151666 -0.526667,-0.295 -0.798333,-0.431666 0,-0.04167 0,-0.08333 0,-0.125 C 67.005,8.965 57.991666,0 46.91,0 40.018333,0 33.628333,3.521667 29.95,9.268333 29.81,9.246663 29.666666,9.226663 29.523333,9.203333 28.471666,9.055 27.57,8.986667 26.685,8.986667 c -8.798334,0 -16.64,5.875 -19.0650003,14.291666 l -0.58,2.003334 c -0.6283334,0.4 -1.2266667,0.85 -1.7933337,1.343333 C 1.913333,29.516667 0,33.7 0,38.095 0,44.68 4.228333,50.491667 10.521666,52.56 c 1.545,0.513333 3.166667,0.773333 4.803334,0.773333 l 9.501666,0 L 17.658333,76.755 38.57,76.755 31.475,100 l 27.53,-33.736667 -19.796667,0 3.835,-12.93 15.95,0 c 1.318333,0 2.656667,-0.153333 3.978333,-0.458333 8.056667,-1.841667 13.695,-8.88 13.695,-17.116667 0,-6.255 -3.395,-12.086666 -8.863333,-15.22 M 61.816666,47.925 c -0.908333,0.211667 -1.848333,0.33 -2.821666,0.33 l -43.67,0 c -1.12,0 -2.193334,-0.183333 -3.203334,-0.52 C 8.053333,46.398333 5.11,42.588333 5.11,38.095 c 0,-3.056667 1.3599997,-5.79 3.5066663,-7.65 0.97,-0.846667 2.1033337,-1.505 3.3466667,-1.936667 1.055,-0.365 2.181667,-0.578333 3.363333,-0.578333 3.295,0 6.215,1.56 8.083334,3.966667 l 0.09167,-0.0017 c -2.168333,-3.971667 -6.22,-6.771667 -10.966666,-7.218333 1.765,-6.121667 7.428333,-10.615 14.153333,-10.615 0.72,0 1.416667,0.07 2.106667,0.17 1.363333,0.195 2.67,0.568333 3.886666,1.106666 4.531667,2.011667 7.841667,6.225 8.576667,11.273334 0,-0.03 0.0033,-0.06 0.0033,-0.08833 0,-5.748334 -2.965,-10.806667 -7.458333,-13.758334 2.558333,-4.58 7.466667,-7.685 13.108333,-7.685 8.275,0 14.983334,6.673334 14.983334,14.901667 0,0.4 -0.03,0.79 -0.06167,1.181667 -3.463333,0.261666 -6.608333,1.635 -9.081667,3.77 1.841667,-1.051667 3.968334,-1.661667 6.243334,-1.661667 0.843333,0 1.663333,0.085 2.458333,0.241667 1.36,0.27 2.636667,0.758333 3.798333,1.425 3.763334,2.16 6.305,6.189999 6.305,10.819999 0,5.931667 -4.163333,10.893334 -9.74,12.166667"
     id="path4" />
</svg>
