<?xml version="1.0" encoding="UTF-8" standalone="no"?>
<svg
   xmlns:dc="http://purl.org/dc/elements/1.1/"
   xmlns:cc="http://creativecommons.org/ns#"
   xmlns:rdf="http://www.w3.org/1999/02/22-rdf-syntax-ns#"
   xmlns:svg="http://www.w3.org/2000/svg"
   xmlns="http://www.w3.org/2000/svg"
   height="100"
   width="91.665001"
   version="1.1"
   id="svg2"
   enable-background="new 0 0 64 64"
   viewBox="0 0 91.665002 100">
  <metadata
     id="metadata22">
    <rdf:RDF>
      <cc:Work
         rdf:about="">
        <dc:format>image/svg+xml</dc:format>
        <dc:type
           rdf:resource="http://purl.org/dc/dcmitype/StillImage" />
        <dc:title></dc:title>
      </cc:Work>
    </rdf:RDF>
  </metadata>
  <defs
     id="defs20" />
  <path
     style="fill:#000000;fill-opacity:1;stroke:none"
     id="path4"
     d="m 25.588333,69.6 2.7,-4.115 -4.156666,2.67 L 23.05,60.893333 21.968333,68.158333 17.81,65.485 l 2.696667,4.111667 -7.333334,1.071666 7.336667,1.073334 -2.7,4.111666 4.155,-2.67 1.085,7.261667 1.081667,-7.261667 4.156666,2.67 -2.7,-4.115 7.341667,-1.07 z" />
  <path
     style="fill:#000000;fill-opacity:1;stroke:none"
     id="path6"
     d="m 79.008333,69.6 2.7,-4.115 L 77.55,68.155 76.471667,60.893333 75.385,68.155 l -4.156667,-2.67 2.696667,4.111667 -7.331667,1.071666 7.335,1.073334 -2.7,4.111666 4.156667,-2.67 1.086667,7.261667 1.078333,-7.261667 4.158333,2.67 -2.705,-4.115 7.346667,-1.07 z" />
  <path
     style="fill:#000000;fill-opacity:1;stroke:none"
     id="path8"
     d="M 52.303333,69.6 55,65.485 50.841667,68.155 49.76,60.893333 48.68,68.155 44.523333,65.485 47.22,69.596667 l -7.335,1.071666 7.335,1.073334 -2.696667,4.111666 4.153334,-2.67 L 49.76,80.445 l 1.085,-7.261667 4.155,2.67 -2.705,-4.115 7.343333,-1.07 z" />
  <path
     style="fill:#000000;fill-opacity:1;stroke:none"
     id="path10"
     d="M 12.418333,89.151667 15.115,85.035 10.958333,87.705 9.8816667,80.445 8.7933333,87.708333 4.64,85.035 7.336667,89.148333 0,90.221667 l 7.34,1.075 -2.7,4.111666 L 8.7933333,92.736667 9.8816667,100 10.961667,92.736667 15.115,95.408333 l -2.7,-4.115 7.343333,-1.071666 z" />
  <path
     style="fill:#000000;fill-opacity:1;stroke:none"
     id="path12"
     d="M 65.838333,89.151667 68.535,85.035 l -4.153333,2.67 -1.083334,-7.26 -1.081666,7.26 -4.156667,-2.67 2.696667,4.113333 -7.335,1.073334 7.338333,1.075 -2.7,4.111666 4.153333,-2.671666 1.085,7.263333 1.083334,-7.263333 4.153333,2.671666 -2.7,-4.115 7.34,-1.071666 z" />
  <path
     style="fill:#000000;fill-opacity:1;stroke:none"
     id="path14"
     d="m 39.131667,89.151667 2.695,-4.116667 -4.156667,2.67 -1.081667,-7.26 -1.08,7.26 -4.156666,-2.67 2.696666,4.113333 -7.338333,1.073334 7.341667,1.075 -2.7,4.111666 4.156666,-2.671666 1.08,7.263333 1.086667,-7.263333 4.151667,2.671666 -2.7,-4.115 7.338333,-1.071666 z" />
  <path
     style="fill:#000000;fill-opacity:1;stroke:none"
     id="path16"
     d="m 60.018333,5.345 c 8.801667,0 15.935,7.025 15.935,15.686667 0,0.425 -0.02833,0.833333 -0.06167,1.243333 -3.685,0.278333 -7.03,1.723333 -9.66,3.968333 C 68.188333,25.14 70.45,24.496667 72.87,24.496667 c 0.893333,0 1.771667,0.08833 2.615,0.251666 1.446667,0.285 2.805,0.798334 4.038333,1.5 4.003334,2.271667 6.706667,6.515 6.706667,11.39 0,6.243334 -4.426667,11.466667 -10.36,12.81 -0.965,0.22 -1.97,0.345 -3.001667,0.345 l -46.441666,0 c -1.191667,0 -2.333334,-0.195 -3.408334,-0.546666 -4.33,-1.406667 -7.456666,-5.415 -7.456666,-10.146667 0,-3.218333 1.446666,-6.095 3.728333,-8.056667 C 20.32,31.156667 21.526667,30.465 22.848333,30.005 23.97,29.623333 25.17,29.401667 26.425,29.401667 c 3.503333,0 6.608333,1.638333 8.595,4.173333 l 0.09667,0 c -2.305003,-4.18 -6.618337,-7.125 -11.66167,-7.6 1.876667,-6.445 7.9,-11.173333 15.051667,-11.173333 0.761666,0 1.505,0.075 2.24,0.176666 1.451666,0.206667 2.84,0.596667 4.133333,1.165 4.816667,2.115 8.336667,6.551667 9.123333,11.866667 0,-0.03167 0.0033,-0.065 0.0033,-0.09333 C 54.006667,21.865 50.848333,16.54 46.075,13.433333 48.798333,8.618333 54.02,5.345 60.018333,5.345 m 0,-5.345 C 52.69,0 45.89,3.708333 41.983333,9.756667 c -0.15,-0.025 -0.301666,-0.045 -0.453333,-0.06833 -1.118333,-0.158333 -2.076667,-0.23 -3.02,-0.23 -9.356667,0 -17.698333,6.185 -20.28,15.045 L 17.616667,26.615 c -0.666667,0.416667 -1.305,0.893333 -1.908334,1.408333 -3.545,3.045 -5.581666,7.45 -5.581666,12.078334 0,6.931666 4.493333,13.051666 11.19,15.225 1.643333,0.54 3.368333,0.815 5.11,0.815 l 46.441666,0 c 1.398334,0 2.825,-0.161667 4.231667,-0.483334 8.568333,-1.94 14.565,-9.346666 14.565,-18.018333 0,-6.585 -3.615,-12.726667 -9.426667,-16.021667 -0.281666,-0.158333 -0.565,-0.311666 -0.853333,-0.451666 0.0033,-0.04333 0.0033,-0.085 0.0033,-0.133334 C 81.39,9.436667 71.805,0 60.018333,0 Z" />
</svg>
