<?xml version="1.0" encoding="UTF-8" standalone="no"?>
<svg
   xmlns:dc="http://purl.org/dc/elements/1.1/"
   xmlns:cc="http://creativecommons.org/ns#"
   xmlns:rdf="http://www.w3.org/1999/02/22-rdf-syntax-ns#"
   xmlns:svg="http://www.w3.org/2000/svg"
   xmlns="http://www.w3.org/2000/svg"
   viewBox="0 0 100 53.33332"
   enable-background="new 0 0 64 64"
   id="svg2"
   version="1.1"
   width="100"
   height="53.333321">
  <metadata
     id="metadata18">
    <rdf:RDF>
      <cc:Work
         rdf:about="">
        <dc:format>image/svg+xml</dc:format>
        <dc:type
           rdf:resource="http://purl.org/dc/dcmitype/StillImage" />
        <dc:title></dc:title>
      </cc:Work>
    </rdf:RDF>
  </metadata>
  <defs
     id="defs16" />
  <path
     style="fill:#000000;fill-opacity:1;stroke:none"
     d="m 0,22.719988 c 26.288333,-21.0649994 38.88,0.753333 54.665,0.753333 12.581667,0 27.981667,-21.8949991 45.335,-3.926666 C 80.085,9.9666553 72.796667,30.339988 52.23,30.339988 36.25,30.338321 30.246667,11.451655 0,22.719988"
     id="path4" />
  <path
     style="fill:#000000;fill-opacity:1;stroke:none"
     d="m 100,39.509988 c -15.338333,-12.631667 -25.215,-2.368333 -37.875,2.95 -8.015,3.365 -16.328333,2.468333 -24.618333,-6.311667 5.946666,2.146667 19.085,9.381667 32.09,-3.305 -11.208334,4.973334 -25.195,1.456667 -36.458334,-4.16 C 20.745,22.504988 10.423333,21.459988 0,32.841655 c 6.571667,-4.941667 16.045,-3.776667 23.333333,-1.835 -4.746666,0.175 -14.825,1.285 -23.333333,14.44 25.735,-21.316667 35.006667,7.886666 55.136667,7.886666 C 74.645,53.333321 72.91,31.453321 100,39.509988"
     id="path6" />
  <path
     style="fill:#000000;fill-opacity:1;stroke:none"
     d="M 0,15.448322 C 3.138333,6.4033219 25.39,-6.5050109 42.965,15.599989 18.401667,4.2749886 0,15.448322 0,15.448322 Z"
     id="path8" />
  <path
     style="fill:#000000;fill-opacity:1;stroke:none"
     d="M 66.891667,6.3883219 C 77.206667,-5.0100109 93.698333,1.2116553 100,6.8566553 c -5.098333,-0.59 -20.788333,-3.9283334 -27.541667,3.2583337 -10.66,11.344999 -23.151666,9.709999 -27.086666,5.583333 0,0 12.685,0.45 21.52,-9.3100001"
     id="path10" />
  <path
     style="fill:#000000;fill-opacity:1;stroke:none"
     d="M 72.308333,32.293321 C 85.58,10.189989 100,28.758321 100,28.758321 c -15.735,-5.466666 -27.691667,3.535 -27.691667,3.535"
     id="path12" />
</svg>
