<?xml version="1.0" encoding="UTF-8" standalone="no"?>
<svg
   xmlns:dc="http://purl.org/dc/elements/1.1/"
   xmlns:cc="http://creativecommons.org/ns#"
   xmlns:rdf="http://www.w3.org/1999/02/22-rdf-syntax-ns#"
   xmlns:svg="http://www.w3.org/2000/svg"
   xmlns="http://www.w3.org/2000/svg"
   viewBox="0 0 100 100"
   enable-background="new 0 0 64 64"
   id="svg2"
   version="1.1"
   width="100"
   height="100">
  <metadata
     id="metadata10">
    <rdf:RDF>
      <cc:Work
         rdf:about="">
        <dc:format>image/svg+xml</dc:format>
        <dc:type
           rdf:resource="http://purl.org/dc/dcmitype/StillImage" />
        <dc:title></dc:title>
      </cc:Work>
    </rdf:RDF>
  </metadata>
  <defs
     id="defs8" />
  <path
     d="M 50,0 C 46.548333,0 43.178333,0.34979175 39.923516,1.0158595 36.668698,1.6819273 33.529063,2.664271 30.538125,3.929375 27.547187,5.194479 24.704948,6.7423435 22.044922,8.5394529 19.384896,10.336562 16.907083,12.382916 14.645,14.645 12.382917,16.907083 10.336562,19.384896 8.5394529,22.044922 6.7423435,24.704948 5.194479,27.547188 3.929375,30.538125 2.664271,33.529063 1.6819273,36.668698 1.0158595,39.923516 0.34979175,43.178333 0,46.548333 0,50 c 0,0.0037 2.6e-5,0.0075 7.15e-5,0.01115 4.55e-5,0.0037 1.105e-4,0.0074 1.885e-4,0.01108 7.694664e-5,0.0037 1.6819664e-4,0.0073 2.6620998e-4,0.01098 9.801334e-5,0.0037 2.0279002e-4,0.0073 3.0679002e-4,0.01095 1.0457294e-4,0.0037 2.0882e-4,0.0073 3.0643e-4,0.01098 9.761e-5,0.0037 1.8857e-4,0.0073 2.6657e-4,0.01095 7.843e-5,0.0037 1.4368e-4,0.0073 1.8932e-4,0.01104 4.564e-5,0.0037 7.168e-5,0.0074 7.168e-5,0.01119 0,0.0037 -2.625e-5,0.0075 -7.2e-5,0.01115 -4.575e-5,0.0037 -1.11e-4,0.0074 -1.89e-4,0.01108 -7.695e-5,0.0036 -1.6795e-4,0.0073 -2.6583e-4,0.01097 -9.789e-5,0.0037 -2.0267e-4,0.0073 -3.0717e-4,0.01096 -1.0464282e-4,0.0037 -2.0864282e-4,0.0073 -3.0610712e-4,0.01095 C 4.2942859e-4,50.147077 3.385e-4,50.150735 2.6e-4,50.15441 1.82034e-4,50.15806 1.17034e-4,50.161745 7.1525499e-5,50.165455 2.6016999e-5,50.169165 0,50.1729 0,50.17665 c 0,3.439583 0.3478385,6.79776 1.0101952,10.041139 0.6623568,3.243379 1.6392318,6.37196 2.8973048,9.352351 1.2580726,2.98039 2.7973434,5.81259 4.5844919,8.463209 1.7871481,2.650618 3.8221751,5.119655 6.0717581,7.373717 2.249583,2.254063 4.713724,4.293151 7.359102,6.083874 2.645377,1.790723 5.471992,3.33308 8.446523,4.593678 2.974534,1.2606 6.096982,2.239445 9.334026,2.903141 C 42.940444,99.651454 46.292084,100 49.725,100 c 0.0044,0 0.0088,-5.2e-5 0.01321,-1.43e-4 0.0044,-9.2e-5 0.0088,-2.22e-4 0.01331,-3.79e-4 0.0044,-1.55e-4 0.0089,-3.37e-4 0.01335,-5.27e-4 0.0045,-1.89e-4 0.009,-3.87e-4 0.01347,-5.73e-4 0.0045,-1.87e-4 0.009,-3.95e-4 0.01345,-5.9e-4 0.0045,-1.95e-4 0.0089,-3.76e-4 0.01337,-5.1e-4 0.0044,-1.32e-4 0.0088,-2.62e-4 0.01328,-3.59e-4 0.0044,-9.7e-5 0.0089,-1.61e-4 0.01324,-1.61e-4 0.0072,0 0.01446,5.2e-5 0.02163,1.43e-4 0.0072,9.1e-5 0.01427,2.21e-4 0.02133,3.77e-4 0.0071,1.57e-4 0.01408,3.39e-4 0.02104,5.29e-4 0.007,1.89e-4 0.01388,3.86e-4 0.02081,5.71e-4 0.0069,1.85e-4 0.01383,3.93e-4 0.02075,5.89e-4 0.0069,1.95e-4 0.01384,3.78e-4 0.02078,5.11e-4 0.0069,1.33e-4 0.01389,2.63e-4 0.02088,3.61e-4 0.007,9.7e-5 0.01402,1.61e-4 0.02111,1.61e-4 3.451667,0 6.821666,-0.349792 10.076484,-1.01586 3.254818,-0.666067 6.394454,-1.648411 9.385391,-2.913515 2.990937,-1.265104 5.833177,-2.812968 8.493203,-4.610078 2.660026,-1.797109 5.137838,-3.843463 7.399922,-6.105547 2.262084,-2.262084 4.308438,-4.739896 6.105547,-7.399922 1.797109,-2.660026 3.344974,-5.502266 4.610078,-8.493203 1.265104,-2.990937 2.247448,-6.130573 2.913516,-9.385391 C 99.650208,56.821667 100,53.451667 100,50 100,46.548333 99.650208,43.178333 98.98414,39.923516 98.318073,36.668698 97.335729,33.529063 96.070625,30.538125 94.805521,27.547188 93.257657,24.704948 91.460547,22.044922 89.663438,19.384896 87.617084,16.907083 85.355,14.645 83.092916,12.382916 80.615104,10.336562 77.955078,8.5394529 75.295052,6.7423435 72.452812,5.194479 69.461875,3.929375 66.470938,2.664271 63.331302,1.6819272 60.076484,1.0158595 56.821667,0.34979175 53.451667,0 50,0 m 46.666667,50 c 0,0.49875 -0.0079,0.995651 -0.02347,1.490589 -0.0156,0.494938 -0.03893,0.987914 -0.06986,1.478813 -0.03093,0.490899 -0.06947,0.97972 -0.115489,1.466351 -0.04602,0.48663 -0.09951,0.97107 -0.160344,1.453205 -0.06083,0.482135 -0.129011,0.961966 -0.204401,1.439378 -0.07539,0.477413 -0.157995,0.952407 -0.247682,1.424867 -0.08969,0.472461 -0.186459,0.942389 -0.290183,1.409671 -0.103724,0.467282 -0.214401,0.931918 -0.331901,1.393793 -0.05438,-0.0375 -0.119922,-0.05094 -0.193552,-0.04894 -0.07363,0.002 -0.155341,0.01942 -0.242046,0.04364 -0.0867,0.02422 -0.178396,0.0552 -0.272002,0.08431 -0.09361,0.02911 -0.189118,0.05636 -0.283441,0.07314 -0.09432,0.01677 -0.187461,0.02305 -0.276325,0.01019 -0.08886,-0.01286 -0.173454,-0.04485 -0.25068,-0.10462 -0.07723,-0.05977 -0.147097,-0.147316 -0.206506,-0.271274 -0.05941,-0.123957 -0.108365,-0.284326 -0.143781,-0.489743 -0.04437,-0.255 -0.119141,-0.50026 -0.218425,-0.732327 -0.09928,-0.232067 -0.223086,-0.450941 -0.365533,-0.653168 -0.142448,-0.202227 -0.303541,-0.387806 -0.477409,-0.553284 -0.173867,-0.165478 -0.360508,-0.310856 -0.55405,-0.432679 -0.193542,-0.121823 -0.393984,-0.220092 -0.595455,-0.291351 -0.201472,-0.07126 -0.403971,-0.115512 -0.601628,-0.129301 -0.197656,-0.01379 -0.390469,0.0029 -0.572565,0.05347 -0.182096,0.05059 -0.353477,0.135095 -0.508268,0.256972 -0.154791,0.121876 -0.34552,0.272814 -0.561126,0.447107 -0.215605,0.174293 -0.456088,0.371942 -0.710384,0.587241 -0.254298,0.2153 -0.52241,0.448249 -0.793276,0.693142 -0.270866,0.244893 -0.544486,0.501728 -0.809798,0.764801 -0.265313,0.263073 -0.522318,0.532383 -0.759955,0.802223 -0.237636,0.269841 -0.455905,0.540212 -0.643743,0.805407 -0.187831,0.265184 -0.345241,0.525195 -0.461161,0.774326 -0.115921,0.249131 -0.190353,0.487382 -0.212228,0.709049 -0.02229,0.221458 -0.06531,0.448464 -0.124908,0.673233 -0.0596,0.224769 -0.135769,0.447302 -0.224364,0.659814 -0.08859,0.212512 -0.18961,0.415006 -0.298893,0.599697 -0.109283,0.184691 -0.226835,0.351579 -0.348502,0.492881 -0.121667,0.141302 -0.247449,0.257018 -0.37319,0.339365 -0.125742,0.08235 -0.251445,0.131325 -0.372955,0.13915 -0.121511,0.0078 -0.238828,-0.0255 -0.3478,-0.107764 -0.108971,-0.08226 -0.209596,-0.21346 -0.297721,-0.401376 -0.08875,-0.188334 -0.199531,-0.426537 -0.32528,-0.701621 -0.125749,-0.275085 -0.266465,-0.587051 -0.415085,-0.922911 -0.14862,-0.335859 -0.305143,-0.695611 -0.462506,-1.066269 C 80.761432,63.288542 80.603229,62.906979 80.45125,62.5275 80.299271,62.148021 80.153515,61.770625 80.021048,61.408301 79.88858,61.045977 79.769401,60.698724 79.670573,60.379532 79.571745,60.060339 79.493269,59.769206 79.442208,59.519122 79.391146,59.269037 79.3675,59.06 79.378333,58.905 c 0.01083,-0.155 0.0037,-0.264323 -0.02019,-0.341813 -0.02388,-0.07749 -0.0645,-0.123148 -0.120647,-0.150817 -0.05614,-0.02767 -0.127807,-0.03735 -0.213772,-0.04289 -0.08597,-0.0055 -0.186228,-0.0069 -0.299561,-0.01803 -0.113333,-0.0111 -0.239739,-0.0319 -0.377994,-0.07623 -0.138256,-0.04434 -0.288361,-0.112219 -0.44909,-0.217489 -0.16073,-0.10527 -0.332084,-0.247932 -0.512839,-0.441828 -0.180755,-0.193896 -0.37091,-0.439027 -0.569244,-0.749235 -0.199166,-0.310208 -0.416276,-0.548438 -0.64805,-0.730257 -0.231774,-0.18182 -0.478212,-0.30723 -0.736038,-0.3918 -0.257826,-0.08457 -0.527038,-0.128301 -0.804359,-0.146761 -0.277321,-0.01846 -0.56275,-0.01165 -0.853011,0.0049 -0.29026,0.01651 -0.585351,0.04272 -0.881995,0.06307 -0.296644,0.02034 -0.594841,0.03482 -0.891312,0.02785 -0.296472,-0.007 -0.591218,-0.03537 -0.880961,-0.100789 C 70.829531,55.527425 70.544792,55.425 70.268333,55.27 69.991875,55.114792 69.711276,54.952682 69.42947,54.786787 69.147663,54.620892 68.864649,54.451211 68.58336,54.28086 68.302071,54.110508 68.022507,53.939486 67.747602,53.770909 67.472696,53.602331 67.202449,53.436199 66.939792,53.275625 66.677136,53.115052 66.422071,52.960039 66.17753,52.813701 65.932989,52.667363 65.698972,52.5297 65.478412,52.403828 65.257852,52.277955 65.050749,52.163873 64.860036,52.064697 64.669323,51.965521 64.495,51.88125 64.34,51.815 c -0.154375,-0.06667 -0.235599,-0.03914 -0.258681,0.05869 -0.02308,0.09783 0.01198,0.265959 0.09017,0.480506 0.07819,0.214545 0.199511,0.475502 0.348955,0.758982 0.149443,0.28348 0.327009,0.589482 0.517685,0.894117 0.190677,0.304636 0.394466,0.607904 0.596358,0.885915 0.201891,0.278011 0.401885,0.530764 0.58497,0.734371 0.183086,0.203607 0.349264,0.358067 0.483526,0.439489 0.134261,0.08142 0.236604,0.08981 0.292021,0.0013 0.05562,-0.08854 0.131901,-0.14664 0.223834,-0.180524 0.09193,-0.03388 0.199525,-0.04355 0.317781,-0.03523 0.118256,0.0083 0.247175,0.03463 0.381765,0.0727 0.13459,0.03807 0.274849,0.0879 0.415787,0.143266 0.140938,0.05537 0.282553,0.116263 0.41985,0.176468 0.137298,0.0602 0.270279,0.119716 0.393951,0.172308 0.123672,0.05259 0.238034,0.09826 0.338093,0.130785 0.100059,0.03252 0.185814,0.0519 0.252272,0.0519 0.06646,0 0.146693,0.01937 0.234496,0.05553 0.0878,0.03616 0.183174,0.0891 0.279906,0.156238 0.09673,0.06714 0.194823,0.148463 0.288068,0.241392 0.09325,0.09293 0.181646,0.197461 0.258989,0.311003 0.07734,0.113541 0.143632,0.236093 0.192659,0.365064 0.04903,0.128972 0.08079,0.264363 0.08909,0.403582 0.0083,0.139219 -0.0069,0.282265 -0.05173,0.426549 -0.04485,0.144284 -0.119385,0.289804 -0.229803,0.433971 -0.110418,0.144166 -0.330027,0.345156 -0.631362,0.584075 -0.301334,0.23892 -0.684393,0.515769 -1.121711,0.811655 -0.437317,0.295885 -0.928893,0.610807 -1.447259,0.925872 -0.518366,0.315065 -1.063522,0.630273 -1.608001,0.926732 -0.544479,0.296459 -1.088281,0.574167 -1.603939,0.814232 -0.515658,0.240065 -1.003171,0.442487 -1.435071,0.588373 -0.431902,0.145886 -0.808191,0.235235 -1.101401,0.249154 -0.293209,0.01392 -0.50334,-0.04759 -0.602923,-0.203424 -0.1,-0.155834 -0.260677,-0.443047 -0.466859,-0.825205 C 60.575293,62.482639 60.323606,62.005536 60.041588,61.469924 59.75957,60.934312 59.44722,60.340191 59.11971,59.723996 58.7922,59.107802 58.449531,58.469533 58.106875,57.845627 57.764219,57.221721 57.421576,56.612177 57.094118,56.05343 56.76666,55.494683 56.454387,54.986733 56.172473,54.566017 c -0.281914,-0.420716 -0.53347,-0.7542 -0.739495,-0.964014 -0.206025,-0.209815 -0.36652,-0.295961 -0.466311,-0.222003 -0.09958,0.07396 -0.09683,0.296042 -0.0139,0.629274 0.08294,0.333233 0.246062,0.777614 0.467229,1.296169 0.221171,0.518566 0.500442,1.111294 0.81567,1.741216 0.315228,0.629923 0.666413,1.29704 1.031413,1.964383 0.365,0.667344 0.743829,1.334909 1.114363,1.965719 0.370534,0.630811 0.732774,1.224866 1.064596,1.745192 0.331822,0.520325 0.633229,0.96692 0.882096,1.302809 0.248867,0.335889 0.445195,0.561071 0.566862,0.638571 0.12125,0.07771 0.272995,0.137396 0.448477,0.181143 0.175482,0.04375 0.3747,0.07155 0.590898,0.0855 0.216198,0.01394 0.449375,0.01403 0.692774,0.0023 0.243398,-0.0117 0.497017,-0.03517 0.754101,-0.06835 0.257083,-0.03318 0.51763,-0.07606 0.774883,-0.126554 0.257252,-0.0505 0.511211,-0.108615 0.755117,-0.172275 0.243906,-0.06366 0.47776,-0.132858 0.694805,-0.205517 0.217044,-0.07266 0.417278,-0.148778 0.593945,-0.226278 0.177083,-0.0775 0.264297,-0.0276 0.277719,0.120782 0.01342,0.148385 -0.04695,0.39526 -0.165036,0.711718 -0.118086,0.316458 -0.293886,0.7025 -0.511324,1.129219 -0.217438,0.426719 -0.476513,0.894115 -0.761149,1.373281 -0.284636,0.479166 -0.594831,0.970104 -0.914509,1.443906 -0.319678,0.473802 -0.648838,0.930469 -0.971403,1.341094 -0.322565,0.410625 -0.638535,0.775209 -0.931833,1.064844 -0.293297,0.289636 -0.563922,0.504323 -0.795797,0.615156 -0.232083,0.110625 -0.458646,0.250365 -0.675892,0.412634 -0.217246,0.162269 -0.425176,0.347068 -0.619993,0.54781 -0.194817,0.200742 -0.376523,0.417428 -0.541321,0.643472 -0.164799,0.226045 -0.31269,0.461449 -0.439877,0.699626 -0.127188,0.238178 -0.233672,0.479128 -0.315657,0.716267 -0.08199,0.237138 -0.139473,0.470465 -0.168666,0.693395 -0.02919,0.22293 -0.03009,0.435463 0.0011,0.631013 0.03119,0.19555 0.09447,0.374117 0.193641,0.529117 0.09958,0.155 0.188099,0.364036 0.26348,0.612393 0.07538,0.248356 0.137627,0.536031 0.184672,0.84831 0.04704,0.312278 0.07889,0.64916 0.09346,0.995928 0.01457,0.346767 0.01188,0.703421 -0.01016,1.055244 -0.02203,0.351823 -0.0634,0.698815 -0.126169,1.02626 -0.06277,0.327444 -0.146942,0.635341 -0.254586,0.908975 -0.107643,0.273631 -0.238755,0.513 -0.395404,0.703387 -0.156649,0.190388 -0.338835,0.331794 -0.548626,0.409503 -0.210417,0.07729 -0.404193,0.160156 -0.581166,0.248245 -0.176972,0.08809 -0.337141,0.181403 -0.480344,0.279593 -0.143203,0.09819 -0.269441,0.201257 -0.378549,0.308852 -0.109108,0.107594 -0.201088,0.219716 -0.275775,0.336018 -0.07469,0.1163 -0.132082,0.236782 -0.172024,0.361095 -0.03994,0.124314 -0.06243,0.252459 -0.0673,0.384087 -0.0049,0.131627 0.0079,0.266738 0.0384,0.404984 0.03053,0.138245 0.07883,0.279625 0.145089,0.423792 0.06604,0.14375 0.09625,0.299974 0.097,0.465733 7.46e-4,0.165758 -0.02797,0.341051 -0.07978,0.522939 -0.05181,0.181889 -0.126709,0.370372 -0.218334,0.562511 -0.09163,0.192138 -0.199973,0.387932 -0.318671,0.584442 -0.118698,0.196511 -0.247748,0.393737 -0.380779,0.588741 -0.133031,0.195003 -0.270043,0.387782 -0.404665,0.575399 -0.134623,0.187617 -0.266857,0.370072 -0.390331,0.544425 -0.123473,0.174352 -0.238187,0.340602 -0.33777,0.49581 -0.09979,0.155 -0.235443,0.330781 -0.39695,0.521113 -0.161507,0.190332 -0.34887,0.395215 -0.552087,0.608419 -0.203216,0.213203 -0.422285,0.434727 -0.647203,0.65834 -0.224919,0.223613 -0.455687,0.449315 -0.682302,0.670878 -0.226614,0.221562 -0.449075,0.438984 -0.657379,0.646035 -0.208304,0.207052 -0.402451,0.403731 -0.572439,0.583809 -0.169988,0.180078 -0.315814,0.343554 -0.427478,0.484199 -0.111663,0.140644 -0.189163,0.258457 -0.222496,0.347207 -0.03291,0.08875 -0.121144,0.16362 -0.253286,0.226693 -0.132142,0.06307 -0.308198,0.114349 -0.516765,0.155912 -0.208568,0.04156 -0.449649,0.07341 -0.711843,0.09763 -0.262194,0.02422 -0.545501,0.04081 -0.838522,0.05185 -0.293021,0.01104 -0.595755,0.01654 -0.896803,0.01856 -0.301048,0.002 -0.600411,5.9e-4 -0.886687,-0.0022 -0.286277,-0.0028 -0.559468,-0.007 -0.808173,-0.01049 -0.248705,-0.0035 -0.472924,-0.0063 -0.661257,-0.0063 -0.187708,0 -0.33401,-0.02909 -0.446673,-0.0831 -0.112663,-0.05402 -0.191686,-0.132962 -0.244837,-0.232678 -0.05315,-0.09971 -0.08043,-0.220195 -0.0896,-0.357284 -0.0092,-0.13709 -2.41e-4,-0.290788 0.01903,-0.456934 0.01927,-0.166145 0.04888,-0.344739 0.08106,-0.53162 0.03218,-0.186882 0.06693,-0.382051 0.09649,-0.581348 0.02956,-0.199296 0.05392,-0.402721 0.06532,-0.606113 0.0114,-0.203393 0.0098,-0.406753 -0.01246,-0.605919 -0.02166,-0.199583 -0.06135,-0.39776 -0.114217,-0.59332 -0.05287,-0.19556 -0.118908,-0.388502 -0.193283,-0.577617 -0.07438,-0.189115 -0.157083,-0.374401 -0.243281,-0.554649 C 43.361354,90.144167 43.271666,89.968958 43.183333,89.8 43.095,89.631042 43.008021,89.468333 42.927239,89.313086 c -0.08078,-0.155247 -0.155364,-0.303034 -0.218906,-0.442148 -0.06354,-0.139115 -0.116042,-0.269557 -0.152657,-0.390117 -0.03661,-0.12056 -0.05734,-0.231238 -0.05734,-0.330821 0,-0.09979 -0.007,-0.216198 -0.02033,-0.345234 -0.01337,-0.129037 -0.03317,-0.270704 -0.05884,-0.421016 -0.02567,-0.150313 -0.05724,-0.309271 -0.09415,-0.472891 C 42.288096,86.74724 42.245829,86.578958 42.198746,86.41 42.151662,86.241041 42.099762,86.071406 42.043577,85.905078 41.987392,85.73875 41.926923,85.575729 41.862704,85.42 41.798485,85.264272 41.730516,85.115835 41.659331,84.978673 41.588147,84.841511 41.513746,84.715625 41.436663,84.605 c -0.07729,-0.111041 -0.147735,-0.234505 -0.210622,-0.367451 -0.06289,-0.132946 -0.118219,-0.275374 -0.16529,-0.424346 -0.04707,-0.14897 -0.08588,-0.304484 -0.115719,-0.463602 -0.02984,-0.159118 -0.05071,-0.32184 -0.06191,-0.485226 -0.0112,-0.163385 -0.01275,-0.327435 -0.0039,-0.489209 0.0088,-0.161774 0.02808,-0.321273 0.05846,-0.475556 0.03037,-0.154275 0.07179,-0.303345 0.124984,-0.444262 0.0532,-0.140917 0.118174,-0.273681 0.195674,-0.395348 0.07771,-0.122084 0.152579,-0.273177 0.221693,-0.446546 0.06912,-0.17337 0.132475,-0.369014 0.187162,-0.580199 0.05469,-0.211186 0.100703,-0.437911 0.13513,-0.673441 0.03443,-0.23553 0.05727,-0.479866 0.0656,-0.726272 0.0083,-0.246406 0.0022,-0.494883 -0.02143,-0.738695 -0.02359,-0.243812 -0.06461,-0.48296 -0.12597,-0.710707 -0.06136,-0.227745 -0.143051,-0.444092 -0.247997,-0.642306 -0.104945,-0.198213 -0.233145,-0.378293 -0.38752,-0.533501 -0.155,-0.155 -0.31276,-0.32388 -0.468265,-0.504036 -0.155505,-0.180156 -0.308753,-0.371588 -0.45473,-0.571692 -0.145976,-0.200103 -0.284679,-0.408879 -0.411094,-0.623724 -0.126415,-0.214844 -0.240542,-0.435756 -0.337365,-0.660131 -0.09682,-0.224375 -0.176341,-0.452213 -0.233539,-0.680911 -0.0572,-0.228697 -0.09207,-0.458254 -0.09961,-0.686067 -0.0075,-0.227813 0.01226,-0.453881 0.06441,-0.6756 0.05215,-0.221719 0.136657,-0.439088 0.258533,-0.649505 0.121667,-0.210417 0.196329,-0.391745 0.230554,-0.549531 0.03423,-0.157786 0.02801,-0.292031 -0.01206,-0.408281 -0.04008,-0.11625 -0.114024,-0.214506 -0.215267,-0.300313 -0.101244,-0.08581 -0.229785,-0.159167 -0.379056,-0.225625 -0.149271,-0.06646 -0.319271,-0.126015 -0.503431,-0.184218 -0.18416,-0.0582 -0.38248,-0.115052 -0.588392,-0.176094 -0.205911,-0.06104 -0.419414,-0.126276 -0.633938,-0.20125 -0.214525,-0.07497 -0.430072,-0.159688 -0.640072,-0.259688 -0.210208,-0.09979 -0.448047,-0.170469 -0.706777,-0.21723 -0.258731,-0.04676 -0.538353,-0.06961 -0.83213,-0.07373 -0.293776,-0.0041 -0.601706,0.01046 -0.917051,0.03857 -0.315344,0.02811 -0.638104,0.06974 -0.961542,0.119676 -0.323439,0.04994 -0.647554,0.108209 -0.965607,0.169601 -0.318053,0.06139 -0.630044,0.125908 -0.929237,0.188343 -0.299193,0.06243 -0.585586,0.122794 -0.852442,0.175878 -0.266855,0.05308 -0.514172,0.09889 -0.735214,0.132225 -0.22125,0.03312 -0.442448,0.05104 -0.661188,0.0553 -0.21874,0.0043 -0.435023,-0.0051 -0.646442,-0.02665 -0.21142,-0.02151 -0.417976,-0.05513 -0.617263,-0.09931 -0.199287,-0.04418 -0.391305,-0.09892 -0.573649,-0.162671 -0.182344,-0.06375 -0.355013,-0.13651 -0.515602,-0.216732 -0.160589,-0.08022 -0.309098,-0.167903 -0.443121,-0.261497 -0.134024,-0.09359 -0.253562,-0.193099 -0.356208,-0.296966 -0.102647,-0.103868 -0.188402,-0.212097 -0.254861,-0.323139 -0.06625,-0.110625 -0.142187,-0.242031 -0.226657,-0.388337 -0.08447,-0.146305 -0.17747,-0.307509 -0.277848,-0.477731 -0.100377,-0.170221 -0.208131,-0.349459 -0.322106,-0.531832 -0.113974,-0.182373 -0.23417,-0.367881 -0.35943,-0.550641 -0.12526,-0.18276 -0.255586,-0.362773 -0.389821,-0.534157 -0.134235,-0.171383 -0.272379,-0.334138 -0.413278,-0.48238 -0.140898,-0.148242 -0.28455,-0.281972 -0.429801,-0.395309 -0.145251,-0.113337 -0.2921,-0.20628 -0.439392,-0.272946 -0.146875,-0.06625 -0.26487,-0.160234 -0.357529,-0.275713 -0.09266,-0.115478 -0.159984,-0.252451 -0.205518,-0.404677 -0.04554,-0.152227 -0.06928,-0.319707 -0.07477,-0.496201 -0.0055,-0.176495 0.0072,-0.362003 0.03469,-0.550284 0.02745,-0.188282 0.06959,-0.379336 0.122898,-0.566924 0.05331,-0.187588 0.117766,-0.371709 0.189837,-0.546123 0.07207,-0.174414 0.151752,-0.339121 0.235499,-0.487881 0.08375,-0.14876 0.17156,-0.281572 0.259893,-0.392197 0.08875,-0.110625 0.144271,-0.23375 0.174863,-0.365912 0.03059,-0.132161 0.03626,-0.273359 0.02529,-0.42013 -0.01096,-0.146771 -0.03855,-0.299114 -0.07447,-0.453567 -0.03592,-0.154454 -0.08016,-0.311016 -0.124435,-0.466224 -0.04427,-0.155208 -0.08857,-0.309063 -0.12459,-0.458099 -0.03602,-0.149037 -0.06377,-0.293256 -0.07494,-0.429193 -0.01117,-0.135937 -0.0058,-0.263594 0.02451,-0.379505 0.03028,-0.115912 0.08544,-0.220078 0.17377,-0.309037 0.08875,-0.08854 0.173281,-0.206146 0.256025,-0.34526 0.08274,-0.139115 0.163701,-0.299739 0.245303,-0.474323 0.0816,-0.174583 0.163847,-0.363125 0.24917,-0.558073 0.08532,-0.194948 0.173721,-0.396302 0.267627,-0.59651 0.09391,-0.200209 0.193321,-0.399271 0.300674,-0.589636 0.107354,-0.190364 0.222647,-0.372031 0.348311,-0.537448 0.125664,-0.165417 0.261699,-0.314583 0.410537,-0.439948 0.148837,-0.125364 0.310478,-0.226927 0.487353,-0.297135 0.177083,-0.07 0.327865,-0.137266 0.456237,-0.203984 0.128373,-0.06672 0.234336,-0.132891 0.321785,-0.200703 0.08745,-0.06781 0.15638,-0.137265 0.21069,-0.210547 0.05431,-0.07328 0.094,-0.150391 0.122955,-0.233516 0.02896,-0.08313 0.04719,-0.172266 0.05858,-0.269609 0.01139,-0.09734 0.01595,-0.202891 0.01757,-0.318828 0.0016,-0.115937 2.9e-4,-0.242266 -8.9e-5,-0.381172 -3.79e-4,-0.138906 1.89e-4,-0.290391 0.0056,-0.456641 0.0057,-0.16625 0.03475,-0.311719 0.08186,-0.440387 0.0471,-0.128669 0.112218,-0.240537 0.189941,-0.339586 0.07772,-0.09905 0.16803,-0.185281 0.265481,-0.262674 0.09745,-0.07739 0.202046,-0.145947 0.308348,-0.209645 0.106303,-0.0637 0.214311,-0.12254 0.318585,-0.180506 0.104273,-0.05796 0.204813,-0.115054 0.29618,-0.175249 0.09137,-0.0602 0.173571,-0.1235 0.241155,-0.193886 0.06758,-0.07039 0.120554,-0.147859 0.153471,-0.2364 0.03334,-0.08875 0.07492,-0.171927 0.125299,-0.249538 0.05038,-0.07761 0.109543,-0.149655 0.178035,-0.216139 0.06849,-0.06648 0.146304,-0.127408 0.233973,-0.182779 0.08767,-0.05537 0.185193,-0.10519 0.29311,-0.149461 0.107918,-0.04427 0.226225,-0.083 0.355457,-0.116181 0.129231,-0.03318 0.269387,-0.06083 0.421001,-0.08293 0.151615,-0.02211 0.314688,-0.03868 0.489753,-0.04973 0.175065,-0.01105 0.362122,-0.01657 0.561706,-0.01657 0.198958,0 0.415156,-0.01456 0.643681,-0.04064 0.228525,-0.02608 0.469378,-0.06368 0.717647,-0.109778 0.248268,-0.04609 0.503952,-0.100676 0.762139,-0.160716 0.258187,-0.06004 0.518877,-0.125534 0.777158,-0.193451 0.258281,-0.06792 0.514154,-0.138255 0.762705,-0.207981 0.248552,-0.06973 0.489782,-0.138841 0.71878,-0.204311 0.228997,-0.06547 0.445761,-0.127292 0.64538,-0.182435 0.199619,-0.05514 0.382093,-0.103606 0.54251,-0.142356 0.160417,-0.03875 0.335339,-0.07958 0.518285,-0.118949 0.182946,-0.03936 0.373916,-0.07726 0.566428,-0.11014 0.192513,-0.03288 0.386569,-0.06074 0.575687,-0.08002 0.189118,-0.01929 0.373298,-0.03 0.546058,-0.02859 0.172761,0.0014 0.334102,0.01494 0.477543,0.04414 0.14344,0.0292 0.26898,0.07408 0.370139,0.138177 0.101159,0.0641 0.177937,0.147426 0.223851,0.25353 0.04592,0.106104 0.06097,0.234985 0.03867,0.390193 -0.02208,0.155 -0.0407,0.312761 -0.05474,0.47017 -0.01404,0.157409 -0.0235,0.314466 -0.02726,0.46806 -0.0038,0.153593 -0.0018,0.303723 0.0069,0.447278 0.0087,0.143555 0.0243,0.280534 0.04781,0.407826 0.02351,0.127288 0.05493,0.244892 0.09539,0.349698 0.04046,0.104805 0.08996,0.196812 0.149636,0.272907 0.05967,0.07609 0.129509,0.136276 0.210626,0.177435 0.08112,0.04116 0.173513,0.06329 0.278305,0.06329 0.105209,0 0.215235,0.0076 0.329821,0.0226 0.114587,0.01497 0.233734,0.03727 0.357184,0.06662 0.123451,0.02935 0.251205,0.06574 0.383005,0.108885 0.131801,0.04314 0.267647,0.09304 0.407282,0.149396 0.139633,0.05636 0.283058,0.119169 0.430015,0.188147 0.146956,0.06898 0.297445,0.144119 0.451208,0.225135 0.15376,0.08102 0.310796,0.167902 0.47085,0.260369 0.160054,0.09247 0.323127,0.190514 0.48896,0.293848 0.165833,0.103125 0.311615,0.182812 0.440114,0.241491 0.128499,0.05868 0.239717,0.09635 0.336423,0.115435 0.09671,0.01909 0.178901,0.01959 0.249353,0.0039 0.07045,-0.01565 0.129163,-0.04745 0.178902,-0.09296 0.04975,-0.04552 0.09051,-0.104762 0.125078,-0.175303 0.03456,-0.07054 0.06293,-0.152379 0.08786,-0.243082 0.02494,-0.0907 0.04644,-0.190273 0.06729,-0.296283 0.02084,-0.106009 0.04102,-0.218458 0.06331,-0.334916 0.02229,-0.116458 0.07078,-0.212812 0.14232,-0.290537 0.07154,-0.07772 0.166132,-0.136819 0.280624,-0.178759 0.114492,-0.04194 0.248886,-0.06672 0.400034,-0.07583 0.151149,-0.0091 0.319053,-0.0025 0.500564,0.01825 0.181512,0.02078 0.376629,0.05576 0.582205,0.103483 0.205576,0.04772 0.42161,0.108172 0.644957,0.179877 0.223348,0.07171 0.454005,0.15467 0.688825,0.247417 0.23482,0.09275 0.473803,0.195277 0.713803,0.30611 0.24,0.110833 0.490912,0.198099 0.747891,0.265788 0.256979,0.06769 0.520026,0.115801 0.784297,0.148327 0.264271,0.03253 0.529766,0.04947 0.791641,0.05482 0.261874,0.0053 0.520129,-9.05e-4 0.769921,-0.01477 0.249792,-0.01386 0.491119,-0.03532 0.71914,-0.06039 0.228021,-0.02507 0.442734,-0.05375 0.639297,-0.08206 0.196561,-0.02831 0.374972,-0.05624 0.530388,-0.0798 0.155417,-0.02356 0.287839,-0.04275 0.392422,-0.05359 0.105208,-0.01146 0.202813,-0.06091 0.292637,-0.140326 0.08982,-0.07941 0.171868,-0.188787 0.245956,-0.32009 0.07409,-0.131304 0.140222,-0.284533 0.198223,-0.451655 0.058,-0.167122 0.107872,-0.348137 0.149434,-0.535012 0.04156,-0.186876 0.07482,-0.37961 0.09959,-0.57017 0.02477,-0.190559 0.04106,-0.378944 0.04869,-0.557122 0.0076,-0.178178 0.0066,-0.346147 -0.0033,-0.495873 -0.0099,-0.149726 -0.02857,-0.28121 -0.05624,-0.386418 -0.02792,-0.105208 -0.07305,-0.177891 -0.13229,-0.225573 -0.05924,-0.04768 -0.132605,-0.07036 -0.21698,-0.07557 -0.08438,-0.0052 -0.179768,0.0071 -0.283075,0.02927 -0.103307,0.02222 -0.21453,0.05438 -0.330572,0.08896 -0.116042,0.03458 -0.236902,0.07159 -0.35948,0.103487 -0.122578,0.0319 -0.246875,0.0587 -0.369791,0.07287 -0.122917,0.01417 -0.244453,0.01572 -0.36151,-0.0029 -0.117057,-0.01861 -0.229635,-0.05739 -0.334635,-0.123873 -0.105,-0.06625 -0.21487,-0.113854 -0.328389,-0.147913 -0.113519,-0.03406 -0.230687,-0.05457 -0.350283,-0.06664 -0.119597,-0.01207 -0.241621,-0.0157 -0.364854,-0.01597 -0.123232,-2.74e-4 -0.247672,0.0028 -0.372099,0.0041 -0.124428,0.0013 -0.248842,8.85e-4 -0.372022,-0.0064 -0.12318,-0.0073 -0.245126,-0.02151 -0.364618,-0.04765 -0.1195,-0.02614 -0.236538,-0.06425 -0.349899,-0.119427 -0.113361,-0.05517 -0.223045,-0.127401 -0.327836,-0.221776 -0.105208,-0.09396 -0.199349,-0.20388 -0.281641,-0.324391 -0.08229,-0.120512 -0.152733,-0.251612 -0.210546,-0.387928 -0.05781,-0.136316 -0.102995,-0.277845 -0.134766,-0.419215 -0.03177,-0.14137 -0.05013,-0.282581 -0.0543,-0.418258 -0.0042,-0.135676 0.0059,-0.265819 0.03086,-0.385055 0.025,-0.119235 0.06498,-0.227563 0.120708,-0.319607 0.05573,-0.09204 0.127215,-0.167803 0.215234,-0.221909 0.08802,-0.0541 0.192575,-0.08655 0.31445,-0.09197 0.121458,-0.0057 0.235364,-0.01543 0.342829,-0.0295 0.107464,-0.01407 0.208486,-0.03244 0.304176,-0.05532 0.09569,-0.02287 0.186048,-0.05024 0.272184,-0.08226 0.08614,-0.03202 0.168051,-0.0687 0.246852,-0.110215 0.0788,-0.04151 0.15449,-0.08785 0.228178,-0.139196 0.07369,-0.05135 0.145377,-0.107692 0.216171,-0.169215 0.0708,-0.06152 0.140698,-0.128224 0.210818,-0.200272 0.07012,-0.07205 0.140459,-0.149444 0.212125,-0.23236 0.07208,-0.08313 0.169011,-0.162083 0.285085,-0.235322 0.116074,-0.07324 0.251295,-0.140759 0.399967,-0.201006 0.148672,-0.06025 0.310795,-0.113223 0.480671,-0.157373 0.169876,-0.04415 0.347507,-0.07948 0.527194,-0.104424 0.179688,-0.02495 0.361433,-0.03952 0.539538,-0.04215 0.178106,-0.0026 0.352572,0.0067 0.517702,0.02948 0.165126,0.0228 0.32092,0.05906 0.461682,0.110349 0.140763,0.05129 0.266494,0.117598 0.371494,0.200511 0.104792,0.08312 0.215886,0.162787 0.33153,0.237081 0.115645,0.07429 0.23584,0.143219 0.358835,0.204873 0.122994,0.06165 0.248788,0.116034 0.375631,0.161239 0.126842,0.04521 0.254734,0.08123 0.381921,0.106182 0.127188,0.02495 0.253672,0.03881 0.377702,0.0397 0.12403,8.85e-4 0.245606,-0.01121 0.362975,-0.0382 0.117379,-0.02699 0.230543,-0.06889 0.337748,-0.127579 0.107204,-0.05869 0.20845,-0.134183 0.301992,-0.228349 0.09396,-0.09396 0.140989,-0.199011 0.1504,-0.311696 0.0094,-0.112686 -0.0188,-0.233005 -0.07532,-0.357497 -0.05652,-0.124493 -0.14136,-0.253158 -0.245205,-0.382536 -0.103845,-0.129378 -0.226696,-0.259469 -0.359248,-0.386813 -0.132553,-0.127346 -0.274806,-0.251942 -0.417454,-0.37033 -0.142647,-0.118388 -0.285688,-0.230568 -0.419816,-0.333081 -0.134127,-0.102513 -0.259342,-0.195358 -0.366338,-0.275075 -0.106996,-0.07972 -0.195772,-0.146305 -0.257022,-0.196305 -0.06083,-0.04979 -0.107839,-0.113436 -0.14447,-0.186695 -0.03663,-0.07326 -0.06289,-0.156132 -0.08222,-0.244374 -0.01934,-0.08824 -0.03175,-0.181854 -0.0407,-0.276597 -0.0089,-0.09474 -0.01443,-0.190615 -0.0199,-0.283376 -0.0055,-0.09276 -0.01092,-0.18241 -0.01982,-0.264705 -0.0089,-0.08229 -0.02123,-0.157235 -0.04046,-0.220582 -0.01923,-0.06335 -0.04536,-0.115098 -0.08183,-0.151013 -0.03648,-0.03591 -0.0833,-0.05599 -0.143925,-0.05599 -0.06104,0 -0.120677,0.0035 -0.177783,0.0107 -0.05711,0.0072 -0.111682,0.01826 -0.162607,0.03338 -0.05094,0.01513 -0.09821,0.03445 -0.140703,0.05828 -0.04249,0.02383 -0.08021,0.05217 -0.112032,0.08534 -0.03183,0.03317 -0.05775,0.07121 -0.07665,0.114454 -0.0189,0.04325 -0.03078,0.0917 -0.03451,0.145728 -0.0037,0.05403 6.74e-4,0.113616 0.01435,0.179127 0.01367,0.06551 0.03662,0.136941 0.06995,0.21465 0.03313,0.0775 0.03588,0.162604 0.01478,0.250993 -0.02109,0.08839 -0.06602,0.180061 -0.128267,0.2707 -0.06223,0.09063 -0.141725,0.180229 -0.231935,0.26448 -0.09021,0.08425 -0.191137,0.16315 -0.296241,0.232368 -0.105104,0.06922 -0.214375,0.128762 -0.321257,0.174313 -0.106881,0.04555 -0.211373,0.07711 -0.30692,0.09035 -0.09556,0.01324 -0.182161,0.0082 -0.253263,-0.01953 -0.0711,-0.0277 -0.1267,-0.07804 -0.160242,-0.155332 -0.03292,-0.07771 -0.06862,-0.164375 -0.107193,-0.256546 -0.03858,-0.09217 -0.08002,-0.189847 -0.124422,-0.289574 -0.0444,-0.09973 -0.09176,-0.201503 -0.142155,-0.301877 -0.0504,-0.100375 -0.103834,-0.199346 -0.160397,-0.293461 -0.05656,-0.09411 -0.11625,-0.183372 -0.179147,-0.26432 -0.0629,-0.08095 -0.129003,-0.153584 -0.198404,-0.214457 -0.0694,-0.06087 -0.142096,-0.109981 -0.218171,-0.14387 -0.07607,-0.03389 -0.155527,-0.05256 -0.238444,-0.05256 -0.08271,0 -0.168906,0.04708 -0.256517,0.13043 -0.08761,0.08335 -0.176634,0.202955 -0.264993,0.348008 -0.08836,0.145052 -0.176054,0.315546 -0.261009,0.500663 -0.08496,0.185117 -0.167169,0.384857 -0.244565,0.588399 -0.07739,0.203536 -0.149973,0.410877 -0.215658,0.611201 -0.06569,0.200324 -0.124475,0.393632 -0.174293,0.569101 -0.04982,0.175469 -0.09066,0.333099 -0.120462,0.46207 -0.0298,0.128971 -0.04855,0.229283 -0.05417,0.290117 -0.0057,0.06104 -0.02856,0.126901 -0.06611,0.19542 -0.03755,0.06852 -0.08977,0.139697 -0.154072,0.211376 -0.06431,0.07168 -0.140696,0.143864 -0.226565,0.214387 -0.08587,0.07052 -0.181221,0.13939 -0.283461,0.204442 -0.102239,0.06505 -0.211367,0.126288 -0.324788,0.181552 -0.113421,0.05526 -0.231137,0.104555 -0.350551,0.145713 -0.119415,0.04116 -0.240528,0.07419 -0.360746,0.09692 -0.120218,0.02274 -0.239541,0.03519 -0.355374,0.03519 -0.115833,0 -0.217187,0.01664 -0.304925,0.04672 -0.08774,0.03008 -0.161859,0.07359 -0.223226,0.127318 -0.06137,0.05373 -0.109981,0.117698 -0.146703,0.188685 -0.03672,0.07099 -0.06155,0.148997 -0.07535,0.23082 -0.0138,0.08183 -0.01659,0.167463 -0.0092,0.253709 0.0074,0.08625 0.02494,0.173101 0.05184,0.25736 0.0269,0.08425 0.06306,0.165907 0.107661,0.241766 0.0446,0.07586 0.09763,0.145915 0.158251,0.206957 0.06083,0.06083 0.108516,0.144532 0.143659,0.244646 0.03514,0.100113 0.05775,0.216643 0.06842,0.343141 0.01068,0.126497 0.0094,0.262962 -0.0031,0.402946 -0.01256,0.139984 -0.03645,0.283486 -0.07103,0.424059 -0.03458,0.140573 -0.07987,0.278216 -0.135249,0.406481 -0.05538,0.128265 -0.120845,0.247152 -0.195793,0.350212 -0.07495,0.103061 -0.159376,0.190294 -0.252671,0.255251 -0.0933,0.06496 -0.195458,0.107639 -0.305874,0.121597 -0.110625,0.01417 -0.212266,0.02167 -0.305697,0.02247 -0.09343,8.08e-4 -0.178652,-0.0051 -0.256438,-0.01767 -0.07779,-0.0126 -0.148138,-0.03194 -0.211829,-0.05804 -0.06369,-0.0261 -0.120724,-0.05896 -0.171869,-0.09859 -0.05114,-0.03963 -0.0964,-0.08605 -0.136555,-0.139284 -0.04015,-0.05323 -0.07519,-0.11328 -0.105894,-0.180169 -0.03072,-0.06692 -0.05709,-0.140668 -0.07989,-0.221282 -0.0228,-0.08061 -0.04204,-0.16809 -0.0585,-0.262465 -0.01646,-0.09396 -0.04469,-0.174791 -0.08158,-0.247343 -0.03689,-0.07255 -0.08243,-0.136824 -0.133527,-0.197657 -0.05109,-0.06083 -0.107734,-0.118229 -0.16681,-0.177031 -0.05908,-0.0588 -0.120587,-0.119011 -0.18142,-0.185469 -0.06083,-0.06646 -0.12099,-0.139166 -0.177357,-0.222969 -0.05637,-0.0838 -0.108946,-0.178698 -0.154623,-0.289531 -0.04568,-0.110832 -0.08445,-0.237603 -0.113215,-0.385155 -0.02876,-0.147553 -0.04751,-0.315887 -0.05314,-0.509845 -0.0056,-0.193958 -0.02575,-0.375416 -0.05788,-0.545856 -0.03213,-0.170439 -0.07626,-0.329859 -0.129876,-0.479742 -0.05362,-0.149883 -0.116733,-0.290228 -0.18683,-0.422517 -0.0701,-0.132288 -0.147182,-0.25652 -0.228744,-0.374176 -0.08155,-0.117643 -0.167593,-0.228716 -0.255608,-0.334697 C 44.824703,42.37533 44.734713,42.27444 44.64526,42.177162 44.555806,42.079884 44.466887,41.986218 44.381008,41.894685 44.29513,41.803151 44.212291,41.71375 44.135,41.625 44.057709,41.53625 43.965183,41.426068 43.861231,41.303018 43.75728,41.179968 43.641902,41.04405 43.518907,40.903828 43.395912,40.763606 43.2653,40.619082 43.130879,40.478818 42.996458,40.338555 42.858229,40.202552 42.72,40.079375 c -0.138229,-0.123177 -0.276458,-0.233529 -0.410879,-0.32249 -0.134421,-0.08896 -0.265033,-0.156533 -0.388028,-0.19415 -0.122994,-0.03762 -0.238372,-0.04528 -0.342324,-0.01442 -0.103951,0.03086 -0.196478,0.10023 -0.273769,0.216689 -0.07729,0.116458 -0.100704,0.249505 -0.08103,0.394209 0.01967,0.144704 0.08242,0.301065 0.177464,0.464151 0.09504,0.163086 0.222364,0.332897 0.371176,0.504502 0.148812,0.171605 0.319111,0.345003 0.500101,0.515263 0.18099,0.17026 0.372669,0.337382 0.564241,0.496435 0.191572,0.159053 0.383037,0.310036 0.563597,0.448018 0.18056,0.137981 0.350215,0.262962 0.498167,0.37001 0.147952,0.107047 0.274202,0.196162 0.367952,0.262412 0.09437,0.06646 0.17487,0.142604 0.242702,0.225498 0.06783,0.08289 0.123001,0.172536 0.166724,0.265987 0.04372,0.09345 0.076,0.19071 0.09805,0.288838 0.02205,0.09813 0.03387,0.197125 0.03668,0.294052 0.0028,0.09693 -0.0034,0.191785 -0.01738,0.281632 -0.01399,0.08985 -0.03577,0.174683 -0.06414,0.251571 -0.02837,0.07689 -0.0633,0.145827 -0.103593,0.203877 -0.04029,0.05805 -0.08593,0.105211 -0.13573,0.138545 -0.04979,0.03333 -0.105105,0.09643 -0.164642,0.181675 -0.05954,0.08525 -0.123301,0.192635 -0.189993,0.314548 -0.06669,0.121914 -0.136316,0.258353 -0.207572,0.401697 -0.07126,0.143343 -0.144148,0.293591 -0.217377,0.443122 -0.07323,0.149533 -0.146798,0.298348 -0.219409,0.438826 -0.07261,0.140478 -0.144263,0.272619 -0.213664,0.388804 -0.0694,0.116182 -0.136544,0.21641 -0.200141,0.293061 -0.0636,0.07665 -0.123648,0.129725 -0.178856,0.1516 -0.05562,0.02209 -0.110885,0.02833 -0.165003,0.02236 -0.05412,-0.006 -0.107093,-0.02416 -0.158148,-0.05096 -0.05105,-0.0268 -0.100185,-0.0622 -0.146621,-0.102599 -0.04644,-0.0404 -0.09018,-0.08579 -0.130436,-0.132557 -0.04026,-0.04677 -0.07704,-0.09492 -0.109571,-0.140837 -0.03253,-0.04592 -0.06081,-0.08961 -0.08405,-0.127445 -0.02324,-0.03784 -0.04145,-0.06983 -0.05385,-0.09236 -0.0124,-0.02253 -0.01898,-0.0356 -0.01898,-0.0356 -0.08292,-0.03312 -0.130626,-0.07458 -0.150111,-0.122552 -0.01949,-0.04797 -0.01075,-0.102447 0.01923,-0.161614 0.02998,-0.05917 0.08119,-0.123021 0.146648,-0.18974 0.06546,-0.06672 0.145175,-0.136302 0.232154,-0.206927 0.08698,-0.07062 0.181224,-0.142292 0.275749,-0.213177 0.09453,-0.07089 0.189329,-0.14099 0.277428,-0.20849 0.0881,-0.0675 0.169487,-0.132392 0.237188,-0.19286 0.0677,-0.06047 0.121711,-0.116509 0.155045,-0.166301 0.03291,-0.04979 0.01409,-0.136978 -0.04514,-0.252994 -0.05922,-0.116016 -0.158847,-0.260861 -0.28752,-0.425965 C 42.763668,44.817606 42.605948,44.632241 42.430525,44.435183 42.255103,44.238126 42.061979,44.029375 41.8625,43.8175 41.663021,43.605625 41.457188,43.390625 41.256348,43.181068 41.055508,42.97151 40.859662,42.767396 40.680157,42.577292 40.500652,42.387188 40.337488,42.211094 40.202012,42.057578 40.066537,41.904063 39.95875,41.773125 39.89,41.673333 c -0.06875,-0.09979 -0.165625,-0.164271 -0.28459,-0.201741 -0.118964,-0.03747 -0.260019,-0.04793 -0.417128,-0.03969 -0.15711,0.0082 -0.330274,0.03519 -0.513458,0.07254 -0.183183,0.03735 -0.376386,0.08509 -0.573574,0.134938 -0.197186,0.04984 -0.398358,0.101785 -0.597479,0.147517 -0.199122,0.04573 -0.396193,0.08526 -0.585178,0.11027 -0.188984,0.02501 -0.369882,0.03551 -0.53666,0.0232 -0.166777,-0.01232 -0.319433,-0.04745 -0.451933,-0.113698 -0.132709,-0.06625 -0.273724,-0.08479 -0.41915,-0.06366 -0.145427,0.02113 -0.295264,0.08193 -0.445615,0.174364 -0.150351,0.09244 -0.301217,0.216504 -0.448701,0.36417 -0.147484,0.147666 -0.291586,0.318929 -0.428409,0.505751 -0.136824,0.186823 -0.266368,0.389206 -0.384737,0.599112 -0.118369,0.209906 -0.225563,0.427334 -0.317685,0.644248 -0.09212,0.216918 -0.169175,0.43332 -0.227257,0.641169 -0.05808,0.207849 -0.0972,0.407146 -0.113446,0.589855 -0.01688,0.182917 -0.05859,0.349167 -0.12179,0.500058 -0.0632,0.150892 -0.147871,0.286426 -0.250658,0.40791 -0.102787,0.121484 -0.223685,0.228919 -0.35933,0.323614 -0.135644,0.09469 -0.286034,0.176647 -0.447805,0.247168 -0.161769,0.07052 -0.33492,0.129609 -0.516086,0.178574 -0.181166,0.04897 -0.370346,0.08781 -0.564174,0.117832 -0.193828,0.03003 -0.392305,0.05124 -0.592064,0.06494 -0.19976,0.0137 -0.400801,0.0199 -0.59976,0.0199 -0.19875,0 -0.389271,-0.01867 -0.569472,-0.05368 -0.180202,-0.03501 -0.350085,-0.08637 -0.507559,-0.151735 -0.157472,-0.06537 -0.302537,-0.144742 -0.433104,-0.235795 -0.130567,-0.09105 -0.246635,-0.193785 -0.346115,-0.305868 -0.09948,-0.112083 -0.182369,-0.233515 -0.246581,-0.361965 -0.06421,-0.128451 -0.109746,-0.263919 -0.134512,-0.404076 -0.02477,-0.140156 -0.02876,-0.285 -0.0099,-0.4322 0.01886,-0.147201 0.06058,-0.296759 0.127246,-0.446342 0.06625,-0.149584 0.111771,-0.311615 0.142526,-0.480905 0.03076,-0.16929 0.04675,-0.34584 0.05393,-0.52446 0.0072,-0.178619 0.0056,-0.359309 0.0011,-0.536881 -0.0045,-0.177572 -0.01175,-0.352025 -0.01589,-0.518171 -0.0041,-0.166146 -0.0052,-0.323984 0.0028,-0.468326 0.008,-0.144342 0.02516,-0.275189 0.05737,-0.38735 0.0322,-0.112158 0.07944,-0.205635 0.147694,-0.275239 0.06825,-0.0696 0.157514,-0.115335 0.273764,-0.132001 0.116042,-0.01646 0.258985,-0.0288 0.421328,-0.04066 0.162344,-0.01186 0.344089,-0.02322 0.537734,-0.03772 0.193646,-0.0145 0.399193,-0.03214 0.609141,-0.05655 0.209948,-0.02441 0.424297,-0.05558 0.635547,-0.09715 0.21125,-0.04157 0.419401,-0.09352 0.616953,-0.159487 0.197552,-0.06597 0.384505,-0.145955 0.55336,-0.243586 0.168854,-0.09763 0.319609,-0.212904 0.444765,-0.349446 0.125156,-0.136543 0.224714,-0.294356 0.291172,-0.477064 0.06625,-0.182709 0.07654,-0.363359 0.04615,-0.54013 -0.03038,-0.17677 -0.101438,-0.349661 -0.197873,-0.516848 -0.09643,-0.167187 -0.218244,-0.328671 -0.350138,-0.48263 -0.131894,-0.153959 -0.273873,-0.300392 -0.410643,-0.437475 -0.136771,-0.137084 -0.268333,-0.264818 -0.379395,-0.38138 -0.111061,-0.116563 -0.201621,-0.221953 -0.256387,-0.314349 -0.05477,-0.09239 -0.07374,-0.171796 -0.04162,-0.23638 0.03212,-0.06458 0.11532,-0.11435 0.264901,-0.147475 0.148958,-0.03334 0.308359,-0.09154 0.475856,-0.169952 0.167497,-0.07841 0.34309,-0.177039 0.52443,-0.291219 0.181341,-0.11418 0.368431,-0.243913 0.558923,-0.384541 0.190491,-0.140629 0.384385,-0.292152 0.579332,-0.449913 0.194948,-0.157761 0.39095,-0.321759 0.585661,-0.487335 0.19471,-0.165576 0.388129,-0.33273 0.577908,-0.496805 0.189779,-0.164074 0.375918,-0.325071 0.556071,-0.47833 0.180152,-0.153258 0.354319,-0.29878 0.520152,-0.431905 0.165417,-0.132917 0.31224,-0.269974 0.444863,-0.408242 0.132624,-0.138268 0.251049,-0.277747 0.359669,-0.415508 0.108619,-0.13776 0.207434,-0.273801 0.300839,-0.405195 0.0934,-0.131393 0.1814,-0.258138 0.268379,-0.377305 0.08698,-0.119167 0.172943,-0.230755 0.262285,-0.331836 0.08934,-0.10108 0.182064,-0.191653 0.282558,-0.268789 0.100494,-0.07714 0.208763,-0.140834 0.329199,-0.188164 0.120437,-0.04733 0.253042,-0.07829 0.402208,-0.08996 0.149584,-0.01146 0.257656,-0.05602 0.334333,-0.126514 0.07668,-0.0705 0.121956,-0.166935 0.145954,-0.282157 0.024,-0.115222 0.0267,-0.249226 0.01825,-0.394854 -0.0085,-0.145628 -0.02808,-0.30288 -0.04875,-0.4646 -0.02066,-0.161719 -0.0424,-0.327904 -0.05507,-0.491397 -0.01268,-0.163493 -0.01629,-0.324293 -7.28e-4,-0.475243 0.01557,-0.15095 0.0503,-0.29205 0.114316,-0.416142 0.06402,-0.124092 0.157322,-0.231176 0.29003,-0.314093 0.132917,-0.08312 0.253334,-0.108075 0.363855,-0.08809 0.11052,0.01998 0.211145,0.0849 0.304479,0.181511 0.09333,0.09661 0.179371,0.224894 0.260726,0.371621 0.08135,0.146728 0.158023,0.311895 0.232607,0.482259 0.07458,0.170365 0.147084,0.345925 0.220105,0.513435 0.07302,0.167509 0.146562,0.326969 0.223228,0.465133 0.07667,0.138165 0.156459,0.255033 0.241979,0.33736 0.08552,0.08233 0.176772,0.130114 0.276355,0.130114 0.09958,0 0.211536,-0.0042 0.333805,-0.01016 0.122268,-0.006 0.254853,-0.01381 0.3957,-0.02112 0.140848,-0.0073 0.289956,-0.0141 0.445271,-0.01803 0.155315,-0.0039 0.316838,-0.005 0.482515,-8.96e-4 0.165677,0.0041 0.335508,0.01343 0.507439,0.03027 0.17193,0.01684 0.34596,0.04122 0.520035,0.07548 0.174075,0.03426 0.348197,0.07839 0.520309,0.134745 0.172113,0.05635 0.342218,0.124917 0.508259,0.208042 0.166041,0.08312 0.317526,0.135078 0.456537,0.158976 0.13901,0.0239 0.265547,0.01974 0.381693,-0.0094 0.116146,-0.0291 0.221901,-0.08314 0.319349,-0.159011 0.09745,-0.07587 0.186588,-0.173567 0.269504,-0.289974 0.08292,-0.116406 0.159609,-0.251523 0.232161,-0.402236 0.07255,-0.150713 0.140965,-0.317021 0.207319,-0.49581 0.06636,-0.178794 0.130652,-0.370067 0.194974,-0.570704 0.06432,-0.200636 0.128668,-0.410637 0.195127,-0.626887 0.06625,-0.215833 0.144948,-0.419245 0.237125,-0.612562 0.09218,-0.193316 0.197835,-0.376539 0.318005,-0.551995 0.120169,-0.175455 0.25485,-0.343144 0.405075,-0.505394 0.150225,-0.162249 0.315993,-0.319059 0.498336,-0.472757 0.182344,-0.153699 0.381263,-0.304285 0.59779,-0.454086 0.216526,-0.149801 0.45066,-0.298818 0.703434,-0.449378 0.252774,-0.15056 0.524187,-0.302663 0.815271,-0.458636 0.291083,-0.155973 0.601838,-0.315817 0.933297,-0.481859 0.331666,-0.16625 0.532786,-0.284713 0.628737,-0.367337 0.09595,-0.08262 0.08673,-0.129407 -0.0023,-0.152298 -0.08901,-0.02289 -0.257812,-0.02189 -0.481028,-0.0089 -0.223216,0.01295 -0.500847,0.03784 -0.807513,0.06274 -0.306667,0.0249 -0.64237,0.04979 -0.981732,0.06274 -0.339362,0.01295 -0.682383,0.01395 -1.003685,-0.0089 -0.321302,-0.02289 -0.620885,-0.06967 -0.873372,-0.152297 -0.252487,-0.08262 -0.457878,-0.201088 -0.590795,-0.367338 -0.132708,-0.16625 -0.226015,-0.357422 -0.286399,-0.56872 -0.06038,-0.211299 -0.08785,-0.442725 -0.08886,-0.689483 -0.001,-0.246757 0.02441,-0.508847 0.06981,-0.781474 0.0454,-0.272627 0.110762,-0.555791 0.189617,-0.844698 0.07886,-0.288906 0.171199,-0.583555 0.270554,-0.87915 0.09936,-0.295596 0.205722,-0.592139 0.312623,-0.884835 0.1069,-0.292694 0.214335,-0.58154 0.315826,-0.861744 0.101492,-0.280205 0.197039,-0.551767 0.280164,-0.809892 0.08292,-0.258333 0.111925,-0.419818 0.09636,-0.500472 -0.01557,-0.08065 -0.07571,-0.08048 -0.171092,-0.01549 -0.09539,0.06499 -0.226024,0.194787 -0.382581,0.373377 -0.156557,0.178591 -0.339033,0.405972 -0.538095,0.666128 -0.199063,0.260156 -0.414714,0.553086 -0.637624,0.862771 -0.22291,0.309684 -0.453079,0.636123 -0.681178,0.963298 -0.2281,0.327176 -0.45413,0.655086 -0.668761,0.967712 -0.21463,0.312627 -0.417861,0.609969 -0.600361,0.876011 -0.182708,0.265833 -0.313515,0.512969 -0.402805,0.744782 -0.08929,0.231813 -0.137064,0.448304 -0.153705,0.652848 -0.01664,0.204544 -0.0021,0.397142 0.03309,0.581169 0.03524,0.184027 0.09123,0.359483 0.157584,0.529743 0.06635,0.170259 0.143072,0.335324 0.219771,0.49857 0.0767,0.163245 0.15338,0.324671 0.219656,0.487653 0.06628,0.162982 0.122149,0.32752 0.157233,0.49699 0.03509,0.169469 0.04938,0.34387 0.03251,0.526578 -0.01646,0.182917 -0.06813,0.369948 -0.145942,0.557207 -0.07782,0.187259 -0.18178,0.374746 -0.302835,0.558575 -0.121055,0.183828 -0.259199,0.363997 -0.405374,0.536621 -0.146175,0.172624 -0.300381,0.337701 -0.453558,0.491347 -0.153177,0.153645 -0.305326,0.295859 -0.447386,0.422754 -0.14206,0.126895 -0.274033,0.23847 -0.386859,0.33084 -0.112826,0.09237 -0.206504,0.165533 -0.271976,0.215605 -0.06547,0.05007 -0.102737,0.07705 -0.102737,0.07705 -0.132709,0.01666 -0.246771,-0.002 -0.345811,-0.04919 -0.09904,-0.04721 -0.183057,-0.122974 -0.255674,-0.220554 -0.07262,-0.09758 -0.133833,-0.216966 -0.187274,-0.351412 -0.05344,-0.134446 -0.09911,-0.283951 -0.140616,-0.441764 -0.04151,-0.157812 -0.07887,-0.323932 -0.115694,-0.491608 -0.03683,-0.167676 -0.07312,-0.336908 -0.112509,-0.500944 -0.03939,-0.164036 -0.08187,-0.322878 -0.131064,-0.469772 C 41.227162,26.636198 41.17125,26.50125 41.105,26.385 c -0.06646,-0.11625 -0.139141,-0.211744 -0.218304,-0.287779 -0.07916,-0.07604 -0.164808,-0.132611 -0.257191,-0.171023 -0.09238,-0.03841 -0.191503,-0.05866 -0.297619,-0.06203 -0.106117,-0.0034 -0.219229,0.01011 -0.339594,0.03916 -0.120366,0.02906 -0.247983,0.07369 -0.38311,0.132605 -0.135127,0.05891 -0.277763,0.132108 -0.428167,0.21828 -0.150404,0.08617 -0.308575,0.185326 -0.474769,0.296166 -0.166195,0.110841 -0.340413,0.233367 -0.522913,0.366284 -0.1825,0.132917 -0.344244,0.193151 -0.488346,0.193939 -0.144101,7.88e-4 -0.27056,-0.05787 -0.382487,-0.162739 -0.111927,-0.104869 -0.209323,-0.25595 -0.2953,-0.440006 -0.08598,-0.184056 -0.160533,-0.401088 -0.226783,-0.637859 -0.06625,-0.236771 -0.124193,-0.493282 -0.17694,-0.756296 -0.05275,-0.263014 -0.1003,-0.532532 -0.145769,-0.795319 -0.04547,-0.262786 -0.08886,-0.518841 -0.133268,-0.754928 -0.04441,-0.236087 -0.08986,-0.452207 -0.13944,-0.635124 -0.04937,-0.1825 -0.0491,-0.371302 -0.0082,-0.563919 0.04085,-0.192617 0.122286,-0.389049 0.235226,-0.586809 0.112935,-0.197751 0.257335,-0.396839 0.424127,-0.594772 0.166793,-0.197932 0.355976,-0.394708 0.558476,-0.587833 0.2025,-0.193125 0.418307,-0.382604 0.638333,-0.565951 0.220026,-0.183346 0.444271,-0.360559 0.663646,-0.529152 0.219376,-0.168594 0.433881,-0.328568 0.634428,-0.477435 0.200547,-0.148868 0.387135,-0.286628 0.550677,-0.410795 0.163333,-0.124583 0.339974,-0.308411 0.528711,-0.541992 0.188737,-0.233581 0.38957,-0.516914 0.601289,-0.840508 0.211719,-0.323594 0.434323,-0.687448 0.666601,-1.082071 0.232279,-0.394622 0.474232,-0.820013 0.724649,-1.266679 0.250417,-0.446667 0.509297,-0.914609 0.77543,-1.394336 0.266133,-0.479727 0.539518,-0.971237 0.818945,-1.465039 0.279427,-0.493802 0.564896,-0.989896 0.855195,-1.478789 0.2903,-0.488893 0.58543,-0.970586 0.88418,-1.435586 0.29875,-0.4652085 0.614036,-0.8432032 0.93887,-1.1456609 0.324834,-0.3024576 0.659216,-0.5293781 0.996156,-0.6924381 0.33694,-0.16306 0.676439,-0.2622592 1.011507,-0.3092742 0.335068,-0.047015 0.665706,-0.041846 0.984925,0.00383 0.319219,0.045677 0.627018,0.131862 0.91641,0.2468784 0.289391,0.1150164 0.560374,0.2588641 0.80596,0.4198666 0.245586,0.1610025 0.465775,0.33916 0.653577,0.522796 0.187803,0.183636 0.343219,0.3727505 0.459261,0.555667 0.116458,0.1825 0.255599,0.3276562 0.414343,0.4471485 0.158744,0.1194922 0.33709,0.2133205 0.531959,0.2931645 0.19487,0.079844 0.406263,0.1457035 0.6311,0.209258 0.224838,0.063554 0.463119,0.124804 0.711765,0.195429 0.248646,0.070625 0.507656,0.150625 0.773952,0.25168 0.266296,0.101054 0.539876,0.223164 0.817663,0.378008 0.277786,0.154844 0.559778,0.342422 0.842897,0.574414 0.283118,0.231992 0.567363,0.508398 0.849655,0.840898 0.282083,0.332292 0.485338,0.641719 0.620149,0.926697 0.134811,0.284977 0.201178,0.545504 0.209486,0.779996 0.0083,0.234493 -0.04145,0.44295 -0.138873,0.623786 -0.09743,0.180837 -0.242533,0.334052 -0.424929,0.458063 -0.182396,0.124011 -0.402084,0.218815 -0.648679,0.282829 -0.246595,0.06401 -0.520097,0.09724 -0.810123,0.09808 -0.290026,8.46e-4 -0.596575,-0.03068 -0.909264,-0.09617 -0.312689,-0.06549 -0.631518,-0.164944 -0.946101,-0.299944 -0.315625,-0.135 -0.544088,-0.194427 -0.699404,-0.192988 -0.155315,0.0014 -0.237483,0.06374 -0.260517,0.172208 -0.02303,0.108464 0.01307,0.263086 0.09429,0.44916 0.08122,0.186074 0.207561,0.4036 0.365009,0.637871 0.157448,0.234271 0.346003,0.485287 0.551651,0.73834 0.205647,0.253053 0.428388,0.508144 0.654209,0.750566 0.225821,0.242422 0.45472,0.472174 0.672686,0.67455 0.217965,0.202377 0.424996,0.377377 0.607079,0.510294 0.1825,0.132708 0.354635,0.194843 0.517184,0.200419 0.162549,0.0056 0.315511,-0.04541 0.459665,-0.138939 0.144153,-0.09353 0.279498,-0.229605 0.406813,-0.39421 0.127315,-0.164606 0.246599,-0.357744 0.35863,-0.5654 0.112031,-0.207656 0.21681,-0.429831 0.315114,-0.65251 0.0983,-0.222679 0.190133,-0.445862 0.276266,-0.655537 0.08613,-0.209674 0.166569,-0.405839 0.242086,-0.574481 0.07552,-0.168642 0.146117,-0.309762 0.212576,-0.409345 0.06625,-0.09979 0.155286,-0.18086 0.263226,-0.250482 0.107939,-0.06962 0.234782,-0.1278 0.376644,-0.18181 0.141862,-0.05401 0.298743,-0.103854 0.466761,-0.15681 0.168017,-0.05296 0.347171,-0.109023 0.533577,-0.175482 0.186406,-0.06646 0.380065,-0.143308 0.577093,-0.237826 0.197028,-0.09452 0.397425,-0.206705 0.597309,-0.34384 0.199883,-0.137135 0.399251,-0.299218 0.594222,-0.493528 0.19497,-0.194311 0.385542,-0.420847 0.567834,-0.686889 0.182708,-0.265833 0.394375,-0.492188 0.628604,-0.684323 0.234228,-0.192135 0.491019,-0.350052 0.763975,-0.47901 0.272956,-0.128958 0.562077,-0.228958 0.860967,-0.30526 0.29889,-0.0763 0.607549,-0.128907 0.919579,-0.163074 0.312032,-0.03417 0.627436,-0.0499 0.939815,-0.05245 0.31238,-0.0026 0.621735,0.0081 0.92167,0.02662 0.299935,0.01854 0.590449,0.045 0.865146,0.07412 0.274697,0.02911 0.533577,0.06088 0.770244,0.09005 0.236875,0.02937 0.436771,0.03321 0.602901,0.01518 0.166129,-0.01803 0.298493,-0.05791 0.400303,-0.115961 0.101808,-0.05805 0.173065,-0.134261 0.216981,-0.224943 0.04392,-0.09068 0.06049,-0.195837 0.05294,-0.311775 -0.0076,-0.115937 -0.03923,-0.242656 -0.09183,-0.376465 C 71.587038,10.053893 71.513529,9.912994 71.422318,9.768697 71.331107,9.6244006 71.222195,9.4767056 71.098793,9.3293034 70.975391,9.1819013 70.8375,9.034792 70.688333,8.891667 70.577916,8.7858335 70.509531,8.7048178 70.478548,8.646097 c -0.03098,-0.058721 -0.02456,-0.095146 0.01463,-0.1118 0.03919,-0.016653 0.111157,-0.013535 0.211268,0.00683 0.100111,0.020367 0.228368,0.057984 0.380138,0.1103292 0.15177,0.052345 0.327057,0.1194159 0.521231,0.1986897 0.194173,0.079274 0.407234,0.1707508 0.634551,0.2719093 0.227318,0.1011586 0.468893,0.2119986 0.720098,0.3299968 0.251204,0.1179982 0.512037,0.2431547 0.77787,0.3729462 1.715209,1.015209 3.35987,2.137084 4.924822,3.356504 1.564951,1.219421 3.050192,2.536387 4.446558,3.941778 1.396366,1.405391 2.70386,2.899206 3.913317,4.472324 1.209456,1.573118 2.320876,3.22554 3.325095,4.948144 1.004219,1.722604 1.901237,3.51539 2.681891,5.369238 0.780655,1.853847 1.444945,3.768756 1.983707,5.735605 0.538763,1.96685 0.951999,3.985639 1.230544,6.047247 0.278545,2.061608 0.4224,4.166035 0.4224,6.30416 M 30.07,34.12 c -0.055,-0.05687 -0.0893,-0.134635 -0.106431,-0.22821 -0.01714,-0.09357 -0.01711,-0.202962 -0.0035,-0.323092 0.01364,-0.120131 0.04091,-0.251004 0.07825,-0.387547 0.03734,-0.136542 0.08477,-0.278756 0.138726,-0.421568 0.05396,-0.142813 0.114452,-0.286225 0.177942,-0.425163 0.06349,-0.138939 0.129975,-0.273405 0.195913,-0.398327 0.06594,-0.124922 0.131329,-0.2403 0.192632,-0.341061 0.0613,-0.100762 0.118516,-0.186907 0.1681,-0.253365 0.05,-0.06646 0.07021,-0.121849 0.06747,-0.166426 -0.0027,-0.04458 -0.02841,-0.07834 -0.07017,-0.101543 -0.04178,-0.02321 -0.09966,-0.03585 -0.166802,-0.03818 -0.06714,-0.0023 -0.143536,0.0056 -0.222338,0.02368 -0.0788,0.01803 -0.160009,0.04611 -0.236784,0.08397 -0.07677,0.03787 -0.149114,0.08553 -0.210169,0.142747 -0.06106,0.05722 -0.110829,0.123977 -0.142472,0.200023 -0.03164,0.07605 -0.04516,0.161383 -0.0337,0.255758 0.01104,0.09396 0.01034,0.194193 -0.0012,0.298271 -0.01153,0.104079 -0.03389,0.212002 -0.06616,0.321339 -0.03227,0.10932 -0.07434,0.220069 -0.125297,0.329802 -0.05096,0.109734 -0.110798,0.218453 -0.17861,0.323713 -0.06781,0.105262 -0.143569,0.207072 -0.226309,0.302999 -0.08274,0.09593 -0.172467,0.185973 -0.268222,0.267705 -0.09577,0.08174 -0.197564,0.15515 -0.304433,0.217813 -0.106868,0.06266 -0.218806,0.114577 -0.334847,0.153327 -0.116042,0.03875 -0.234115,0.07125 -0.350866,0.09681 -0.116751,0.02556 -0.232181,0.04419 -0.342936,0.05519 -0.110755,0.011 -0.216836,0.01438 -0.314889,0.0094 -0.09805,-0.0049 -0.18808,-0.01818 -0.266726,-0.04041 -0.07863,-0.02223 -0.145885,-0.05347 -0.198414,-0.09439 -0.05253,-0.04092 -0.09033,-0.09153 -0.110043,-0.152509 -0.01971,-0.06097 -0.02134,-0.132318 -0.0015,-0.214722 0.01981,-0.08241 0.06106,-0.175868 0.127099,-0.281076 0.06604,-0.105211 0.116247,-0.209039 0.152771,-0.311747 0.03653,-0.102708 0.05936,-0.204296 0.07067,-0.305025 0.0113,-0.100729 0.01107,-0.200598 0.0014,-0.299869 -0.0096,-0.09927 -0.02864,-0.197943 -0.05488,-0.296276 -0.02625,-0.09833 -0.05974,-0.196328 -0.09832,-0.294245 -0.03858,-0.09792 -0.08225,-0.195756 -0.128866,-0.293776 -0.04661,-0.09802 -0.09617,-0.196224 -0.146524,-0.29487 -0.05035,-0.09864 -0.101498,-0.197733 -0.15129,-0.297525 -0.04959,-0.09979 -0.05225,-0.194714 -0.0179,-0.285375 0.03435,-0.09066 0.105718,-0.177061 0.204204,-0.259807 0.09848,-0.08274 0.224035,-0.161833 0.366773,-0.237887 0.142738,-0.07605 0.302654,-0.149068 0.469842,-0.21964 0.167188,-0.07057 0.341642,-0.138711 0.513445,-0.205022 0.171803,-0.06631 0.340956,-0.130798 0.497545,-0.194066 0.156588,-0.06327 0.300612,-0.125319 0.422155,-0.186761 0.121542,-0.06144 0.220605,-0.122276 0.287272,-0.183109 0.06625,-0.06083 0.102837,-0.118933 0.116225,-0.175499 0.01339,-0.05657 0.0036,-0.111598 -0.02297,-0.166298 -0.02655,-0.0547 -0.06984,-0.109069 -0.123403,-0.164307 -0.05356,-0.05524 -0.117405,-0.111345 -0.185061,-0.169521 -0.06766,-0.05818 -0.139128,-0.118424 -0.207952,-0.181943 -0.06882,-0.06352 -0.135004,-0.13031 -0.192074,-0.201572 -0.05707,-0.07126 -0.10503,-0.146997 -0.137422,-0.228407 -0.03239,-0.08141 -0.04921,-0.168494 -0.044,-0.262453 0.0057,-0.09437 0.01543,-0.187318 0.02923,-0.277884 0.0138,-0.09057 0.03164,-0.178756 0.05344,-0.263626 0.02181,-0.08487 0.04757,-0.166421 0.07719,-0.243706 0.02962,-0.07728 0.0631,-0.150304 0.100338,-0.218117 0.03724,-0.06782 0.07824,-0.130421 0.122917,-0.186872 0.04467,-0.05645 0.09301,-0.106748 0.144921,-0.149952 0.05191,-0.04321 0.107401,-0.07931 0.16637,-0.107381 0.05897,-0.02807 0.121417,-0.04809 0.18725,-0.05913 0.06646,-0.01104 0.13237,-0.02602 0.197764,-0.04371 0.06539,-0.01769 0.13027,-0.0381 0.194658,-0.06001 0.06439,-0.02191 0.128293,-0.04533 0.191732,-0.06904 0.06344,-0.02371 0.126419,-0.04771 0.188971,-0.07078 0.06255,-0.02307 0.124673,-0.04522 0.186396,-0.06523 0.06172,-0.02001 0.123044,-0.03788 0.183994,-0.0524 0.06095,-0.01452 0.121529,-0.02568 0.181767,-0.03229 0.06024,-0.0066 0.120135,-0.0086 0.179718,-0.0049 0.182708,0.01125 0.335599,0.07299 0.464313,0.174515 0.128714,0.101521 0.233252,0.242816 0.319256,0.413167 0.086,0.170351 0.15347,0.369758 0.208043,0.587503 0.05457,0.217744 0.09625,0.453825 0.13068,0.697523 0.03443,0.243698 0.0616,0.495013 0.08717,0.743226 0.02556,0.248213 0.04952,0.493323 0.0775,0.724613 0.02798,0.231289 0.06,0.448757 0.101679,0.641683 0.04168,0.192927 0.09304,0.361312 0.159701,0.494437 0.06625,0.132708 0.147734,0.268932 0.239348,0.407532 0.09162,0.1386 0.193359,0.279577 0.30013,0.421791 0.106771,0.142214 0.218568,0.285664 0.330287,0.429212 0.111719,0.143548 0.223359,0.287194 0.329818,0.429798 0.106459,0.142604 0.207734,0.284167 0.298724,0.423548 0.09099,0.139382 0.171692,0.276582 0.237004,0.410462 0.06531,0.133882 0.115236,0.264442 0.144662,0.390542 0.02943,0.1261 0.03836,0.24774 0.02169,0.363782 -0.01667,0.116458 -0.03568,0.226666 -0.0583,0.329847 -0.02262,0.10318 -0.04886,0.199332 -0.07998,0.287679 -0.03112,0.08835 -0.06712,0.168886 -0.109277,0.240842 -0.04216,0.07196 -0.09047,0.135329 -0.146191,0.18934 -0.05572,0.05401 -0.118875,0.09866 -0.190719,0.133166 -0.07184,0.03451 -0.15238,0.05888 -0.242875,0.07233 -0.0905,0.01345 -0.190951,0.01599 -0.302637,0.0068 -0.111686,-0.0092 -0.234602,-0.03002 -0.370019,-0.06336 -0.136042,-0.03334 -0.282292,-0.03688 -0.435375,-0.01816 -0.153082,0.01872 -0.312997,0.05969 -0.47637,0.115391 -0.163372,0.0557 -0.330202,0.12613 -0.497113,0.203754 -0.166911,0.07762 -0.333903,0.162444 -0.497601,0.246923 -0.163698,0.08448 -0.324102,0.16862 -0.477835,0.244889 -0.153734,0.07627 -0.300798,0.144668 -0.437816,0.197663 -0.137019,0.05299 -0.263992,0.09059 -0.377543,0.105246 -0.113551,0.01466 -0.21368,0.0064 -0.297014,-0.03238 -0.08312,-0.03896 -0.1275,-0.0862 -0.142383,-0.139929 -0.01488,-0.05373 -2.73e-4,-0.113951 0.03457,-0.178872 0.03484,-0.06492 0.08992,-0.134545 0.155977,-0.207077 0.06605,-0.07253 0.143085,-0.147975 0.221835,-0.224538 0.07875,-0.07656 0.159219,-0.154245 0.232148,-0.231257 0.07293,-0.07701 0.13832,-0.153353 0.186914,-0.227233 0.04859,-0.07388 0.08039,-0.145296 0.08613,-0.212463 C 30.145936,34.239791 30.125625,34.176875 30.07,34.12 M 20.54,15.485 c 0.166041,0.08292 0.327864,0.136667 0.485739,0.166741 0.157874,0.03008 0.3118,0.03648 0.462048,0.02469 0.150248,-0.01178 0.296817,-0.04175 0.439977,-0.08441 0.143161,-0.04266 0.282914,-0.09801 0.419528,-0.160563 0.136614,-0.06255 0.27009,-0.132304 0.400699,-0.203766 0.130609,-0.07146 0.258351,-0.144632 0.383494,-0.21402 0.125143,-0.06939 0.247688,-0.134993 0.367906,-0.191325 0.120218,-0.05633 0.238109,-0.103389 0.353942,-0.13568 0.137292,-0.03791 0.267214,-0.01026 0.387393,0.06691 0.12018,0.07717 0.230616,0.203846 0.328936,0.363976 0.09832,0.16013 0.184525,0.353711 0.25624,0.564681 0.07172,0.21097 0.128942,0.439329 0.169306,0.669017 0.04036,0.229688 0.06387,0.460703 0.06814,0.676986 0.0043,0.216283 -0.01069,0.417832 -0.04727,0.588587 -0.03657,0.170756 -0.09476,0.310717 -0.176927,0.403822 -0.08217,0.09311 -0.188314,0.139355 -0.320814,0.122688 -0.13271,-0.01667 -0.267477,0.0041 -0.404707,0.05284 -0.137231,0.04878 -0.276925,0.125599 -0.41949,0.22112 -0.142565,0.09552 -0.288001,0.20974 -0.436715,0.333307 -0.148714,0.123568 -0.300707,0.256484 -0.456383,0.389401 -0.155677,0.132917 -0.315039,0.265834 -0.478493,0.389401 -0.163454,0.123568 -0.331,0.237787 -0.503044,0.333307 -0.172044,0.09552 -0.348587,0.172344 -0.530036,0.22112 -0.181448,0.04878 -0.367803,0.06951 -0.559469,0.05284 -0.191875,-0.01667 -0.349141,-0.04784 -0.48082,-0.09274 -0.13168,-0.04491 -0.237774,-0.103545 -0.327305,-0.175146 -0.08953,-0.0716 -0.1625,-0.156165 -0.22793,-0.25292 -0.06543,-0.09675 -0.12332,-0.2057 -0.182695,-0.326065 -0.05937,-0.120365 -0.120234,-0.252149 -0.191601,-0.39458 C 19.248281,18.75278 19.166406,18.599701 19.065,18.436745 18.963594,18.273789 18.842656,18.100957 18.693164,17.91902 18.543672,17.737084 18.365625,17.546042 18.15,17.346667 c -0.04625,-0.04292 -0.08909,-0.08531 -0.128672,-0.127177 -0.03958,-0.04187 -0.07591,-0.0832 -0.10914,-0.123995 -0.03323,-0.04079 -0.06336,-0.08105 -0.09055,-0.120753 -0.02719,-0.0397 -0.05143,-0.07886 -0.07289,-0.11745 -0.02146,-0.0386 -0.04013,-0.07663 -0.05617,-0.114093 -0.01604,-0.03746 -0.02945,-0.07436 -0.04039,-0.110673 -0.01093,-0.03632 -0.0194,-0.07205 -0.02554,-0.107198 -0.0061,-0.03515 -0.01,-0.0697 -0.01165,-0.103661 0.04604,-0.04437 0.09206,-0.08878 0.138078,-0.133171 0.04602,-0.04439 0.09205,-0.08878 0.13812,-0.133131 0.04607,-0.04435 0.09217,-0.08866 0.138352,-0.132896 0.04618,-0.04424 0.09243,-0.08841 0.138783,-0.132469 0.04635,-0.04406 0.09281,-0.08802 0.139407,-0.131842 0.04659,-0.04382 0.09333,-0.08751 0.140228,-0.131022 0.0469,-0.04351 0.09397,-0.08686 0.141243,-0.130006 0.04727,-0.04315 0.09475,-0.08609 0.142456,-0.128797 0.07458,-0.01979 0.150911,-0.03674 0.228366,-0.05077 0.07745,-0.01402 0.156035,-0.02512 0.235124,-0.03319 0.07909,-0.0081 0.158684,-0.01313 0.23817,-0.01507 0.07949,-0.0019 0.15886,-7.68e-4 0.237506,0.0036 0.07864,0.0044 0.15656,0.01195 0.23313,0.02282 0.07657,0.01087 0.151792,0.02504 0.225047,0.0426 0.07326,0.01756 0.144546,0.03849 0.213251,0.06291 0.0687,0.02441 0.134822,0.0523 0.197739,0.08376 m 41.503333,66.901667 c 0.154792,-0.03312 0.286511,-0.09893 0.4007,-0.188978 0.114189,-0.09005 0.210849,-0.20433 0.295524,-0.334407 0.08468,-0.130078 0.157364,-0.275951 0.22361,-0.429174 0.06625,-0.153222 0.126051,-0.313796 0.184958,-0.473275 0.05891,-0.15948 0.116915,-0.317865 0.179568,-0.466712 0.06265,-0.148848 0.129951,-0.288158 0.207437,-0.409486 0.07749,-0.121329 0.165162,-0.224675 0.268571,-0.301595 0.103408,-0.07692 0.222549,-0.127415 0.362966,-0.14304 0.298542,-0.03312 0.523828,0.04172 0.687783,0.201693 0.163955,0.159974 0.266579,0.405078 0.319795,0.712474 0.05322,0.307396 0.05701,0.677083 0.02333,1.086224 -0.03368,0.40914 -0.104843,0.857734 -0.201529,1.322942 -0.09669,0.465215 -0.218967,0.947038 -0.354889,1.422635 -0.135922,0.475598 -0.285488,0.944969 -0.436751,1.385282 -0.151263,0.440313 -0.304238,0.851563 -0.447002,1.210912 -0.142764,0.359349 -0.275316,0.666796 -0.385733,0.899505 -0.110625,0.232708 -0.212995,0.434921 -0.309088,0.608378 -0.09609,0.173457 -0.185911,0.318157 -0.271432,0.43584 -0.08552,0.117683 -0.166745,0.208347 -0.245652,0.273731 -0.07891,0.06538 -0.155495,0.105488 -0.231745,0.122051 -0.07625,0.01656 -0.152161,0.0096 -0.229713,-0.0192 -0.07755,-0.02878 -0.156745,-0.07937 -0.239557,-0.150018 -0.08281,-0.07065 -0.169246,-0.161367 -0.261277,-0.27041 -0.09203,-0.109043 -0.189662,-0.236413 -0.29487,-0.380371 -0.105625,-0.14375 -0.193776,-0.298646 -0.266054,-0.461384 -0.07228,-0.162738 -0.128685,-0.333318 -0.170821,-0.508435 -0.04214,-0.175116 -0.07,-0.354771 -0.08519,-0.535659 -0.01519,-0.180889 -0.01772,-0.363012 -0.0092,-0.543064 0.0085,-0.180053 0.02815,-0.358034 0.05722,-0.530642 0.02907,-0.172607 0.06762,-0.33984 0.114028,-0.498395 0.04641,-0.158554 0.10068,-0.30843 0.161213,-0.446324 0.06053,-0.137894 0.127328,-0.263806 0.198787,-0.374431 0.07125,-0.111042 0.117109,-0.224792 0.145235,-0.339359 0.02812,-0.114567 0.03851,-0.229951 0.03883,-0.344261 3.12e-4,-0.11431 -0.0095,-0.227546 -0.02164,-0.337816 -0.01219,-0.11027 -0.0268,-0.217575 -0.03618,-0.320022 -0.0094,-0.102448 -0.0135,-0.20004 -0.0047,-0.290883 0.0088,-0.09084 0.0304,-0.174938 0.07256,-0.250394 0.04217,-0.07547 0.104898,-0.142283 0.195838,-0.198565 0.09094,-0.05628 0.21009,-0.102033 0.36509,-0.135366"
     id="path4"
     style="fill:#000000;fill-opacity:1;stroke:none" />
</svg>
